<svg xmlns="http://www.w3.org/2000/svg" xmlns:xlink="http://www.w3.org/1999/xlink" viewBox="0 0 1920 1080"><defs><style>.cls-1{fill:none;}.cls-2{clip-path:url(#clip-path);}.cls-3{fill:#aace7c;}.cls-10,.cls-4,.cls-6{fill:#00f9ff;}.cls-10,.cls-4{stroke:#29abe2;}.cls-10,.cls-15,.cls-16,.cls-21,.cls-22,.cls-29,.cls-30,.cls-31,.cls-4{stroke-miterlimit:10;}.cls-21,.cls-22,.cls-31,.cls-4{stroke-width:3px;}.cls-5{fill:#0e9b91;}.cls-7{fill:#2adbce;}.cls-34,.cls-8{opacity:0.1;}.cls-9{fill:#13bcb3;}.cls-10,.cls-16,.cls-29{stroke-width:4px;}.cls-11,.cls-13{fill:#fff;}.cls-12{fill:#50b1f9;}.cls-13{opacity:0.2;}.cls-14{fill:#1682d3;}.cls-15{fill:#1f95ff;stroke:#48c2ff;stroke-width:10px;}.cls-16{fill:#29abe2;stroke:#7fcdee;}.cls-17{fill:#39b54a;}.cls-18,.cls-21{fill:#15ffbc;}.cls-19{fill:#19ba5d;}.cls-20{fill:#219b52;}.cls-21{stroke:#39b54a;}.cls-22,.cls-24{fill:#c899f2;}.cls-22{stroke:#662d91;}.cls-23{fill:#973ee5;}.cls-25{fill:#ad39ff;}.cls-26{fill:#b2446d;}.cls-27,.cls-29{fill:#ff7bac;}.cls-28{fill:#ed1e79;}.cls-29{stroke:#b2446d;}.cls-30,.cls-31{fill:#a67c52;stroke:#8c6239;}.cls-30{stroke-width:2px;}.cls-32{fill:#8c6239;opacity:0.8;}.cls-33{fill:#f4f0eb;}.cls-34{fill:#4d4d4d;}.cls-35{fill:#e0b3a0;}.cls-36{opacity:0.3;isolation:isolate;}.cls-37{fill:#f4eee9;}</style><clipPath id="clip-path"><rect class="cls-1" x="7.5" y="-0.5" width="1914" height="1076"/></clipPath></defs><title>game_over</title><g id="Layer_38" data-name="Layer 38"><g class="cls-2"><rect class="cls-3" x="3.5" y="-0.5" width="1920" height="1080"/><path class="cls-4" d="M647.62,870.42c1.13,4.49,17-1.24,18.22,3.21,2.64,9.24,12.54,15.15,19.31,11,4.48-2.72,8.25,17.2,13.39,16.14,13.12-2.71,126.57-212.17,126.57-212.17l-50.92-30.37S643.34,853.49,647.62,870.42Z"/><path class="cls-4" d="M1309.65,784.27c4.42-2.27-7.41-16.22-3.08-18.61,9-5,11.81-16.14,5-21.68-4.53-3.67,15.55-12.49,12.57-17.22-7.62-12.11-273.59-68.73-273.59-68.73l-14.45,57.51S1293,792.81,1309.65,784.27Z"/><path class="cls-5" d="M858.86,632c-126.09-10.29-126.09,54.9-126.09,54.9H889.24S874.33,633.22,858.86,632Z"/><path class="cls-5" d="M996.38,632c125.09-10.29,125.09,54.9,125.09,54.9H966.24S981,633.22,996.38,632Z"/><rect class="cls-6" x="835.3" y="755.21" width="183.23" height="487.52"/><rect class="cls-7" x="835.3" y="783.62" width="183.23" height="102.12"/><path class="cls-8" d="M926.71,1242.73H834.89V824.39s23.52,32.88,35.82,37c34.18,11.49,56,12.34,56,12.34Z"/><path class="cls-9" d="M1074.57,775.27S1008,775,926.09,774.14s-148-1.77-148-1.77,24.57-163.23,149.32-162.1C1057.4,611.45,1074.57,775.27,1074.57,775.27Z"/><circle class="cls-10" cx="927.33" cy="526.89" r="91.62"/><path class="cls-11" d="M883.38,532.83c20.69-4.5,74.21-6.15,86.67,0,15.64,7.73-6.69,52.74-43.75,52.74C891.81,585.57,866.2,536.58,883.38,532.83Z"/><path d="M900.77,516.39s0-9.8-10.77-9.8c-9.53,0-10.23,9.8-10.23,9.8Z"/><path d="M974.89,516.39s0-10.29-11.31-10.29c-10,0-10.75,10.29-10.75,10.29Z"/><path class="cls-12" d="M752.65,983.41c1.2,2.63,17.25-16.93,29.2-17.23,6.67-.16,17.84-.92,25.24-10.1,6.14-7.63,34.53-1.37,32.6-7.7-21.55-70.47-102-250-125.48-266.71s-119.2-10-119.2-10Z"/><path class="cls-12" d="M149.42,651.09c-2.54-1.05,16-18,16-29.84,0-6.63.59-17.75,9.28-25.55,7.21-6.49.74-34.32,6.85-32.73,67.95,17.74,241.51,88.21,257.9,110.69S451,791.36,451,791.36Z"/><path class="cls-13" d="M688.79,673.65,816.9,953.47c10.41-2.33,27.78.52,26.26-4.48-21.55-70.47-101.95-250-125.48-266.71C711.75,678.07,701.22,675.36,688.79,673.65Z"/><path class="cls-8" d="M446.76,701.72,162.65,583.44c2-10.48-1.49-27.75,3.56-26.4,71.17,19.08,253.43,93.17,270.92,116.11C441.54,678.93,444.62,689.36,446.76,701.72Z"/><path class="cls-14" d="M439.42,772.49c32.52-139.64-69.77-136.67-69.77-136.67L328,736S430.07,812.61,439.42,772.49Z"/><path class="cls-14" d="M637,661.85c102.22-20.79,113.58,76.6,113.58,76.6L679.68,770.9S607.6,667.83,637,661.85Z"/><rect class="cls-15" x="429.97" y="911.26" width="232.55" height="307.44"/><circle class="cls-15" cx="546.03" cy="803.53" r="175.62"/><circle class="cls-16" cx="546.25" cy="564.19" r="97.44"/><path class="cls-11" d="M518.7,580.91c12.71-4.28,46.13-4.67,54.62,0s-14.56,32.17-23.06,33.2S508.2,584.44,518.7,580.91Z"/><path d="M519.75,562.22s0-10.42-11.45-10.42c-10.14,0-10.88,10.42-10.88,10.42Z"/><path d="M598.58,562.22s0-11-12-11c-10.65,0-11.43,11-11.43,11Z"/><rect class="cls-14" x="432.6" y="936.67" width="227.29" height="73.14"/><polygon class="cls-8" points="429.97 1218.7 546.47 1217.81 546.47 911.26 429.97 912.16 429.97 1218.7"/><path class="cls-14" d="M388,878.43l313,6.12S667.78,970.39,546,977.39,381.9,858.29,388,878.43Z"/><path class="cls-17" d="M1874.54,807.46c-36.84-9.69-212-56.42-215.86-70-1.68-5.9,17.22-18.49,14-22.94-4.88-6.71-.38-21.27,8.28-28.2,4.16-3.34-3.42-20.59.79-23.77,9.15-6.89,80.94,17.68,140.57,39.9,8.26,49.38,16.78,93.59,16.78,93.59l19.52-2.71A40.57,40.57,0,0,0,1874.54,807.46Z"/><path class="cls-17" d="M1904.39,737.19l-2.78,8.67c-9.33-8.64-21.75-12.09-32.7-7.85-16.25,6.31-23.09,27.23-15.26,46.72a45.57,45.57,0,0,0,5,9.2l-19.52,2.6s-8.52-42.47-16.78-89.91C1866.74,722.53,1904.39,737.19,1904.39,737.19Z"/><path class="cls-17" d="M1913.84,765.54c-.38-1.21-.81-2.43-1.29-3.64a44.38,44.38,0,0,0-10.94-16l2.78-8.67s-37.65-14.66-82.06-30.57c-10-57.56-19.72-122.45-13.36-127.75,4.53-3.79,23.64,7.28,26.22,2.78,3.91-6.81,18.71-8.78,28.5-4.19,4.71,2.23,16.8-11.09,21.4-8.77C1899.07,575.76,1910.08,712.47,1913.84,765.54Z"/><path class="cls-17" d="M1915.24,786.36l-.28,0c.08-.38.15-.76.22-1.14C1915.22,786,1915.24,786.36,1915.24,786.36Z"/><path class="cls-17" d="M1901.61,745.86l-14.18,44.22-28.8,3.85a45.57,45.57,0,0,1-5-9.2c-7.83-19.49-1-40.41,15.26-46.72C1879.86,733.77,1892.28,737.22,1901.61,745.86Z"/><path class="cls-17" d="M1915.18,785.26c-.07.38-.14.76-.22,1.14l-27.53,3.68,14.18-44.22a44.38,44.38,0,0,1,10.94,16c.48,1.21.91,2.43,1.29,3.64C1914.56,775.61,1915,782.67,1915.18,785.26Z"/><path class="cls-17" d="M1887.43,790.08l-6.13,19.08s-2.43-.6-6.76-1.7a40.16,40.16,0,0,1-15.91-13.53Z"/><path class="cls-17" d="M1915,786.4c-2.14,10.19-8.36,18.6-17.67,22.21-7.39,2.86-15.43,2.23-22.75-1.15,4.33,1.1,6.76,1.7,6.76,1.7l6.13-19.08Z"/><path class="cls-17" d="M1915.18,785.26c-.17-2.59-.62-9.65-1.34-19.72A42,42,0,0,1,1915.18,785.26Z"/><path class="cls-17" d="M1286.36,1044.23c1.92,5.76,20.75-6.42,22.84-.75,4.33,11.79,17.22,17,25.09,9.57,5.2-4.93,12.18,21,18.39,18.13,15.86-7.34,131.14-322.67,131.14-322.67l-66.32-27S1279.1,1022.48,1286.36,1044.23Z"/><rect class="cls-18" x="1504.53" y="811.3" width="221.23" height="412.64" transform="translate(-180.68 370.11) rotate(-12.39)"/><path class="cls-9" d="M1742.07,1079.84s-24.91-51-121.46-29.83-95.11,77.39-95.11,77.39l-51.08-232.59L1692,851.62Z"/><path class="cls-18" d="M1285.24,1034.79c1.9,5.81,20.8-6.54,22.87-.82,4.3,11.87,17.2,17.11,25.09,9.56,5.23-5,12.14,21.14,18.36,18.22C1367.47,1054.3,1484,735.92,1484,735.92L1417.67,709S1278,1012.89,1285.24,1034.79Z"/><path class="cls-18" d="M1872.94,801.82c-34-8.84-195.57-51.43-199.14-63.76-1.55-5.38,15.89-16.86,12.92-20.91-4.49-6.12-.35-19.39,7.64-25.71,3.85-3-3.15-18.76.74-21.66,8.43-6.28,74.67,16.11,129.67,36.37,7.63,45,15.49,85.3,15.49,85.3l18-2.47A37.41,37.41,0,0,0,1872.94,801.82Z"/><path class="cls-19" d="M1462.25,704.48c-189.37-83.08-120.31,161.9-120.31,161.9l184.53-40.52S1482.21,713.23,1462.25,704.48Z"/><path class="cls-19" d="M1622.84,721.75c-1.73-240,192.48-39.06,192.48-39.06L1699.46,829.46S1623,743.78,1622.84,721.75Z"/><ellipse class="cls-20" cx="1564.42" cy="785.46" rx="213.28" ry="131.75" transform="translate(-132.06 353.82) rotate(-12.39)"/><path class="cls-8" d="M1659.16,1219.19,1550.87,1243l-71.12-323.89s33.64,2.79,48.9,2.5a368.68,368.68,0,0,0,63.55-7.33Z"/><circle class="cls-21" cx="1515.98" cy="568.32" r="110.62"/><path class="cls-11" d="M1469.81,602.61c23.71,10.09,91.52-6.84,104.29-23.42s1,32.36-42.7,42C1490.73,630.08,1450.27,594.29,1469.81,602.61Z"/><path d="M1483.64,570.56s-2.54-11.56-15.24-8.77c-11.24,2.47-9.53,14.2-9.53,14.2Z"/><path d="M1571,551.36s-2.66-12.14-16-9.21c-11.81,2.59-10,14.92-10,14.92Z"/><path class="cls-18" d="M1900.48,735.15l-2.56,8.23c-8.61-8.2-20.07-11.47-30.17-7.45-15,6-21.3,25.83-14.08,44.32a43.84,43.84,0,0,0,4.6,8.73l-18,2.47s-7.86-40.29-15.49-85.3C1865.74,721.24,1900.48,735.15,1900.48,735.15Z"/><path class="cls-18" d="M1909.2,762.05c-.35-1.15-.75-2.31-1.19-3.46a42.07,42.07,0,0,0-10.09-15.21l2.56-8.23s-34.74-13.91-75.71-29c-9.26-54.61-18.18-116.17-12.32-121.2,4.18-3.59,21.81,6.91,24.2,2.64,3.6-6.46,17.25-8.33,26.28-4,4.35,2.11,15.51-10.52,19.74-8.32C1895.57,582,1905.73,711.7,1909.2,762.05Z"/><path class="cls-18" d="M1910.49,781.8l-.25,0c.07-.36.14-.72.19-1.08C1910.47,781.44,1910.49,781.8,1910.49,781.8Z"/><path class="cls-18" d="M1897.92,743.38l-13.09,42L1858.27,789a43.84,43.84,0,0,1-4.6-8.73c-7.22-18.49-.92-38.33,14.08-44.32C1877.85,731.91,1889.31,735.18,1897.92,743.38Z"/><path class="cls-18" d="M1910.43,780.76c0,.36-.12.72-.19,1.08l-25.41,3.49,13.09-42A42.07,42.07,0,0,1,1908,758.59c.44,1.15.84,2.31,1.19,3.46C1909.86,771.6,1910.28,778.3,1910.43,780.76Z"/><path class="cls-18" d="M1884.83,785.33l-5.65,18.1-6.24-1.61A37.41,37.41,0,0,1,1858.27,789Z"/><path class="cls-18" d="M1910.24,781.84c-2,9.66-7.72,17.64-16.31,21.07-6.81,2.71-14.24,2.11-21-1.09l6.24,1.61,5.65-18.1Z"/><path class="cls-18" d="M1910.43,780.76c-.15-2.46-.57-9.16-1.23-18.71A40.8,40.8,0,0,1,1910.43,780.76Z"/><path class="cls-22" d="M525.56,815.26c1.66-.51-11.66-21-12.32-32.71-.36-6.52-1.3-17.58-7.54-27.07-5.19-7.88-2.24-33.92-6.28-33.62-44.84,3.32-158.11,36.56-168,55.27s-1.78,113.42-1.78,113.42Z"/><path class="cls-22" d="M68.67,903.77c-.4,1.64-21.69-10.28-33.38-10.34-6.53,0-17.6-.38-27.46-6-8.18-4.65-33.94-.48-33.9-4.42C-25.65,839.24.2,727.4,18.2,716.85s112.9-7.4,112.9-7.4Z"/><path class="cls-23" d="M116.29,706.26C-52.06,689.91-26.86,795.53-26.86,795.53L97.81,826.29S164.66,711,116.29,706.26Z"/><path class="cls-23" d="M261,764.67C368.39,646.32,423,738.7,423,738.7L356.27,839.84S230.07,798.67,261,764.67Z"/><rect class="cls-24" x="39.64" y="852" width="240.58" height="318.05" transform="translate(246.91 -8.87) rotate(13.86)"/><circle class="cls-25" cx="196.82" cy="852.29" r="159.48"/><circle class="cls-22" cx="249.37" cy="629.67" r="100.81"/><path class="cls-11" d="M220.86,628.93l62,14.84s-6.58,48.66-37.76,44.81C207.29,683.92,220.86,628.93,220.86,628.93Z"/><path d="M223.25,621.12s2.59-10.46-8.92-13.3c-10.18-2.52-13.51,7.77-13.51,7.77Z"/><path d="M302.43,640.67s2.71-11-9.37-14c-10.7-2.64-14.2,8.16-14.2,8.16Z"/><rect class="cls-23" x="42.73" y="950.69" width="240.58" height="95.6" transform="translate(244 -9.97) rotate(13.86)"/><path class="cls-8" d="M4.93,1137l117.15,28.27,36.27-148.83s-12.62-13.16-53.84-31.43c-18.09-8-46.83-61.76-46.83-61.76Z"/><path class="cls-26" d="M1515.7,860.86c1.52-.93-17.93-19.5-22-31.73-2.29-6.82-6.48-18.31-15.57-26.88-7.55-7.12-12.24-35.4-16.22-34.13-44.21,14.1-148.57,76-153,98.16s31.59,120.52,31.59,120.52Z"/><path class="cls-26" d="M1081.82,1064.73c0,1.69-23.56-4.57-34.9-1.72-6.33,1.59-17.14,4-28.08,1-9.09-2.47-33,8-33.94,4.15-10.47-42.52-13.23-157.27,1.59-172S1094,861,1094,861Z"/><path class="cls-27" d="M1507.88,858.33c1.48-.91-16.51-17.46-20.06-28.62-2-6.23-5.62-16.7-14-24.34-7-6.35-10.6-32.31-14.44-31-42.61,14.37-144.06,74.71-149,95.29S1336.82,980,1336.82,980Z"/><path class="cls-27" d="M1087.32,1057.61c0,1.68-23.57-4.58-34.91-1.73-6.32,1.59-17.14,4-28.08,1-9.08-2.47-33,8-33.94,4.14-10.47-42.52-13.22-157.27,1.59-172s107.51-35.22,107.51-35.22Z"/><path class="cls-28" d="M1084.36,854.45c-167.13,26-116.47,122-116.47,122l128.4-1.17S1132.38,847,1084.36,854.45Z"/><path class="cls-28" d="M1239,875.08c74.66-141.33,150.55-65.43,150.55-65.43L1350,924.2S1217.54,915.69,1239,875.08Z"/><rect class="cls-27" x="1082.07" y="979.79" width="240.58" height="318.05" transform="translate(-10.39 11.07) rotate(-0.53)"/><circle class="cls-28" cx="1198.65" cy="975.89" r="159.48"/><circle class="cls-29" cx="1194.24" cy="747.2" r="100.81"/><path class="cls-11" d="M1166.43,753.57l63.76-1s5.72,48.77-25.44,52.79C1167,810.2,1166.43,753.57,1166.43,753.57Z"/><path d="M1166.81,745.41s-.1-10.78-12-10.67c-10.48.09-11.15,10.88-11.15,10.88Z"/><path d="M1248.36,744.66s-.1-11.32-12.55-11.21c-11,.1-11.72,11.43-11.72,11.43Z"/><rect class="cls-28" x="1081.95" y="1078.1" width="240.58" height="95.6" transform="translate(-10.27 11.07) rotate(-0.53)"/><path class="cls-8" d="M1083.54,1299.39l120.5-1.73-1.85-153.18s-15.5-9.61-60-17.07c-19.51-3.27-60.7-48.18-60.7-48.18Z"/><rect class="cls-30" x="1801.86" y="410.53" width="18.22" height="232.32" transform="translate(-74.65 488.76) rotate(-15.06)"/><rect class="cls-31" x="1615.79" y="308.42" width="303" height="171" rx="10.61" transform="translate(-41.65 472.85) rotate(-15.06)"/><rect class="cls-32" x="1601.54" y="331.05" width="300.57" height="4" transform="translate(-26.36 466.73) rotate(-15.06)"/><rect class="cls-32" x="1597.33" y="315.53" width="300.57" height="4" transform="translate(-22.47 465.11) rotate(-15.06)"/><rect class="cls-32" x="1607.33" y="355.53" width="300.57" height="4" transform="translate(-32.52 469.08) rotate(-15.06)"/><rect class="cls-32" x="1617.33" y="391.53" width="300.57" height="4" transform="translate(-41.54 472.92) rotate(-15.06)"/><rect class="cls-32" x="1610.33" y="365.53" width="300.57" height="4" transform="translate(-35.02 470.2) rotate(-15.06)"/><rect class="cls-32" x="1625.02" y="421.05" width="300.57" height="4" transform="translate(-48.94 475.93) rotate(-15.06)"/><rect class="cls-32" x="1627.02" y="430.05" width="300.57" height="4" transform="translate(-51.21 476.76) rotate(-15.06)"/><rect class="cls-32" x="1632.02" y="446.05" width="300.57" height="4" transform="translate(-55.2 478.61) rotate(-15.06)"/><rect class="cls-32" x="1638.02" y="466.05" width="300.57" height="4" transform="translate(-60.19 480.85) rotate(-15.06)"/><path class="cls-33" d="M1624,376.41a54.09,54.09,0,0,1,8.69-3.12c4.58-1.25,8.22-1.1,10.87.23a10,10,0,0,1,5.19,6.64,11,11,0,0,1-.68,8.42c-1.73,3.28-5.36,5.69-9.88,6.93a16.63,16.63,0,0,1-3.81.7l3.92,14.36-4.63,1.26Zm9.35,16a15.72,15.72,0,0,0,3.93-.68c5.59-1.52,8.25-5.16,6.9-10.11-1.3-4.73-5.27-6.11-10.38-4.71a20.13,20.13,0,0,0-4.26,1.56Z"/><path class="cls-33" d="M1656.17,386.67c-.83-3-1.6-5.63-2.41-8l4.1-1.12,1.54,5,.21-.06c.22-3.77,2.45-6.72,5.59-7.58a5.08,5.08,0,0,1,1.37-.21l1.21,4.42a6.78,6.78,0,0,0-1.64.28c-3.3.9-5,4-4.64,7.72a14.78,14.78,0,0,0,.38,2.24l3.75,13.73-4.63,1.26Z"/><path class="cls-33" d="M1674.82,365.16a3,3,0,0,1-5.8,1.59,3,3,0,0,1,2.13-3.73A2.89,2.89,0,0,1,1674.82,365.16Zm3.79,34.41-7-25.75,4.68-1.28,7,25.75Z"/><path class="cls-33" d="M1685.84,369.93l9,13.09a68.74,68.74,0,0,1,3.88,6l.16,0c0-2.29.17-4.62.38-7.2l1-15.83,4.89-1.34-3.07,28.51-4.47,1.22-16.82-23.07Z"/><path class="cls-33" d="M1730.69,385.35l-1.25-3.15-.16.05a10,10,0,0,1-6.83,6c-5.21,1.42-8.88-1.52-9.89-5.25-1.7-6.22,2.9-11.14,12.86-13.8l-.14-.53c-.58-2.13-2.22-5.8-7.48-4.36a13.27,13.27,0,0,0-6.18,3.74l-1.91-2.79a16.64,16.64,0,0,1,7.83-4.6c7.88-2.15,11.26,2.7,12.67,7.86l2.63,9.63a37.23,37.23,0,0,0,2.11,6.05Zm-4.28-13c-5.13,1.28-10.68,3.77-9.32,8.77a4.3,4.3,0,0,0,5.64,3.27,6.66,6.66,0,0,0,5-6,5.31,5.31,0,0,0-.15-1.56Z"/><path class="cls-33" d="M1738.45,347.61l2,7.4,6.71-1.83,1,3.56-6.7,1.83,3.79,13.89c.87,3.19,2.27,4.75,4.88,4a11,11,0,0,0,2.62-1.06l1.17,3.45a11.72,11.72,0,0,1-4,1.77,6.67,6.67,0,0,1-5.59-.59c-1.71-1-2.81-3.17-3.64-6.2l-3.84-14.05-4,1.09-1-3.56,4-1.09-1.69-6.17Z"/><path class="cls-33" d="M1768.73,368.9a17,17,0,0,0,8.94.07c4.74-1.29,6.82-4.55,5.83-8.16-.91-3.36-3.35-4.75-8.7-5.29-6.42-.47-10.86-2.52-12.25-7.57-1.52-5.59,2-11,8.94-12.9a16.8,16.8,0,0,1,8.41-.41l-.25,4.12a14.73,14.73,0,0,0-7.27.16c-4.89,1.34-6,4.77-5.29,7.22.92,3.35,3.55,4.4,9,5,6.7.68,10.59,2.76,12,8,1.52,5.53-1.27,11.44-9.73,13.75-3.46.94-7.51,1-9.78.21Z"/><path class="cls-33" d="M1791.85,348.46c-.73-2.66-1.37-4.82-2.11-6.91l4.14-1.13,1.43,4.18.11,0a9.81,9.81,0,0,1,7.19-7.16c3.56-1,9.68-.36,12.09,8.47l4.2,15.38-4.68,1.28-4.06-14.85c-1.13-4.15-3.62-7.18-8-6a6.89,6.89,0,0,0-5,6.5,6.69,6.69,0,0,0,.27,2.27l4.23,15.48-4.68,1.28Z"/><path class="cls-33" d="M1840.76,355.29l-1.26-3.15-.16.05a10,10,0,0,1-6.82,6c-5.22,1.42-8.88-1.52-9.9-5.25-1.7-6.22,2.91-11.14,12.87-13.8l-.15-.53c-.58-2.13-2.21-5.8-7.47-4.36a13.3,13.3,0,0,0-6.19,3.74l-1.9-2.79a16.56,16.56,0,0,1,7.83-4.6c7.88-2.15,11.26,2.7,12.67,7.86l2.63,9.63a37.23,37.23,0,0,0,2.11,6.05Zm-4.28-13c-5.13,1.29-10.69,3.78-9.32,8.78a4.3,4.3,0,0,0,5.64,3.27,6.65,6.65,0,0,0,5-6,5.08,5.08,0,0,0-.14-1.57Z"/><path class="cls-33" d="M1853,337l.1,0c.4-1.08,1-2.45,1.49-3.56l5.13-10.94,5.64-1.54-7.06,13.3,15.47,12.07-5.69,1.55-12.25-9.91-1.67,3.31,2.64,9.68-4.62,1.27-10.32-37.77,4.63-1.27Z"/><rect class="cls-33" x="1806.71" y="409.74" width="74.32" height="8.82" rx="4.41" transform="matrix(0.97, -0.25, 0.25, 0.97, -44.66, 483.7)"/><rect class="cls-33" x="1839.82" y="392.34" width="42.33" height="8.82" rx="4.41" transform="translate(452.87 -883.05) rotate(30.23)"/><rect class="cls-33" x="1845.96" y="416.5" width="42.33" height="8.82" rx="3.98" transform="translate(3170.88 -980.35) rotate(120.23)"/><rect class="cls-34" x="7.5" y="-17.5" width="1914" height="1093"/><rect class="cls-35" x="567.89" y="148.5" width="838.51" height="220" rx="11.58"/><rect class="cls-36" x="585.55" y="165.41" width="83.11" height="82.98" rx="8.86"/><rect class="cls-36" x="687.31" y="165.41" width="83.11" height="82.98" rx="11.58"/><rect class="cls-36" x="786.41" y="165.41" width="83.11" height="82.98" rx="11.58"/><rect class="cls-36" x="884.75" y="165.41" width="83.11" height="82.98" rx="11.58"/><rect class="cls-36" x="1006.69" y="165.87" width="83.11" height="82.98" rx="11.58"/><rect class="cls-36" x="1104.41" y="165.87" width="83.11" height="82.98" rx="11.58"/><rect class="cls-36" x="1205.67" y="165.87" width="83.11" height="82.98" rx="11.58"/><rect class="cls-36" x="1307.42" y="165.87" width="83.11" height="82.98" rx="11.58"/><rect class="cls-37" x="581.69" y="161.55" width="83.11" height="82.98" rx="8.86"/><rect class="cls-37" x="683.45" y="161.55" width="83.11" height="82.98" rx="11.58"/><rect class="cls-37" x="782.54" y="161.55" width="83.11" height="82.98" rx="11.58"/><rect class="cls-37" x="880.89" y="161.55" width="83.11" height="82.98" rx="11.58"/><rect class="cls-37" x="1002.83" y="162.01" width="83.11" height="82.98" rx="11.58"/><rect class="cls-37" x="1100.55" y="162.01" width="83.11" height="82.98" rx="11.58"/><rect class="cls-37" x="1201.82" y="162.01" width="83.11" height="82.98" rx="11.58"/><rect class="cls-37" x="1303.55" y="162.01" width="83.11" height="82.98" rx="11.58"/><path d="M640.48,221.83a42.36,42.36,0,0,1-14,2.5c-6.9,0-12.55-1.75-17.05-6-3.91-3.81-6.36-9.89-6.36-17,.07-13.59,9.41-23.52,24.69-23.52a28.24,28.24,0,0,1,11.37,2.1l-1.43,4.82a23.74,23.74,0,0,0-10.08-1.93c-11.09,0-18.33,6.89-18.33,18.34s7,18.33,17.59,18.33c3.86,0,6.5-.54,7.85-1.22V204.65h-9.27v-4.73h15Z"/><path d="M715.86,208.55l-4.74,14.32H705l15.49-45.54h7.1l15.56,45.54h-6.29L732,208.55ZM730.8,204l-4.46-13.11c-1-3-1.69-5.67-2.37-8.31h-.13c-.68,2.7-1.43,5.47-2.31,8.24L717.07,204Z"/><path d="M842.23,202.87c-.34-6.35-.74-14-.67-19.66h-.21c-1.55,5.33-3.44,11-5.79,17.3l-8,22.09h-4.46l-7.38-21.69c-2.16-6.41-4-12.3-5.27-17.7h-.14c-.13,5.67-.47,13.31-.87,20.14l-1.23,19.52h-5.61l3.18-45.54h7.51l7.77,22c1.93,5.61,3.46,10.61,4.6,15.33h.21c1.15-4.59,2.77-9.59,4.82-15.33l8.12-22h7.5l2.84,45.54h-5.79Z"/><path d="M933.64,201.57H915.83V218h19.84v4.93H909.92V177.33h24.73v4.94H915.83v14.39h17.81Z"/><path d="M1066.82,200.08c0,15.67-9.54,24-21.22,24-12,0-20.5-9.33-20.5-23.11,0-14.47,9-23.91,21.18-23.91C1058.77,177.05,1066.82,186.58,1066.82,200.08Zm-35.38.75c0,9.72,5.28,18.44,14.54,18.44s14.62-8.58,14.62-18.92c0-9-4.74-18.5-14.55-18.5s-14.61,9-14.61,19Z"/><path d="M1137.64,224.28l-14.93-45.52h6.36l7.15,22.42c1.93,6.15,3.66,11.69,4.83,17h.13c1.28-5.27,3.18-11,5.21-17l7.72-22.49h6.29l-16.27,45.52Z"/><path d="M1255.3,202h-17.76v16.4h19.75v4.93h-25.54V177.79h24.61v4.94h-18.82v14.38h17.72Z"/><path d="M1333.48,178.41a61,61,0,0,1,11.29-1c6.29,0,10.35,1.15,13.19,3.71a11.32,11.32,0,0,1,3.59,8.69c0,6-3.8,10-8.59,11.58v.2c3.51,1.21,5.61,4.46,6.7,9.18,1.48,6.35,2.56,10.74,3.51,12.55h-6.09c-.74-1.29-1.76-5.2-3-10.88-1.35-6.28-3.79-8.68-9.14-8.84h-5.54v19.68h-5.88Zm5.88,20.74h6c6.29,0,10.28-3.45,10.28-8.69,0-5.87-4.26-8.44-10.49-8.51a24.5,24.5,0,0,0-5.79.54Z"/><rect class="cls-36" x="949.47" y="276.29" width="81.72" height="81.6" rx="11.39"/><rect class="cls-37" x="942.6" y="269.1" width="84.23" height="84.23" rx="9.18"/><path d="M997.79,337a27.66,27.66,0,0,0-22.43-50.27l-.07,0-1.4-4.2a1.44,1.44,0,0,0-2.44-.5l-5,5.7-5.22,5.89a1.29,1.29,0,0,0,.71,2.11l7.71,1.57,7.12,1.45a1.63,1.63,0,0,0,1.87-2.12l-1.18-3.52a21,21,0,0,1,26.68,13.82c3.14,10.27-2.77,22.07-12.82,25.86-12.09,4.55-21.43-6.68-28.62-14.6A3,3,0,0,0,958,322c8.16,11.28,20.38,22,34.75,17.23a27.8,27.8,0,0,0,5.06-2.25"/></g></g></svg>
