<svg xmlns="http://www.w3.org/2000/svg" xmlns:xlink="http://www.w3.org/1999/xlink" viewBox="0 0 1920 1080"><defs><style>.cls-1{fill:none;}.cls-2{clip-path:url(#clip-path);}.cls-3{fill:#aace7c;}.cls-10,.cls-4,.cls-6{fill:#00f9ff;}.cls-10,.cls-4{stroke:#29abe2;}.cls-10,.cls-15,.cls-16,.cls-21,.cls-22,.cls-29,.cls-31,.cls-32,.cls-4{stroke-miterlimit:10;}.cls-21,.cls-22,.cls-32,.cls-4{stroke-width:3px;}.cls-5{fill:#0e9b91;}.cls-7{fill:#2adbce;}.cls-30,.cls-8{opacity:0.1;}.cls-9{fill:#13bcb3;}.cls-10,.cls-16,.cls-29{stroke-width:4px;}.cls-11,.cls-13{fill:#fff;}.cls-12{fill:#50b1f9;}.cls-13{opacity:0.2;}.cls-14{fill:#1682d3;}.cls-15{fill:#1f95ff;stroke:#48c2ff;stroke-width:10px;}.cls-16{fill:#29abe2;stroke:#7fcdee;}.cls-17{fill:#39b54a;}.cls-18,.cls-21{fill:#15ffbc;}.cls-19{fill:#19ba5d;}.cls-20{fill:#219b52;}.cls-21{stroke:#39b54a;}.cls-22,.cls-24{fill:#c899f2;}.cls-22{stroke:#662d91;}.cls-23{fill:#973ee5;}.cls-25{fill:#ad39ff;}.cls-26{fill:#b2446d;}.cls-27,.cls-29{fill:#ff7bac;}.cls-28{fill:#ed1e79;}.cls-29{stroke:#b2446d;}.cls-30{fill:#4d4d4d;}.cls-31,.cls-32{fill:#a67c52;stroke:#8c6239;}.cls-31{stroke-width:2px;}.cls-33{fill:#8c6239;opacity:0.8;}.cls-34{fill:#f4f0eb;}.cls-35{fill:#e0b3a0;}.cls-36{opacity:0.3;isolation:isolate;}.cls-37{fill:#f4eee9;}</style><clipPath id="clip-path"><rect class="cls-1" x="-2" y="-5" width="1920" height="1080"/></clipPath></defs><title>levelcomplete</title><g id="Layer_37" data-name="Layer 37"><g class="cls-2"><rect class="cls-3" x="-2" y="-5" width="1920" height="1080"/><path class="cls-4" d="M652.82,923c1.14,4.49,17-1.24,18.23,3.2,2.64,9.25,12.54,15.16,19.31,11,4.48-2.72,8.25,17.2,13.38,16.14,13.13-2.72,126.58-212.17,126.58-212.17L779.4,710.83S648.54,906.07,652.82,923Z"/><path class="cls-4" d="M1314.86,836.84c4.42-2.26-7.41-16.22-3.08-18.6,9-5,11.81-16.14,5-21.68-4.53-3.67,15.55-12.49,12.57-17.22-7.63-12.11-273.6-68.73-273.6-68.73l-14.44,57.51S1298.17,845.39,1314.86,836.84Z"/><path class="cls-5" d="M864.07,684.54C738,674.24,738,739.44,738,739.44H894.45S879.54,685.8,864.07,684.54Z"/><path class="cls-5" d="M1001.59,684.54c125.09-10.3,125.09,54.9,125.09,54.9H971.45S986.24,685.8,1001.59,684.54Z"/><rect class="cls-6" x="840.51" y="807.79" width="183.23" height="487.52"/><rect class="cls-7" x="840.51" y="836.2" width="183.23" height="102.12"/><path class="cls-8" d="M931.92,1295.31H840.1V877s23.52,32.89,35.82,37c34.18,11.49,56,12.34,56,12.34Z"/><path class="cls-9" d="M1079.78,827.85s-66.63-.33-148.49-1.13S783.34,825,783.34,825s24.57-163.23,149.33-162.1C1062.6,664,1079.78,827.85,1079.78,827.85Z"/><circle class="cls-10" cx="932.54" cy="579.47" r="91.62"/><path class="cls-11" d="M888.59,585.41c20.68-4.5,74.21-6.15,86.67,0,15.64,7.73-6.69,52.73-43.75,52.73C897,638.14,871.4,589.15,888.59,585.41Z"/><path d="M906,569s0-9.8-10.77-9.8c-9.53,0-10.23,9.8-10.23,9.8Z"/><path d="M980.09,569s0-10.3-11.31-10.3c-10,0-10.74,10.3-10.74,10.3Z"/><path class="cls-12" d="M757.86,1036c1.2,2.62,17.25-16.93,29.2-17.23,6.67-.16,17.84-.92,25.23-10.11,6.14-7.62,34.54-1.36,32.6-7.7-21.55-70.46-101.94-250-125.47-266.71s-119.2-10-119.2-10Z"/><path class="cls-12" d="M154.62,703.67c-2.54-1,16-18,16-29.85.05-6.62.6-17.74,9.29-25.54,7.21-6.49.73-34.33,6.85-32.73,67.94,17.74,241.51,88.21,257.89,110.69s11.53,117.7,11.53,117.7Z"/><path class="cls-13" d="M694,726.23l128.11,279.82c10.4-2.33,27.78.52,26.25-4.48-21.55-70.47-101.94-250-125.48-266.71C717,730.65,706.43,727.94,694,726.23Z"/><path class="cls-8" d="M452,754.3,167.85,636c2-10.49-1.49-27.75,3.57-26.4,71.17,19.08,253.43,93.17,270.92,116.11C446.74,731.51,449.83,741.94,452,754.3Z"/><path class="cls-14" d="M444.63,825.07c32.51-139.64-69.77-136.67-69.77-136.67l-41.7,100.17S435.28,865.19,444.63,825.07Z"/><path class="cls-14" d="M642.18,714.43C744.41,693.64,755.77,791,755.77,791l-70.88,32.45S612.81,720.4,642.18,714.43Z"/><rect class="cls-15" x="435.18" y="963.84" width="232.55" height="307.44"/><circle class="cls-15" cx="551.24" cy="856.11" r="175.62"/><circle class="cls-16" cx="551.46" cy="616.77" r="97.44"/><path class="cls-11" d="M523.91,633.49c12.7-4.28,46.12-4.67,54.62,0s-14.56,32.16-23.06,33.2S513.41,637,523.91,633.49Z"/><path d="M525,614.8s0-10.42-11.45-10.42c-10.14,0-10.89,10.42-10.89,10.42Z"/><path d="M603.79,614.8s0-10.95-12-10.95c-10.65,0-11.43,10.95-11.43,10.95Z"/><rect class="cls-14" x="437.81" y="989.24" width="227.29" height="73.14"/><polygon class="cls-8" points="435.18 1271.28 551.67 1270.39 551.67 963.84 435.18 964.74 435.18 1271.28"/><path class="cls-14" d="M393.19,931l313,6.12S673,1023,551.24,1030,387.11,910.87,393.19,931Z"/><path class="cls-17" d="M1879.74,860c-36.84-9.7-212-56.42-215.85-69.95-1.69-5.9,17.22-18.5,14-22.94-4.87-6.71-.37-21.27,8.29-28.21,4.16-3.33-3.43-20.58.79-23.76,9.14-6.89,80.94,17.68,140.56,39.9,8.27,49.38,16.79,93.59,16.79,93.59l19.52-2.71A40.62,40.62,0,0,0,1879.74,860Z"/><path class="cls-17" d="M1909.6,789.77l-2.78,8.67c-9.34-8.64-21.75-12.09-32.7-7.85-16.26,6.31-23.09,27.23-15.26,46.72a45.84,45.84,0,0,0,5,9.2l-19.52,2.6s-8.52-42.47-16.79-89.91C1871.94,775.1,1909.6,789.77,1909.6,789.77Z"/><path class="cls-17" d="M1919,818.12c-.37-1.21-.8-2.43-1.28-3.65a44.43,44.43,0,0,0-10.94-16l2.78-8.67s-37.66-14.67-82.07-30.57c-10-57.56-19.71-122.45-13.36-127.76,4.53-3.78,23.65,7.29,26.23,2.79,3.91-6.81,18.71-8.78,28.49-4.19,4.72,2.23,16.81-11.09,21.4-8.77C1904.28,628.33,1915.29,765.05,1919,818.12Z"/><path class="cls-17" d="M1906.82,798.44l-14.19,44.22-28.79,3.85a45.84,45.84,0,0,1-5-9.2c-7.83-19.49-1-40.41,15.26-46.72C1885.07,786.35,1897.48,789.8,1906.82,798.44Z"/><path class="cls-17" d="M1920.38,837.84c-.06.38-.14.76-.21,1.14l-27.54,3.68,14.19-44.22a44.43,44.43,0,0,1,10.94,16c.48,1.22.91,2.44,1.28,3.65C1919.76,828.19,1920.21,835.25,1920.38,837.84Z"/><path class="cls-17" d="M1892.63,842.66l-6.13,19.08-6.76-1.7a40.2,40.2,0,0,1-15.9-13.53Z"/><path class="cls-17" d="M1920.17,839c-2.15,10.18-8.36,18.6-17.68,22.21-7.38,2.86-15.43,2.23-22.75-1.15l6.76,1.7,6.13-19.08Z"/><path class="cls-17" d="M1920.38,837.84c-.17-2.59-.62-9.65-1.34-19.72A41.72,41.72,0,0,1,1920.38,837.84Z"/><path class="cls-17" d="M1291.56,1096.8c1.92,5.76,20.76-6.41,22.84-.74,4.34,11.79,17.23,17,25.09,9.57,5.2-4.93,12.19,21,18.39,18.13,15.87-7.34,131.15-322.67,131.15-322.67l-66.32-27S1284.3,1075.06,1291.56,1096.8Z"/><rect class="cls-18" x="1509.74" y="863.88" width="221.23" height="412.64" transform="translate(-191.83 372.45) rotate(-12.39)"/><path class="cls-9" d="M1747.27,1132.42s-24.9-51-121.45-29.83S1530.7,1180,1530.7,1180l-51.07-232.6,217.53-43.18Z"/><path class="cls-18" d="M1290.44,1087.37c1.91,5.81,20.81-6.54,22.88-.82,4.3,11.87,17.19,17.11,25.09,9.56,5.23-5,12.14,21.13,18.36,18.22,15.91-7.46,132.43-325.83,132.43-325.83l-66.32-27S1283.25,1065.47,1290.44,1087.37Z"/><path class="cls-18" d="M1878.15,854.4c-34-8.84-195.58-51.43-199.14-63.76-1.56-5.38,15.89-16.86,12.92-20.91-4.5-6.12-.35-19.39,7.64-25.71,3.84-3-3.16-18.76.73-21.66,8.44-6.28,74.67,16.11,129.68,36.37,7.63,45,15.49,85.3,15.49,85.3l18-2.47A37.34,37.34,0,0,0,1878.15,854.4Z"/><path class="cls-19" d="M1467.46,757.06C1278.09,674,1347.15,919,1347.15,919l184.52-40.52S1487.41,765.81,1467.46,757.06Z"/><path class="cls-19" d="M1628.05,774.33c-1.74-240,192.48-39.06,192.48-39.06L1704.67,882S1628.2,796.35,1628.05,774.33Z"/><ellipse class="cls-20" cx="1569.63" cy="838.03" rx="213.28" ry="131.75" transform="translate(-143.22 356.16) rotate(-12.39)"/><path class="cls-8" d="M1664.37,1271.77l-108.29,23.78L1485,971.66s33.64,2.78,48.9,2.5a368.47,368.47,0,0,0,63.54-7.33Z"/><circle class="cls-21" cx="1521.18" cy="620.89" r="110.62"/><path class="cls-11" d="M1475,655.18c23.72,10.1,91.52-6.83,104.3-23.41s1,32.36-42.71,42C1495.93,682.66,1455.48,646.87,1475,655.18Z"/><path d="M1488.84,623.13s-2.53-11.55-15.23-8.76c-11.24,2.46-9.53,14.2-9.53,14.2Z"/><path d="M1576.25,603.94s-2.67-12.14-16-9.21c-11.8,2.59-10,14.92-10,14.92Z"/><path class="cls-18" d="M1905.69,787.73l-2.56,8.23c-8.62-8.2-20.07-11.47-30.17-7.45-15,6-21.31,25.83-14.08,44.32a43.33,43.33,0,0,0,4.6,8.73l-18,2.47s-7.86-40.29-15.49-85.3C1871,773.82,1905.69,787.73,1905.69,787.73Z"/><path class="cls-18" d="M1914.4,814.63c-.34-1.15-.74-2.31-1.18-3.46A42.2,42.2,0,0,0,1903.13,796l2.56-8.23s-34.74-13.91-75.71-29c-9.27-54.61-18.19-116.17-12.32-121.2,4.17-3.59,21.81,6.91,24.19,2.64,3.61-6.46,17.26-8.33,26.29-4,4.34,2.11,15.5-10.52,19.74-8.32C1900.78,634.58,1910.94,764.28,1914.4,814.63Z"/><path class="cls-18" d="M1915.7,834.38l-.26,0c.07-.36.14-.72.2-1.08C1915.68,834,1915.7,834.38,1915.7,834.38Z"/><path class="cls-18" d="M1903.13,796,1890,837.91l-26.56,3.65a43.33,43.33,0,0,1-4.6-8.73c-7.23-18.49-.92-38.33,14.08-44.32C1883.06,784.49,1894.51,787.76,1903.13,796Z"/><path class="cls-18" d="M1915.64,833.34c-.06.36-.13.72-.2,1.08l-25.4,3.49L1903.13,796a42.2,42.2,0,0,1,10.09,15.21c.44,1.15.84,2.31,1.18,3.46C1915.07,824.18,1915.48,830.88,1915.64,833.34Z"/><path class="cls-18" d="M1890,837.91l-5.65,18.1-6.24-1.61a37.34,37.34,0,0,1-14.67-12.84Z"/><path class="cls-18" d="M1915.44,834.42c-2,9.66-7.71,17.64-16.3,21.07-6.81,2.71-14.24,2.11-21-1.09l6.24,1.61,5.65-18.1Z"/><path class="cls-18" d="M1915.64,833.34c-.16-2.46-.57-9.16-1.24-18.71A40.81,40.81,0,0,1,1915.64,833.34Z"/><path class="cls-22" d="M530.77,867.84c1.65-.51-11.66-21-12.32-32.71-.37-6.52-1.3-17.58-7.54-27.07-5.19-7.88-2.25-33.92-6.28-33.62-44.84,3.32-158.11,36.56-168,55.27s-1.78,113.42-1.78,113.42Z"/><path class="cls-22" d="M73.88,956.35C73.47,958,52.19,946.07,40.5,946c-6.53,0-17.6-.39-27.46-6-8.18-4.65-33.95-.48-33.91-4.42C-20.44,891.82,5.41,780,23.41,769.43S136.3,762,136.3,762Z"/><path class="cls-23" d="M121.49,758.84C-46.85,742.49-21.65,848.11-21.65,848.11L103,878.87S169.87,763.53,121.49,758.84Z"/><path class="cls-23" d="M266.15,817.24c107.45-118.34,162.1-26,162.1-26L361.48,892.41S235.28,851.25,266.15,817.24Z"/><rect class="cls-24" x="44.84" y="904.57" width="240.58" height="318.05" transform="translate(259.66 -8.58) rotate(13.86)"/><circle class="cls-25" cx="202.03" cy="904.86" r="159.48"/><circle class="cls-22" cx="254.58" cy="682.25" r="100.81"/><path class="cls-11" d="M226.06,681.51l62,14.84S281.5,745,250.32,741.16C212.49,736.5,226.06,681.51,226.06,681.51Z"/><path d="M228.46,673.7s2.58-10.47-8.92-13.31c-10.18-2.51-13.51,7.78-13.51,7.78Z"/><path d="M307.63,693.24s2.72-11-9.37-14c-10.69-2.64-14.19,8.17-14.19,8.17Z"/><rect class="cls-23" x="47.94" y="1003.27" width="240.58" height="95.6" transform="translate(256.75 -9.69) rotate(13.86)"/><path class="cls-8" d="M10.13,1189.61l117.16,28.27,36.26-148.83s-12.61-13.16-53.84-31.44c-18.09-8-46.82-61.76-46.82-61.76Z"/><path class="cls-26" d="M1520.9,913.44c1.52-.93-17.93-19.5-22-31.73-2.29-6.82-6.48-18.31-15.57-26.88-7.55-7.12-12.24-35.4-16.22-34.13-44.21,14.09-148.57,76-153,98.16s31.58,120.52,31.58,120.52Z"/><path class="cls-26" d="M1087,1117.31c0,1.69-23.56-4.57-34.9-1.72-6.33,1.59-17.15,4-28.08,1-9.09-2.47-33,8-33.95,4.15-10.46-42.52-13.22-157.27,1.6-172s107.51-35.22,107.51-35.22Z"/><path class="cls-27" d="M1513.09,910.91c1.47-.91-16.52-17.46-20.06-28.62-2-6.23-5.63-16.71-14-24.34-7-6.35-10.6-32.31-14.43-31-42.61,14.36-144.07,74.71-149,95.29S1342,1032.53,1342,1032.53Z"/><path class="cls-27" d="M1092.52,1110.19c0,1.68-23.56-4.58-34.9-1.73-6.33,1.59-17.14,4-28.08,1-9.09-2.48-33,8-33.94,4.14-10.47-42.52-13.23-157.27,1.59-172s107.51-35.22,107.51-35.22Z"/><path class="cls-28" d="M1089.57,907c-167.13,26-116.47,122-116.47,122l128.39-1.17S1137.59,899.56,1089.57,907Z"/><path class="cls-28" d="M1244.2,927.66c74.67-141.33,150.56-65.44,150.56-65.44l-39.54,114.56S1222.75,968.27,1244.2,927.66Z"/><rect class="cls-27" x="1087.28" y="1032.37" width="240.58" height="318.05" transform="translate(-10.87 11.12) rotate(-0.53)"/><circle class="cls-28" cx="1203.86" cy="1028.47" r="159.48"/><circle class="cls-29" cx="1199.45" cy="799.78" r="100.81"/><path class="cls-11" d="M1171.64,806.15l63.76-1s5.71,48.77-25.45,52.79C1172.16,862.78,1171.64,806.15,1171.64,806.15Z"/><path d="M1172,798s-.1-10.78-12-10.68c-10.49.1-11.16,10.89-11.16,10.89Z"/><path d="M1253.57,797.24s-.11-11.33-12.55-11.21c-11,.1-11.72,11.43-11.72,11.43Z"/><rect class="cls-30" x="1" y="-5" width="1914" height="1093"/><rect class="cls-31" x="1807.06" y="463.11" width="18.22" height="232.32" transform="translate(-88.14 491.92) rotate(-15.06)"/><rect class="cls-32" x="1621" y="361" width="303" height="171" rx="10.61" transform="translate(-55.13 476.01) rotate(-15.06)"/><rect class="cls-33" x="1606.75" y="383.63" width="300.57" height="4" transform="translate(-39.85 469.89) rotate(-15.06)"/><rect class="cls-33" x="1602.54" y="368.11" width="300.57" height="4" transform="translate(-35.96 468.27) rotate(-15.06)"/><rect class="cls-33" x="1612.54" y="408.11" width="300.57" height="4" transform="translate(-46.01 472.24) rotate(-15.06)"/><rect class="cls-33" x="1622.54" y="444.11" width="300.57" height="4" transform="translate(-55.02 476.08) rotate(-15.06)"/><rect class="cls-33" x="1615.54" y="418.11" width="300.57" height="4" transform="translate(-48.5 473.36) rotate(-15.06)"/><rect class="cls-33" x="1630.23" y="473.62" width="300.57" height="4" transform="translate(-62.43 479.09) rotate(-15.06)"/><rect class="cls-33" x="1632.23" y="482.62" width="300.57" height="4" transform="translate(-64.7 479.92) rotate(-15.06)"/><rect class="cls-33" x="1637.23" y="498.62" width="300.57" height="4" transform="translate(-68.69 481.77) rotate(-15.06)"/><rect class="cls-33" x="1643.23" y="518.62" width="300.57" height="4" transform="translate(-73.68 484.01) rotate(-15.06)"/><path class="cls-34" d="M1629.24,429a55.38,55.38,0,0,1,8.7-3.11c4.57-1.25,8.22-1.11,10.87.23a10,10,0,0,1,5.18,6.64,10.94,10.94,0,0,1-.67,8.42c-1.73,3.27-5.36,5.69-9.88,6.93a16.76,16.76,0,0,1-3.81.69l3.92,14.37-4.63,1.26Zm9.35,16a16.26,16.26,0,0,0,3.94-.68c5.58-1.52,8.25-5.16,6.89-10.11-1.29-4.74-5.26-6.11-10.37-4.71a20.13,20.13,0,0,0-4.26,1.56Z"/><path class="cls-34" d="M1661.37,439.24c-.83-3-1.59-5.62-2.4-8l4.09-1.12,1.54,5,.22-.06c.22-3.78,2.45-6.73,5.58-7.58a5.15,5.15,0,0,1,1.38-.21l1.2,4.42a7.34,7.34,0,0,0-1.64.27c-3.29.91-4.95,4-4.63,7.73a13.63,13.63,0,0,0,.38,2.24l3.75,13.72-4.63,1.27Z"/><path class="cls-34" d="M1680,417.74a3,3,0,0,1-5.8,1.59,3,3,0,0,1,2.12-3.73A2.88,2.88,0,0,1,1680,417.74Zm3.79,34.41-7-25.75,4.68-1.28,7,25.75Z"/><path class="cls-34" d="M1691.05,422.51l9,13.09a69.58,69.58,0,0,1,3.88,6l.16-.05c0-2.29.16-4.62.38-7.19l1-15.83,4.89-1.34-3.08,28.51-4.46,1.22L1686,423.87Z"/><path class="cls-34" d="M1735.9,437.92l-1.26-3.14-.16.05a9.91,9.91,0,0,1-6.82,6c-5.22,1.43-8.88-1.51-9.9-5.24-1.7-6.22,2.91-11.14,12.87-13.8l-.15-.53c-.58-2.13-2.21-5.8-7.48-4.36a13.32,13.32,0,0,0-6.18,3.74l-1.9-2.79a16.56,16.56,0,0,1,7.83-4.6c7.87-2.15,11.26,2.7,12.67,7.86l2.63,9.63a37.57,37.57,0,0,0,2.11,6.05ZM1731.62,425c-5.14,1.29-10.69,3.78-9.32,8.78a4.29,4.29,0,0,0,5.64,3.26,6.63,6.63,0,0,0,5-6,5,5,0,0,0-.14-1.56Z"/><path class="cls-34" d="M1743.66,400.19l2,7.4,6.7-1.83,1,3.56-6.71,1.83,3.8,13.88c.87,3.2,2.27,4.76,4.87,4.05A10.92,10.92,0,0,0,1758,428l1.17,3.45a11.79,11.79,0,0,1-4,1.77,6.71,6.71,0,0,1-5.59-.59c-1.7-1-2.81-3.17-3.64-6.21l-3.83-14-4,1.09-1-3.56,4-1.09-1.69-6.17Z"/><path class="cls-34" d="M1773.94,421.48a17,17,0,0,0,8.94.07c4.73-1.29,6.82-4.55,5.83-8.17-.92-3.35-3.35-4.74-8.7-5.28-6.42-.48-10.87-2.52-12.25-7.57-1.52-5.59,2-11,8.94-12.91a17,17,0,0,1,8.41-.41l-.25,4.13a14.73,14.73,0,0,0-7.27.16c-4.9,1.33-6,4.77-5.29,7.22.91,3.35,3.54,4.4,9,5,6.7.69,10.58,2.77,12,8,1.51,5.53-1.28,11.44-9.73,13.75-3.46.94-7.52,1-9.78.21Z"/><path class="cls-34" d="M1797.06,401c-.73-2.66-1.38-4.82-2.12-6.91l4.15-1.13,1.43,4.18.11,0a9.79,9.79,0,0,1,7.19-7.16c3.56-1,9.67-.36,12.09,8.47l4.19,15.37-4.68,1.28-4.05-14.84c-1.13-4.15-3.62-7.18-8-6a6.91,6.91,0,0,0-5,6.5,7,7,0,0,0,.28,2.27l4.23,15.48-4.68,1.28Z"/><path class="cls-34" d="M1846,407.86l-1.26-3.14-.16,0a9.92,9.92,0,0,1-6.83,6c-5.21,1.43-8.87-1.52-9.89-5.24-1.7-6.22,2.9-11.14,12.87-13.8l-.15-.54c-.58-2.12-2.21-5.79-7.48-4.36a13.42,13.42,0,0,0-6.18,3.75l-1.9-2.79a16.43,16.43,0,0,1,7.83-4.6c7.87-2.15,11.26,2.7,12.66,7.86l2.63,9.63a38.57,38.57,0,0,0,2.11,6.05Zm-4.28-12.95c-5.14,1.29-10.69,3.78-9.32,8.78A4.29,4.29,0,0,0,1838,407a6.64,6.64,0,0,0,5-6,5,5,0,0,0-.14-1.56Z"/><path class="cls-34" d="M1858.17,389.55l.11,0c.39-1.07,1-2.44,1.49-3.55L1864.9,375l5.64-1.54-7.06,13.3L1879,398.86l-5.69,1.55L1861,390.49l-1.66,3.32,2.64,9.68-4.63,1.26L1847,367l4.63-1.26Z"/><rect class="cls-34" x="1811.92" y="462.32" width="74.32" height="8.82" rx="4.41" transform="translate(-57.89 486.76) rotate(-14.77)"/><rect class="cls-34" x="1845.03" y="444.92" width="42.33" height="8.82" rx="4.41" transform="translate(480.05 -878.52) rotate(30.23)"/><rect class="cls-34" x="1851.16" y="469.08" width="42.33" height="8.82" rx="3.98" transform="translate(3224.14 -905.79) rotate(120.23)"/><rect class="cls-35" x="296.06" y="143.93" width="1314.07" height="221.07" rx="11.39"/><rect class="cls-36" x="313.43" y="160.57" width="81.72" height="81.6" rx="8.71"/><rect class="cls-36" x="413.49" y="160.57" width="81.72" height="81.6" rx="11.39"/><rect class="cls-36" x="510.94" y="160.57" width="81.72" height="81.6" rx="11.39"/><rect class="cls-36" x="607.64" y="160.57" width="81.72" height="81.6" rx="11.39"/><rect class="cls-36" x="704.76" y="162.91" width="81.72" height="81.6" rx="11.39"/><rect class="cls-36" x="823.62" y="161.01" width="81.72" height="81.6" rx="11.39"/><rect class="cls-36" x="923.19" y="161.01" width="81.72" height="81.6" rx="11.39"/><rect class="cls-36" x="1023.23" y="161.01" width="81.72" height="81.6" rx="11.39"/><rect class="cls-36" x="1118.24" y="162.91" width="81.72" height="81.6" rx="11.39"/><rect class="cls-37" x="309.63" y="156.77" width="81.72" height="81.6" rx="8.71"/><rect class="cls-37" x="409.69" y="156.77" width="81.72" height="81.6" rx="11.39"/><rect class="cls-37" x="507.13" y="156.77" width="81.72" height="81.6" rx="11.39"/><rect class="cls-37" x="603.83" y="156.77" width="81.72" height="81.6" rx="11.39"/><rect class="cls-37" x="700.97" y="159.11" width="81.72" height="81.6" rx="11.39"/><rect class="cls-37" x="819.82" y="157.22" width="81.72" height="81.6" rx="11.39"/><rect class="cls-37" x="919.4" y="157.22" width="81.72" height="81.6" rx="11.39"/><rect class="cls-37" x="1019.43" y="157.22" width="81.72" height="81.6" rx="11.39"/><path d="M338.07,174.19h5.78v39.92H363V219H338.07Z"/><path d="M462.26,199.86H444.83V216h19.43v4.85H439.05V176.09h24.21v4.85H444.83v14.14h17.43Z"/><path d="M543.58,222.75,529,178h6.26l7,22.05c1.9,6.05,3.59,11.49,4.74,16.74h.14c1.26-5.18,3.12-10.82,5.11-16.67L559.77,178H566l-16,44.77Z"/><path d="M654.75,198h-17.5V214.1h19.5v4.84H631.43V174.19h24.32V179h-18.5v14.14h17.5Z"/><path d="M729.37,175.59h5.79v39.92h19.17v4.85h-25Z"/><path d="M876.83,218c-2.14,1.06-6.39,2.12-11.85,2.12-12.63,0-22.14-8-22.14-22.64,0-14,9.49-23.53,23.41-23.53,5.58,0,9.11,1.2,10.64,2l-1.39,4.74a21.23,21.23,0,0,0-9-1.9c-10.51,0-17.49,6.72-17.49,18.48,0,11,6.32,18,17.22,18a23.29,23.29,0,0,0,9.49-1.89Z"/><path d="M982.34,197.51c0,15.41-9.37,23.58-20.82,23.58-11.84,0-20.15-9.17-20.15-22.72,0-14.23,8.85-23.52,20.82-23.52C974.45,174.85,982.34,184.23,982.34,197.51Zm-34.78.73c0,9.57,5.19,18.13,14.3,18.13s14.36-8.43,14.36-18.59c0-8.9-4.65-18.2-14.3-18.2s-14.36,8.83-14.36,18.66Z"/><path d="M1079,199.75c-.33-6.24-.73-13.75-.66-19.34h-.2c-1.53,5.26-3.39,10.84-5.7,17l-7.9,21.71h-4.38L1053,197.82c-2.14-6.31-3.93-12.08-5.19-17.41h-.13c-.14,5.59-.47,13.1-.87,19.8l-1.16,19.2h-5.51l3.12-44.77h7.39l7.64,21.66c1.9,5.51,3.4,10.43,4.53,15.07h.2c1.13-4.51,2.72-9.43,4.74-15.07l8-21.66h7.38l2.79,44.77h-5.64Z"/><rect class="cls-37" x="1114.45" y="159.11" width="81.72" height="81.6" rx="11.39"/><path d="M1144.17,175.94a66.55,66.55,0,0,1,11.1-.87c5.69,0,9.89,1.33,12.55,3.72a12.06,12.06,0,0,1,3.92,9.41c0,4.05-1.2,7.24-3.46,9.57-3,3.25-8,4.91-13.68,4.91a19.63,19.63,0,0,1-4.65-.4v17.9h-5.78Zm5.8,21.59a19,19,0,0,0,4.75.46c7,0,11.22-3.38,11.22-9.56,0-5.92-4.18-8.77-10.56-8.77a25.57,25.57,0,0,0-5.45.46Z"/><rect class="cls-36" x="1311.8" y="162.91" width="81.72" height="81.6" rx="11.39"/><rect class="cls-37" x="1308" y="159.11" width="81.72" height="81.6" rx="11.39"/><path d="M1361.85,200.14h-17.38v16.13h19.4v4.85h-25.18V176.35h24.18v4.85h-18.4v14.16h17.4Z"/><rect class="cls-36" x="1411.42" y="164.81" width="81.72" height="81.6" rx="11.39"/><rect class="cls-37" x="1407.62" y="161.01" width="81.72" height="81.6" rx="11.39"/><path d="M1446.8,183.17h-13.62v-4.92h33.15v4.92h-13.7V223h-5.84Z"/><rect class="cls-36" x="1511.04" y="164.81" width="81.72" height="81.6" rx="11.39"/><rect class="cls-37" x="1507.25" y="161.01" width="81.72" height="81.6" rx="11.39"/><path d="M1561.1,202h-17.38v16.13h19.39V223h-25.17V178.25h24.17v4.85h-18.39v14.15h17.4Z"/><rect class="cls-36" x="1213.12" y="162.91" width="81.72" height="81.6" rx="11.39"/><rect class="cls-37" x="1209.33" y="159.11" width="81.72" height="81.6" rx="11.39"/><path d="M1240,175.4h5.8v39.93h19.13v4.85H1240Z"/><rect class="cls-36" x="917.99" y="269.94" width="81.72" height="81.6" rx="11.39"/><rect class="cls-37" x="911.12" y="262.76" width="84.23" height="84.23" rx="9.18"/><path d="M966.31,330.64a27.67,27.67,0,0,0-22.43-50.28l-.07,0-1.4-4.2a1.44,1.44,0,0,0-2.44-.5l-5,5.69-5.21,5.9a1.27,1.27,0,0,0,.7,2.1l7.71,1.57,7.12,1.45a1.63,1.63,0,0,0,1.87-2.11l-1.18-3.53a21,21,0,0,1,26.68,13.82c3.14,10.27-2.77,22.08-12.82,25.86-12.09,4.55-21.43-6.67-28.62-14.59a3,3,0,0,0-4.68,3.81c8.17,11.28,20.38,22,34.75,17.23a27.8,27.8,0,0,0,5.06-2.25"/></g></g></svg>
