<?xml version="1.0" standalone="no"?>
<!DOCTYPE svg PUBLIC "-//W3C//DTD SVG 20010904//EN"
 "http://www.w3.org/TR/2001/REC-SVG-20010904/DTD/svg10.dtd">
<svg version="1.0" xmlns="http://www.w3.org/2000/svg"
 width="700.000000pt" height="700.000000pt" viewBox="0 0 700.000000 700.000000"
 preserveAspectRatio="xMidYMid meet">
<metadata>
Created by potrace 1.11, written by Peter Selinger 2001-2013
</metadata>
<g transform="translate(0.000000,700.000000) scale(0.100000,-0.100000)"
fill="#000000" stroke="none">
<path d="M3340 6724 c-702 -43 -1329 -282 -1865 -713 -502 -403 -878 -962
-1065 -1581 -149 -495 -175 -1052 -74 -1560 249 -1253 1219 -2244 2468 -2520
690 -152 1417 -73 2060 226 l60 27 -50 40 c-27 22 -95 86 -151 142 l-102 101
-35 -35 -35 -35 -23 29 c-64 79 -118 185 -118 233 -1 50 -19 40 -111 -62 -72
-81 -97 -102 -106 -93 -26 27 -83 147 -102 214 -11 40 -34 93 -52 119 -40 59
-68 147 -62 199 l5 40 -26 -30 c-14 -16 -49 -76 -78 -133 l-52 -102 -28 77
c-104 280 -65 520 114 709 l68 71 -34 136 c-19 74 -37 159 -41 189 -10 81 -8
80 -116 68 -52 -6 -533 -17 -1069 -24 -1091 -14 -1031 -17 -1180 57 -169 83
-306 270 -344 469 -6 33 -16 58 -23 58 -26 0 -128 182 -180 319 -64 172 -109
438 -100 601 19 332 141 605 372 836 116 116 172 148 330 190 95 26 116 28
435 35 184 4 353 12 375 17 130 31 182 49 285 100 63 31 121 56 127 56 7 -1
49 66 94 150 138 255 148 274 176 307 42 49 95 69 189 69 129 0 256 -37 448
-132 l99 -50 96 33 c80 27 115 33 211 36 200 8 312 -28 413 -132 78 -80 232
-271 298 -370 29 -44 113 -156 187 -248 167 -212 197 -258 239 -375 51 -143
67 -253 57 -392 -27 -379 4 -543 129 -672 93 -96 296 -230 495 -326 181 -87
696 -291 704 -278 9 15 45 237 59 366 17 155 15 518 -5 685 -110 923 -593
1737 -1346 2271 -441 312 -960 510 -1490 568 -143 16 -421 26 -530 20z"/>
<path d="M3198 5602 c-27 -11 -50 -48 -143 -222 -77 -146 -263 -477 -301 -537
l-14 -22 -45 25 c-25 14 -45 28 -45 31 0 2 18 36 41 75 22 38 39 71 37 73 -1
1 -36 -11 -76 -27 -177 -71 -299 -88 -627 -88 -273 0 -344 -8 -486 -55 -61
-21 -91 -39 -150 -89 -239 -206 -388 -535 -389 -856 0 -233 96 -583 203 -733
l20 -29 486 5 c367 4 517 9 611 21 284 37 386 64 570 152 177 85 406 245 370
258 -8 3 -27 10 -43 16 -15 5 -31 20 -36 32 -24 65 -24 65 19 82 57 23 161 21
209 -3 43 -22 107 -89 123 -129 11 -27 58 -274 53 -280 -1 -1 -33 38 -70 88
-37 50 -81 101 -98 114 l-30 24 -71 -59 c-134 -113 -318 -224 -483 -290 l-83
-33 0 -204 0 -205 -61 6 c-154 14 -287 137 -315 290 -7 39 -7 39 -48 33 -22
-3 -65 -8 -93 -11 l-53 -7 0 -135 0 -135 -52 7 c-29 4 -74 16 -101 27 -62 27
-140 112 -162 178 l-17 50 -274 0 c-315 0 -291 10 -253 -103 47 -140 144 -261
256 -320 133 -69 65 -66 1108 -51 517 7 983 15 1035 18 236 12 465 112 651
284 121 112 216 271 254 426 33 136 16 319 -42 448 -28 63 -28 63 29 97 l37
22 19 -38 c76 -149 104 -391 64 -550 -75 -296 -269 -530 -562 -678 -47 -23
-104 -48 -128 -55 -31 -10 -42 -18 -42 -33 0 -50 56 -286 100 -417 49 -151
134 -345 147 -338 173 86 239 99 519 99 l192 1 -14 45 c-29 97 -34 347 -9 491
l7 44 47 -7 c25 -4 49 -10 53 -14 4 -3 3 -36 -3 -71 -6 -36 -11 -126 -11 -200
0 -110 4 -149 22 -210 12 -41 24 -106 27 -144 l5 -69 -49 7 c-150 21 -282 26
-411 16 -154 -12 -208 -22 -261 -50 -106 -54 -211 -253 -155 -294 14 -10 13
-14 -5 -38 -15 -19 -21 -41 -21 -80 0 -52 24 -154 40 -171 4 -5 101 95 216
221 115 127 210 229 212 227 2 -2 -29 -78 -69 -170 -72 -167 -72 -167 -66
-239 6 -69 33 -159 47 -154 17 7 188 214 300 363 l82 110 253 5 c140 3 257 9
262 13 4 5 11 133 15 285 5 221 10 294 25 360 11 45 22 85 25 88 9 9 98 -18
98 -30 0 -6 -7 -43 -16 -81 -11 -50 -18 -151 -23 -350 -8 -319 -12 -339 -77
-370 -34 -17 -69 -20 -272 -23 l-233 -4 -75 -100 c-42 -55 -109 -139 -150
-188 -41 -49 -74 -93 -74 -98 0 -15 180 -191 257 -253 l75 -59 56 32 c218 123
444 291 653 486 l77 72 7 67 c16 159 77 378 149 536 l36 77 50 -25 50 -25 -29
-58 c-53 -105 -143 -393 -127 -409 7 -7 126 146 216 277 103 152 207 340 281
506 58 132 151 395 164 464 l6 35 -198 79 c-383 152 -558 230 -693 309 -256
151 -393 270 -454 399 -20 42 -44 110 -53 150 -18 83 -22 284 -9 450 10 125
-1 216 -43 341 -45 134 -43 129 -235 372 -65 82 -145 189 -177 236 -80 119
-210 281 -288 360 -90 90 -132 104 -306 104 -78 0 -147 -5 -174 -13 l-43 -13
148 -100 c82 -55 158 -108 168 -119 19 -18 18 -19 -13 -59 l-33 -41 -56 41
c-268 195 -549 348 -734 399 -71 20 -195 26 -230 12z m507 -841 c87 -21 152
-47 220 -87 l45 -26 -31 -44 c-30 -44 -43 -52 -54 -34 -14 23 -33 7 -44 -36
-16 -62 -71 -168 -118 -227 -101 -125 -279 -222 -431 -234 -159 -13 -275 54
-347 200 -20 40 -38 96 -42 125 l-6 52 -51 0 c-57 0 -139 33 -171 70 l-20 22
39 33 40 33 35 -24 c57 -38 104 -33 222 27 139 69 307 137 382 153 93 21 238
19 332 -3z m-2005 -250 c59 -42 80 -133 47 -198 -9 -16 -57 -60 -108 -98 -69
-52 -102 -85 -130 -130 -63 -100 -68 -105 -98 -105 -15 0 -34 6 -43 13 -57 45
-47 239 18 370 70 139 225 212 314 148z"/>
<path d="M3393 4657 c-23 -7 -45 -15 -49 -19 -8 -9 72 -47 99 -48 13 0 17 -8
17 -34 0 -29 -3 -33 -25 -33 -53 0 -83 -54 -60 -108 12 -31 18 -35 49 -35 l36
0 0 -65 0 -65 -55 0 c-133 0 -227 112 -229 271 l-1 56 -35 -15 c-19 -8 -56
-25 -82 -38 -47 -24 -48 -25 -48 -72 0 -63 22 -126 65 -184 44 -60 83 -80 167
-86 57 -4 80 0 143 23 135 49 231 125 298 238 32 53 76 181 66 192 -3 2 -31
11 -64 20 -69 18 -230 19 -292 2z"/>
<path d="M2533 3097 c-44 -8 -53 -13 -53 -31 1 -57 72 -160 133 -192 l27 -15
0 126 0 125 -27 -1 c-16 -1 -52 -6 -80 -12z"/>
<path d="M1982 2999 c13 -23 38 -53 56 -67 l32 -25 0 67 0 66 -56 0 -55 0 23
-41z"/>
<path d="M3971 1923 c-82 -96 -120 -205 -121 -342 l0 -64 64 61 c74 71 106 83
144 55 22 -16 28 -30 30 -67 l3 -48 34 71 34 70 -65 143 c-35 79 -64 149 -64
156 0 23 -18 12 -59 -35z"/>
</g>
</svg>
