<?xml version="1.0" standalone="no"?>
<!DOCTYPE svg PUBLIC "-//W3C//DTD SVG 20010904//EN"
 "http://www.w3.org/TR/2001/REC-SVG-20010904/DTD/svg10.dtd">
<svg version="1.0" xmlns="http://www.w3.org/2000/svg"
 width="700.000000pt" height="700.000000pt" viewBox="0 0 700.000000 700.000000"
 preserveAspectRatio="xMidYMid meet">
<metadata>
Created by potrace 1.11, written by Peter Selinger 2001-2013
</metadata>
<g transform="translate(0.000000,700.000000) scale(0.100000,-0.100000)"
fill="#000000" stroke="none">
<path d="M3340 6724 c-702 -43 -1329 -282 -1865 -713 -502 -403 -878 -962
-1065 -1581 -149 -495 -175 -1052 -74 -1560 249 -1253 1219 -2244 2468 -2520
170 -37 321 -58 528 -71 420 -27 921 52 1321 208 l96 37 -85 79 c-102 96 -200
216 -261 320 l-46 77 -117 0 -118 0 -45 -62 c-56 -79 -198 -256 -297 -370 -70
-82 -76 -86 -92 -71 -24 22 -63 107 -78 172 -12 51 -10 133 5 176 8 21 -46
-31 -191 -189 l-92 -98 -25 53 c-73 155 -76 375 -7 522 83 177 238 233 627
225 l192 -4 -16 35 c-8 20 -19 46 -24 59 -5 13 -47 103 -93 200 -146 309 -207
504 -261 847 l-5 31 -98 -3 c-53 -1 -502 -8 -997 -14 l-900 -11 -65 22 c-141
47 -257 142 -333 271 -41 70 -79 182 -81 238 -1 34 -1 35 64 52 l65 17 -100 3
-100 4 -67 135 c-75 150 -108 252 -139 433 -29 167 -23 387 14 528 54 207 154
384 302 538 104 108 142 135 232 166 154 54 197 59 518 59 l300 1 90 56 c50
31 110 67 134 80 40 22 52 40 150 216 58 106 131 238 161 294 95 178 178 246
329 270 136 22 334 -21 541 -118 l95 -44 70 20 c115 34 231 44 342 32 234 -25
317 -69 470 -243 105 -119 188 -226 268 -343 26 -38 102 -140 170 -225 149
-190 185 -240 219 -307 36 -73 83 -204 107 -298 27 -109 36 -339 18 -460 -31
-201 -8 -287 103 -389 89 -83 244 -181 423 -267 182 -87 645 -273 655 -262 19
20 43 315 43 528 -1 239 -17 415 -59 625 -161 808 -628 1526 -1304 2006 -441
312 -960 510 -1490 568 -143 16 -421 26 -530 20z"/>
</g>
</svg>
