<svg xmlns="http://www.w3.org/2000/svg" xmlns:xlink="http://www.w3.org/1999/xlink" viewBox="0 0 16 16"><defs><style>.cls-1,.cls-4{fill:none;}.cls-2{clip-path:url(#clip-path);}.cls-3{fill:#91535c;stroke-width:0.5px;}.cls-3,.cls-4,.cls-5{stroke:#fff;stroke-miterlimit:10;}.cls-4,.cls-5{stroke-width:0.25px;}.cls-5{fill:#fff;}</style><clipPath id="clip-path"><circle class="cls-1" cx="8" cy="8" r="7.5"/></clipPath></defs><title>favicon_02</title><g id="Layer_22" data-name="Layer 22"><g class="cls-2"><circle class="cls-3" cx="8" cy="8" r="7.5"/><path class="cls-4" d="M4.84,10.31a.77.77,0,0,0,.28.49.61.61,0,0,0,.34.13v-.62"/><path class="cls-5" d="M3.46,7.62c-.08,0-.11-.37,0-.7a.79.79,0,0,1,.34-.48.38.38,0,0,1,.35-.07.32.32,0,0,1,.14.35s0,.08-.21.2l-.28.21C3.53,7.35,3.52,7.63,3.46,7.62Z"/><path class="cls-4" d="M9,8.79A5,5,0,0,1,6.91,10a11.11,11.11,0,0,1-2.62.2H2.83a3.92,3.92,0,0,1-.62-1.66c-.15-1.19.25-2.79,1.31-3.32A3.35,3.35,0,0,1,4.77,5c.59,0,.8.07,1.28,0A3.11,3.11,0,0,0,7.54,4.5"/><path class="cls-4" d="M7.05,5.33c.12-.2.32-.54.55-1,.51-.91.54-1.06.7-1.17s.93-.37,3.11,1.17"/><path class="cls-4" d="M10.22,3.59a1.88,1.88,0,0,1,1.6-.12.61.61,0,0,1,.18.1,8.4,8.4,0,0,1,1.07,1.35c.74,1,.9,1.07,1,1.52a2.69,2.69,0,0,1,.13,1.18,3,3,0,0,0-.07.89,2.28,2.28,0,0,0,.14.49c.15.34.46.66,1.46,1.17a16.5,16.5,0,0,0,1.59.7l1.38.55a8.15,8.15,0,0,1,.83.34c.2.11.37.21.69.42a5.12,5.12,0,0,0,1,.62,2.56,2.56,0,0,0,.62.14,2.93,2.93,0,0,0,1.87-.48,3.52,3.52,0,0,0,.76-.9,12.54,12.54,0,0,1,1.66-1.94,4,4,0,0,1,3.11-1c0,.07-.2.18-.9.76a8.76,8.76,0,0,0-1,.9,4.15,4.15,0,0,0-.83,1.59h0a13.73,13.73,0,0,0-.62,1.8,6.09,6.09,0,0,1-.9,1.66,9.31,9.31,0,0,1-4,2.63"/><path class="cls-4" d="M12.38,8.17a2.31,2.31,0,0,1,.27,1.17,2.47,2.47,0,0,1-.9,1.73,3.07,3.07,0,0,1-2.14.76l-5.19.07a1.94,1.94,0,0,1-.83-.41A2,2,0,0,1,3,10.24"/><path class="cls-5" d="M6.29,10.24a.87.87,0,0,0,.28.63.76.76,0,0,0,.48.2V10"/><path class="cls-4" d="M8.5,8.65a.57.57,0,0,1,.49,0,.62.62,0,0,1,.34.42A1.35,1.35,0,0,0,9,8.79,2.1,2.1,0,0,0,8.5,8.65Z"/><path class="cls-5" d="M7.05,6.09a.58.58,0,0,0,.35.21.74.74,0,0,0,.48-.14,8.29,8.29,0,0,1,.76-.34,2,2,0,0,1,1-.14,1.93,1.93,0,0,1,.9.34"/><path class="cls-5" d="M7.79,6.21a1.3,1.3,0,0,0,0,.38,1.06,1.06,0,0,0,.42.67,1,1,0,0,0,.85,0,1.61,1.61,0,0,0,.7-.44,1.75,1.75,0,0,0,.42-1"/><path class="cls-4" d="M10.57,11.73a5,5,0,0,0,.62,2.21A4.94,4.94,0,0,0,12,15"/><path class="cls-4" d="M16.46,13.56A4.59,4.59,0,0,0,16,15.08,4.5,4.5,0,0,0,16.11,17a4.41,4.41,0,0,0,1.18,1.87,2.34,2.34,0,0,0,1,.62,2,2,0,0,0,1.31-.14,2.79,2.79,0,0,0,1.24-1.1,4.15,4.15,0,0,0,.7-2"/></g></g></svg>
