<svg xmlns="http://www.w3.org/2000/svg" xmlns:xlink="http://www.w3.org/1999/xlink" viewBox="0 0 16 16"><defs><style>.cls-1{fill:none;}.cls-2{clip-path:url(#clip-path);}.cls-3{fill:#91535c;stroke-width:0.25px;}.cls-3,.cls-4{stroke:#fff;stroke-miterlimit:10;}.cls-4,.cls-5{fill:#fff;}</style><clipPath id="clip-path"><circle class="cls-1" cx="8" cy="8" r="7.5"/></clipPath></defs><title>favicon_03</title><g id="Layer_22" data-name="Layer 22"><g class="cls-2"><circle class="cls-3" cx="8" cy="8" r="7.5"/><path class="cls-4" d="M4.35,9a.58.58,0,0,0,.51.51V9"/><path class="cls-4" d="M7.29,5.43a.74.74,0,0,0,0,.45.55.55,0,0,0,.23.34.51.51,0,0,0,.39.06c0-.21,0-.27,0-.29S7.85,6,7.8,6a.17.17,0,0,1-.11-.17.18.18,0,0,1,.11-.17.38.38,0,0,1,.11,0c0-.08,0-.12,0-.14s-.11,0-.23-.08-.09-.09-.16-.11S7.4,5.32,7.29,5.43Z"/><path class="cls-4" d="M3.22,6.79c-.06,0-.09-.31,0-.57a.73.73,0,0,1,.29-.4.32.32,0,0,1,.28-.05.24.24,0,0,1,.11.28s0,.07-.17.17l-.22.17C3.29,6.57,3.27,6.79,3.22,6.79Z"/><path class="cls-4" d="M10,12a3.44,3.44,0,0,0,.63,1.85,3.74,3.74,0,0,0,1.19,1,4.91,4.91,0,0,0,2.2.68"/><path class="cls-5" d="M7.75,7.75a4,4,0,0,1-1.7,1,8.77,8.77,0,0,1-2.15.17H2.71a3.23,3.23,0,0,1-.5-1.35A2.73,2.73,0,0,1,3.28,4.86a2.71,2.71,0,0,1,1-.22c.48,0,.65.05,1,0a2.66,2.66,0,0,0,1.22-.43"/><path class="cls-4" d="M6.16,4.92l.45-.79c.42-.75.44-.87.57-1s.76-.31,2.54,1"/><path class="cls-4" d="M8.75,3.49a1.61,1.61,0,0,1,1.31-.1l.15.09a6.8,6.8,0,0,1,.87,1.1c.61.79.74.87.85,1.24a2.1,2.1,0,0,1,.11,1,2.08,2.08,0,0,0,0,.73,1.36,1.36,0,0,0,.11.4c.12.28.37.54,1.19,1,.36.18.67.31,1.3.56s1,.4,1.13.45a5.91,5.91,0,0,1,.67.29,4.62,4.62,0,0,1,.57.34,5.24,5.24,0,0,0,.85.51,2.13,2.13,0,0,0,.51.11,2.37,2.37,0,0,0,1.52-.4,2.56,2.56,0,0,0,.62-.73,11,11,0,0,1,1.36-1.59,3.16,3.16,0,0,1,2.55-.84s-.17.14-.74.62a7.3,7.3,0,0,0-.79.73,3.4,3.4,0,0,0-.68,1.3h0a12.57,12.57,0,0,0-.51,1.47,4.85,4.85,0,0,1-.73,1.36,7.63,7.63,0,0,1-3.28,2.15"/><path class="cls-5" d="M10.52,7.24a1.9,1.9,0,0,1,.22,1A2.07,2.07,0,0,1,10,9.61a2.53,2.53,0,0,1-1.76.62L4,10.29A1.44,1.44,0,0,1,3.34,10a1.53,1.53,0,0,1-.51-1"/><path class="cls-4" d="M5.54,8.93a.7.7,0,0,0,.23.51.63.63,0,0,0,.39.17V8.76"/><path class="cls-4" d="M7.35,7.63a.49.49,0,0,1,.4,0A.53.53,0,0,1,8,8s-.09-.12-.28-.22S7.35,7.66,7.35,7.63Z"/><path class="cls-4" d="M6.16,5.54a.52.52,0,0,0,.28.17.66.66,0,0,0,.4-.11,5.05,5.05,0,0,1,.62-.28,1.63,1.63,0,0,1,.79-.12A1.76,1.76,0,0,1,9,5.48"/><path class="cls-4" d="M6.76,5.64a2,2,0,0,0,0,.31.89.89,0,0,0,.35.55.83.83,0,0,0,.69,0,1.33,1.33,0,0,0,.91-1.16"/><path class="cls-4" d="M9,10.15A5.58,5.58,0,0,0,9.55,12l.11.22c.16.34.27.63.34.82"/><path class="cls-5" d="M9.42,11.46a3.52,3.52,0,0,0-.06.62,1.9,1.9,0,0,0,.12.74l0,.11a4.16,4.16,0,0,0-1.24,0,.9.9,0,0,0-.45.17.92.92,0,0,0-.34.62,1.38,1.38,0,0,0,.17,1L8.29,14a.77.77,0,0,0-.06.23,1,1,0,0,0,.23.68l.39-.45c.21-.26.4-.5.57-.74H10c.42,0,.5,0,.57-.06s.06-.39.05-.84a3.35,3.35,0,0,1,.12-.91"/><path class="cls-4" d="M13.85,11.65a4,4,0,0,0-.4,1.24,3.59,3.59,0,0,0,.12,1.53,3.21,3.21,0,0,0,.39.84,3.24,3.24,0,0,0,.57.68,1.86,1.86,0,0,0,.79.51,1.63,1.63,0,0,0,1.07-.11,2.27,2.27,0,0,0,1-.91A3.34,3.34,0,0,0,18,13.8"/></g><path class="cls-4" d="M8,4c-2.4.77-3,1.47-3,2s.79,1,3,3a16.71,16.71,0,0,1,2,2c1.42,1.81,1.28,2.84,2,3,1.34.31,3.67-2.9,3-4-.49-.81-2.35,0-3-1-.52-.8.39-1.72,0-3a3.6,3.6,0,0,0-2-2"/></g></svg>
