<svg xmlns="http://www.w3.org/2000/svg" viewBox="0 0 1920 1080"><defs><style>.cls-1{fill:#e0a2a8;}.cls-2{fill:#bf7c80;}.cls-3{fill:#fff;}</style></defs><title>mobile_ux</title><g id="Layer_2" data-name="Layer 2"><rect class="cls-1" x="1" width="1920" height="1080"/><path class="cls-2" d="M1194.37,483.94c0,128-103.75,231.75-231.75,231.75-75,0-130-38.83-145.24-51.15-5.87-4.74-88.57-73.68-86.51-180.6C733,372.82,826.11,252.19,962.62,252.19,1090.62,252.19,1194.37,356,1194.37,483.94Z"/></g><g id="Layer_11" data-name="Layer 11"><path class="cls-3" d="M1149.34,500.32H1047.89a28.88,28.88,0,0,0-4.16,0h-.19l1.5,1.5V436.33l-1.5,1.5H1145a28.74,28.74,0,0,0,4.15,0h.19l-1.5-1.5v65.49a1.5,1.5,0,0,0,3,0V436.33a1.52,1.52,0,0,0-1.5-1.5h-92.81c-4.25,0-8.55-.19-12.8,0h-.19a1.52,1.52,0,0,0-1.5,1.5v65.49a1.52,1.52,0,0,0,1.5,1.5h92.81c4.25,0,8.55.18,12.8,0h.19A1.5,1.5,0,0,0,1149.34,500.32Z"/><path class="cls-3" d="M1097,473.2l17.63-11.5,28.09-18.32,6.42-4.18a1.52,1.52,0,0,0-.76-2.8h-91.48c-4.2,0-8.43-.18-12.62,0h-.18a1.52,1.52,0,0,0-.76,2.8L1061,450.7,1089.07,469l6.42,4.19c1.63,1.06,3.13-1.54,1.52-2.59l-17.64-11.5-28.08-18.32-6.42-4.18-.76,2.79h100.05a30.56,30.56,0,0,0,4.06,0h.17l-.75-2.79L1130,448.11l-28.08,18.31-6.43,4.19C1093.88,471.66,1095.39,474.26,1097,473.2Z"/><path class="cls-3" d="M896.21,285v65.49l1.5-1.5H796.26a28.88,28.88,0,0,0-4.16,0,1.21,1.21,0,0,1-.19,0l1.5,1.5V326.71l-.44,1.06A245.18,245.18,0,0,1,824.86,298q4.27-3.33,8.71-6.44c1.4-1,2.82-2,4.24-2.91.79-.53,1.57-1.06,2.37-1.57.15-.1,1.29-.77.47-.58a16.6,16.6,0,0,1,3.38,0h53.68a1.5,1.5,0,0,0,0-3H842.33c-.55,0-1.13-.05-1.68,0-1.43.14-3,1.64-4.16,2.42q-3,2-6,4.14a243.88,243.88,0,0,0-22.22,18q-5.23,4.76-10.18,9.82-2.5,2.56-4.94,5.2c-.93,1-2.66,2.29-2.78,3.71-.09,1.18,0,2.41,0,3.59v20.15a1.52,1.52,0,0,0,1.5,1.5h92.81c4.25,0,8.55.18,12.8,0h.19a1.52,1.52,0,0,0,1.5-1.5V285A1.5,1.5,0,0,0,896.21,285Z"/><path class="cls-3" d="M896,285.31l-17.64,11.51-28.09,18.32-6.42,4.19h1.51l-24.25-15.82-3.46-2.26.3,2.35q7.18-6,14.83-11.46,1.82-1.27,3.66-2.54a9,9,0,0,0,1.74-1.18c.3-.33.49-.41.06-.31a4.38,4.38,0,0,1,.81,0h57.7a1.5,1.5,0,0,0,0-3h-57.3c-.38,0-.78,0-1.15,0a2.64,2.64,0,0,0-1.24.46c-1.53.93-3,2-4.45,3q-8.67,6.06-16.78,12.87a1.52,1.52,0,0,0,.3,2.36l24.25,15.82,3.47,2.26a1.46,1.46,0,0,0,1.51,0L863,310.41l28.09-18.32,6.42-4.18C899.14,286.85,897.64,284.26,896,285.31Z"/><path class="cls-3" d="M1042.15,603a28.91,28.91,0,1,1-.36-4.61,29.54,29.54,0,0,1,.36,4.61,1.5,1.5,0,0,0,3,0,32,32,0,1,0-.41,5.07,34.43,34.43,0,0,0,.41-5.07A1.5,1.5,0,0,0,1042.15,603Z"/><path class="cls-3" d="M1071.23,665.51a9.83,9.83,0,0,0,2.7-8.46c-.58-3.91-3.55-6.36-6.12-9.08l-17.56-18.54-10-10.62a1.52,1.52,0,0,0-2.36.31,21.37,21.37,0,0,1-12.08,10,1.52,1.52,0,0,0-.66,2.51l18.92,19.6,9.55,9.89c2.46,2.54,4.69,5.55,8.25,6.55a9.89,9.89,0,0,0,9.41-2.19c1.43-1.31-.7-3.42-2.12-2.12a7.09,7.09,0,0,1-9.06.12,26.41,26.41,0,0,1-2.28-2.33l-2.77-2.87-5.56-5.76-22.22-23-.66,2.5a24.43,24.43,0,0,0,13.87-11.41l-2.36.31,20.63,21.77,10.22,10.8a7,7,0,0,1,.19,9.88A1.5,1.5,0,0,0,1071.23,665.51Z"/><path class="cls-3" d="M791.06,452.29a28.9,28.9,0,1,1-.36-4.61,28.55,28.55,0,0,1,.36,4.61,1.5,1.5,0,0,0,3,0,32,32,0,1,0-.41,5.08,34.57,34.57,0,0,0,.41-5.08A1.5,1.5,0,0,0,791.06,452.29Z"/><path class="cls-3" d="M820.14,514.86a9.85,9.85,0,0,0,2.71-8.47c-.58-3.9-3.56-6.35-6.13-9.07l-17.56-18.54-10-10.62a1.52,1.52,0,0,0-2.36.3,21.36,21.36,0,0,1-12.08,10A1.51,1.51,0,0,0,774,481l18.92,19.6,9.55,9.89c2.46,2.55,4.69,5.55,8.25,6.56a9.91,9.91,0,0,0,9.41-2.19c1.43-1.31-.7-3.43-2.12-2.12a7.08,7.08,0,0,1-9.06.11,24.86,24.86,0,0,1-2.27-2.32l-2.78-2.88-5.56-5.75-22.22-23-.66,2.51A24.47,24.47,0,0,0,789.34,470l-2.35.3,20.62,21.78,10.23,10.8a7.06,7.06,0,0,1,.18,9.88A1.5,1.5,0,0,0,820.14,514.86Z"/><path class="cls-3" d="M895,626.75l-44,.44,1.29.75q-8-17.41-16-34.83l-1.3,2.26h60l-1.5-1.5v34.38a1.5,1.5,0,0,0,3,0V593.87a1.52,1.52,0,0,0-1.5-1.5H835a1.51,1.51,0,0,0-1.29,2.25q8,17.42,16,34.83a1.48,1.48,0,0,0,1.3.74l44-.44A1.5,1.5,0,0,0,895,626.75Z"/><path class="cls-3" d="M836.41,593.47l-1.58-4.74-.22-.67a1.5,1.5,0,0,0-2.9.8l1.58,4.74.23.67a1.5,1.5,0,0,0,2.89-.8Z"/><path class="cls-3" d="M833.56,587l-5.25-1-.76-.15a1.5,1.5,0,1,0-.79,2.89l5.24,1,.76.15a1.54,1.54,0,0,0,1.85-1,1.52,1.52,0,0,0-1.05-1.84Z"/><path class="cls-3" d="M859.09,643.8a7.41,7.41,0,1,1-6.1-7.29,7.49,7.49,0,0,1,6.1,7.29,1.5,1.5,0,0,0,3,0,10.56,10.56,0,0,0-6.82-9.76,10.4,10.4,0,1,0,6.82,9.76A1.5,1.5,0,0,0,859.09,643.8Z"/><path class="cls-3" d="M883.67,636.78a7.55,7.55,0,0,1,4.51,7.35,7.42,7.42,0,1,1-4.51-7.35,1.56,1.56,0,0,0,2.06-.54,1.51,1.51,0,0,0-.54-2,10.4,10.4,0,0,0-13.78,13.94,10.4,10.4,0,1,0,13.78-13.94,1.53,1.53,0,0,0-2.05.54A1.52,1.52,0,0,0,883.67,636.78Z"/><path class="cls-3" d="M1039.46,325.32l-44,.44,1.29.74-16-34.83-1.3,2.26h60.05l-1.5-1.5v34.39a1.5,1.5,0,0,0,3,0V292.43a1.52,1.52,0,0,0-1.5-1.5H979.41a1.52,1.52,0,0,0-1.29,2.26l16,34.83a1.5,1.5,0,0,0,1.3.74l44-.44A1.5,1.5,0,0,0,1039.46,325.32Z"/><path class="cls-3" d="M980.86,292l-1.58-4.73-.22-.67a1.5,1.5,0,0,0-2.9.8l1.58,4.73.22.67a1.5,1.5,0,1,0,2.9-.8Z"/><path class="cls-3" d="M978,285.58l-5.25-1.05-.76-.15a1.53,1.53,0,0,0-1.84,1.05,1.51,1.51,0,0,0,1.05,1.84l5.24,1.05.76.15a1.5,1.5,0,1,0,.8-2.89Z"/><path class="cls-3" d="M1003.54,342.37a7.41,7.41,0,1,1-6.11-7.3,7.48,7.48,0,0,1,6.11,7.3,1.5,1.5,0,0,0,3,0,10.57,10.57,0,0,0-6.82-9.77,10.4,10.4,0,1,0,6.82,9.77A1.5,1.5,0,0,0,1003.54,342.37Z"/><path class="cls-3" d="M1028.12,335.34a7.57,7.57,0,0,1,4.51,7.36,7.42,7.42,0,0,1-13.44,3.78,7.42,7.42,0,0,1,8.93-11.14,1.56,1.56,0,0,0,2.06-.54,1.52,1.52,0,0,0-.54-2.05,10.4,10.4,0,0,0-13.78,13.94,10.41,10.41,0,1,0,13.78-13.94,1.53,1.53,0,0,0-2.05.54A1.51,1.51,0,0,0,1028.12,335.34Z"/><path class="cls-3" d="M1192.69,483.9A230.27,230.27,0,0,1,1033.35,703a228.64,228.64,0,0,1-141.58-.48,248,248,0,0,1-61.61-30.37,148.16,148.16,0,0,1-14.9-11.29,238.32,238.32,0,0,1-20.75-20.69C764,606,741.62,564,734.51,518.45c-7.57-48.44,3.8-98.63,27.19-141.32,23.26-42.45,58.65-78.22,102-100.12,42.76-21.62,92.27-28.25,139.35-19.79A229.82,229.82,0,0,1,1192.69,483.9c0,5.79,9,5.8,9,0a239.41,239.41,0,0,0-163.06-226.83c-47.1-15.88-99.5-16.72-146.83-1.33s-88.5,46.53-118.27,86.37c-30.12,40.3-49,90-50.27,140.52-1.24,48.93,15.47,96.61,43.26,136.53,12.34,17.72,26.63,34.47,43,48.61,13.94,12,30.13,21.77,46.62,29.86a248.43,248.43,0,0,0,68,22.21,236.92,236.92,0,0,0,76.92.16,239.23,239.23,0,0,0,197.6-198.09,245.69,245.69,0,0,0,3-38C1201.7,478.11,1192.7,478.1,1192.69,483.9Z"/><path class="cls-3" d="M913.68,262.82V369.51c0,2.82.29,5.93-.56,8.65a12.18,12.18,0,0,1-11.49,8.42H790.85a14.52,14.52,0,0,1-5.18-.77,12.22,12.22,0,0,1-7.8-11.31c-.06-6,0-11.95,0-17.92v-9.4c0-.33,0-.67,0-1,0-.09,0-.2,0-.29s0-.05,0-.08c-.21.81.31,0,.36,0a12,12,0,0,0,1.7-2.27c.59-.78,1.19-1.55,1.79-2.32,1.21-1.55,2.44-3.1,3.69-4.62a246.08,246.08,0,0,1,31.85-32.38,228.1,228.1,0,0,1,75.39-42.43q10-3.28,20.22-5.6l-1.7-.69a12.48,12.48,0,0,1,2.51,7.34c0,1.93,3,1.94,3,0a15.28,15.28,0,0,0-2.92-8.86,1.56,1.56,0,0,0-1.69-.69,226.92,226.92,0,0,0-79.63,35.47,244.25,244.25,0,0,0-35,29.8q-8,8.25-15.24,17.2c-1.17,1.45-2.32,2.92-3.46,4.39l-1.72,2.25a16.77,16.77,0,0,0-2,2.65,5,5,0,0,0-.21,2.15v21.34c0,2,0,4,0,6a15.26,15.26,0,0,0,7.85,13.21c3.61,2,7.35,1.84,11.27,1.84H895.06c2.19,0,4.38,0,6.58,0A15.24,15.24,0,0,0,915,381.45a16.18,16.18,0,0,0,1.69-7.52V262.82A1.5,1.5,0,0,0,913.68,262.82Z"/><path class="cls-3" d="M1073.44,277.83v86.7c0,3.46.12,7,0,10.41a12.2,12.2,0,0,1-12,11.52c-.83,0-1.67,0-2.51,0H950.33a12.14,12.14,0,0,1-12.7-12.63V265.3c0-.87,0-1.73,0-2.6a12.13,12.13,0,0,1,7.22-11c1.9-.84,4.4-.62,6.45-.72a233.12,233.12,0,0,1,101.08,17.69,231,231,0,0,1,21.8,10.5c1.7.92,3.21-1.67,1.52-2.59a234.66,234.66,0,0,0-98.08-28.38A233.94,233.94,0,0,0,950.1,248c-2.18.11-4.41,0-6.44.92a15,15,0,0,0-8.9,12,83.43,83.43,0,0,0-.13,10.25V373.93a15.61,15.61,0,0,0,4,10.64A15.35,15.35,0,0,0,950,389.46h102.42c3.15,0,6.31.11,9.46,0a15.22,15.22,0,0,0,14.15-11.75,24.26,24.26,0,0,0,.37-5.31V277.83A1.5,1.5,0,0,0,1073.44,277.83Z"/><path class="cls-3" d="M844.46,413V524.23A12.34,12.34,0,0,1,838.67,535a14.33,14.33,0,0,1-7.81,1.77H734l1.45,1.1a207.1,207.1,0,0,1-6.17-53.74,222.41,222.41,0,0,1,7.91-54.22,248.77,248.77,0,0,1,10.3-30.05L746,401h86.27a12.27,12.27,0,0,1,11.3,7.49,12.45,12.45,0,0,1,.89,4.55,1.5,1.5,0,0,0,3,0,15.29,15.29,0,0,0-10.79-14.42,20.86,20.86,0,0,0-6.09-.62H759.36c-4.38,0-8.79-.17-13.17,0H746a1.57,1.57,0,0,0-1.45,1.1A242.14,242.14,0,0,0,729,453.32a209.23,209.23,0,0,0,3.49,85.36,1.53,1.53,0,0,0,1.44,1.11h98.43A15.26,15.26,0,0,0,847,528.52a22.88,22.88,0,0,0,.49-5.83V413A1.5,1.5,0,0,0,844.46,413Z"/><path class="cls-3" d="M1095.54,558.49V671.43a37.16,37.16,0,0,0,0,4.6,1.33,1.33,0,0,1,0,.2l.74-1.29c-3.43,2.56-7.12,4.86-10.76,7.12q-2.83,1.77-5.73,3.45c-.89.53-1.79,1-2.69,1.55-.27.15-.86.52-.31.38a11.83,11.83,0,0,1-2.66,0H968a9,9,0,0,1-4.9-1,7.28,7.28,0,0,1-3.36-6.61V559.17a7.24,7.24,0,0,1,3.65-6.73,9,9,0,0,1,4.54-.81h120.49a7,7,0,0,1,7.13,6.86c0,1.93,3,1.94,3,0a10.08,10.08,0,0,0-10.38-9.86H966.6a10,10,0,0,0-9.15,6.22,15.85,15.85,0,0,0-.72,6.19V676.68c0,1.29,0,2.59,0,3.88A10.06,10.06,0,0,0,967,690.44c6,0,11.92,0,17.88,0h90.36c.5,0,1,0,1.52,0,1.23-.11,2.48-1.13,3.53-1.74q3.82-2.21,7.57-4.55t7.38-4.84c1.11-.76,3.17-1.62,3.32-3.11,0-.42,0-.86,0-1.28V558.49A1.5,1.5,0,0,0,1095.54,558.49Z"/><path class="cls-3" d="M1195.69,483.9a235.84,235.84,0,0,1-6,52.88l1.84-1c-4.79-2-7.37-6.7-7.37-11.75v-97.5c0-4.52-.06-9,0-13.55a12.49,12.49,0,0,1,1.34-5.53l-2.74-.35a233.08,233.08,0,0,1,12.3,59.21q.66,8.81.66,17.64a1.5,1.5,0,0,0,3,0,237.7,237.7,0,0,0-8-61.26q-2.22-8.29-5-16.39a1.52,1.52,0,0,0-2.74-.36,19.46,19.46,0,0,0-1.75,9.15v108.5c0,4.36,1.21,8.47,4.35,11.65a16.07,16.07,0,0,0,5.23,3.44,1.51,1.51,0,0,0,1.84-1,238.85,238.85,0,0,0,6.14-53.68A1.5,1.5,0,0,0,1195.69,483.9Z"/><path class="cls-3" d="M1154,537H1040.22c-4.11,0-7.92-1.5-10.1-5.21-1.38-2.34-1.44-4.78-1.44-7.36V413.8c0-2.49,0-4.86,1.28-7.15,2.12-3.86,6-5.5,10.2-5.5H1140.7c4.43,0,8.86,0,13.28,0a10.66,10.66,0,0,1,10.5,10.79c0,1.76,0,3.53,0,5.3v93c0,5.32,0,10.65,0,16A10.66,10.66,0,0,1,1154,537c-1.92,0-1.93,3,0,3a13.69,13.69,0,0,0,13.5-13.58c0-1.54,0-3.08,0-4.62V428.16c0-5.43,0-10.86,0-16.29a13.67,13.67,0,0,0-11.06-13.49,31.3,31.3,0,0,0-5.39-.23h-111a14.11,14.11,0,0,0-11.81,5.62c-2.1,2.83-2.57,6.11-2.57,9.51V524.52c0,3,.21,5.77,1.69,8.45a13.89,13.89,0,0,0,12.49,7H1154A1.5,1.5,0,0,0,1154,537Z"/><path class="cls-3" d="M1186.45,549.06a231.41,231.41,0,0,1-20.24,48.42,234.36,234.36,0,0,1-29.43,41.37,237.72,237.72,0,0,1-21.79,21.5l2.56,1.06v-72c0-8.79-.09-17.59,0-26.38a12.24,12.24,0,0,1,7.24-11.08,15.27,15.27,0,0,1,6.34-1h56.77a1.5,1.5,0,0,0,0-3h-54.57c-1.24,0-2.48,0-3.72,0a15.28,15.28,0,0,0-12.72,7c-2.46,3.84-2.34,8-2.34,12.28v63.18c0,10.17-.15,20.35,0,30.52v.47a1.52,1.52,0,0,0,2.56,1.07,239.24,239.24,0,0,0,36.21-39.37,234.93,234.93,0,0,0,25.6-44.49,237.36,237.36,0,0,0,10.43-28.76A1.51,1.51,0,0,0,1186.45,549.06Z"/><path class="cls-3" d="M934,563v99.57c0,4,0,8.09,0,12.14a12.2,12.2,0,0,1-12.06,12c-1.68,0-3.36,0-5,0h-67.3a10.35,10.35,0,0,1-1.67,0s.67.32-.16-.27c-1.09-.78-2.41-1.35-3.57-2-2.17-1.24-4.31-2.52-6.44-3.83a185,185,0,0,1-30.16-22.7q-5.07-4.77-9.84-9.82l.44,1.06V577.7c0-4.88-.05-9.75,0-14.63A12.18,12.18,0,0,1,809.36,551c1.15-.08,2.32,0,3.47,0H921a12.85,12.85,0,0,1,9,3.09,12.18,12.18,0,0,1,4,9c0,1.93,3,1.93,3,0a15.26,15.26,0,0,0-13.83-15c-1.32-.12-2.66,0-4,0H810.33a15.29,15.29,0,0,0-14.21,9.84,20.72,20.72,0,0,0-.93,7.5v79.59a40.74,40.74,0,0,0,0,4.28,2.56,2.56,0,0,0,.94,1.61l2.8,2.88c1.62,1.64,3.26,3.27,4.92,4.87,2.45,2.35,4.95,4.66,7.52,6.88,3.67,3.19,7.55,6.14,11.5,9a241.66,241.66,0,0,0,22.94,14.47,5.26,5.26,0,0,0,2.93.92h70.41a22.79,22.79,0,0,0,7.53-.77A15.27,15.27,0,0,0,937,674.64c0-1.33,0-2.67,0-4V563A1.5,1.5,0,0,0,934,563Z"/><path class="cls-3" d="M773.75,566.38v57.24l2.79-.76a256.22,256.22,0,0,1-30.16-52.26q-3.78-8.93-6.78-18.16l-1.45,1.9h21.62a16.48,16.48,0,0,1,6.49.89,12.25,12.25,0,0,1,7.49,11.15,1.5,1.5,0,0,0,3,0,15.24,15.24,0,0,0-6.07-12,15.52,15.52,0,0,0-9.53-3h-23a1.51,1.51,0,0,0-1.44,1.9,245.29,245.29,0,0,0,28.2,58.19q4.33,6.6,9,13a1.52,1.52,0,0,0,2.8-.76V566.38A1.5,1.5,0,0,0,773.75,566.38Z"/><path class="cls-3" d="M1025,708.64a234.48,234.48,0,0,1-54.9,8.37,225.39,225.39,0,0,1-54.33-4.85,239.73,239.73,0,0,1-26.58-7.32l.89,2.2a12.23,12.23,0,0,1,10.4-6h111.68a12.09,12.09,0,0,1,11.79,9.43c.46,1.88,3.35,1.09,2.9-.79A15.29,15.29,0,0,0,1012,698.05H902.35c-3.67,0-7.21.46-10.33,2.64a15.88,15.88,0,0,0-4.5,4.84,1.52,1.52,0,0,0,.9,2.2,237,237,0,0,0,49.92,11.08,232.1,232.1,0,0,0,56.67-.92,236,236,0,0,0,30.82-6.36A1.5,1.5,0,0,0,1025,708.64Z"/><path class="cls-3" d="M893.93,449.82v65.55a1.5,1.5,0,0,0,3,0V449.82a1.5,1.5,0,0,0-3,0Z"/><path class="cls-3" d="M978.57,449.82v65.55a1.5,1.5,0,0,0,3,0V449.82a1.5,1.5,0,0,0-3,0Z"/><path class="cls-3" d="M896.19,450.32l14.26-9.7,22.78-15.49,5.27-3.59c1.59-1.08.09-3.68-1.51-2.59l-14.27,9.7L900,444.14l-5.28,3.59c-1.58,1.08-.09,3.68,1.52,2.59Z"/><path class="cls-3" d="M980.82,447.73,966.56,438l-22.78-15.49L938.5,419c-1.6-1.09-3.1,1.51-1.51,2.59l14.27,9.7L974,446.73l5.28,3.59c1.6,1.09,3.1-1.51,1.51-2.59Z"/><path class="cls-3" d="M916,516.17V479.4a1.5,1.5,0,0,0-3,0v36.77a1.5,1.5,0,0,0,3,0Z"/><path class="cls-3" d="M937.75,477.9H914.47a1.5,1.5,0,0,0,0,3h23.28a1.5,1.5,0,0,0,0-3Z"/><path class="cls-3" d="M939.25,516.17V479.4a1.5,1.5,0,0,0-3,0v36.77a1.5,1.5,0,0,0,3,0Z"/><path class="cls-3" d="M980.07,514.67H937.75a1.5,1.5,0,0,0,0,3h42.32a1.5,1.5,0,0,0,0-3Z"/><path class="cls-3" d="M895.43,517.67h19a1.5,1.5,0,0,0,0-3h-19a1.5,1.5,0,0,0,0,3Z"/><path class="cls-3" d="M993.46,536.67H879.69c-4.11,0-7.92-1.5-10.1-5.21-1.38-2.35-1.44-4.78-1.44-7.37V413.52c0-2.49,0-4.86,1.28-7.16,2.13-3.85,6-5.49,10.21-5.49H980.18c4.42,0,8.85-.05,13.28,0a10.67,10.67,0,0,1,10.5,10.78v98.29c0,5.32,0,10.65,0,16a10.66,10.66,0,0,1-10.5,10.75c-1.93,0-1.94,3,0,3a13.7,13.7,0,0,0,13.5-13.58c0-1.54,0-3.08,0-4.62V427.88c0-5.43,0-10.86,0-16.29A13.69,13.69,0,0,0,995.9,398.1a30.44,30.44,0,0,0-5.4-.23h-111a14.13,14.13,0,0,0-11.82,5.61c-2.09,2.84-2.57,6.12-2.57,9.52V524.24c0,3,.21,5.77,1.69,8.45a13.89,13.89,0,0,0,12.49,7H993.46A1.5,1.5,0,0,0,993.46,536.67Z"/><path class="cls-3" d="M1122.45,313.6l0,17.58,0,28.05v6.48a1.5,1.5,0,0,0,3,0l0-17.58,0-28.05V313.6a1.5,1.5,0,0,0-3,0Z"/><path class="cls-3" d="M1144.55,366.5V329.73a1.5,1.5,0,0,0-3,0V366.5a1.5,1.5,0,0,0,3,0Z"/><path class="cls-3" d="M1124,368h19a1.5,1.5,0,0,0,0-3h-19a1.5,1.5,0,0,0,0,3Z"/><path class="cls-3" d="M1177,387h-67.24a13.47,13.47,0,0,1-7-1.59,12.24,12.24,0,0,1-6.07-10.53c0-3,0-6.07,0-9.11V290.31l-2.26,1.3a233.61,233.61,0,0,1,81.22,97.66c.79,1.76,3.37.24,2.59-1.51a235.13,235.13,0,0,0-24.94-43A237.18,237.18,0,0,0,1096,289a1.51,1.51,0,0,0-2.26,1.29v84a16,16,0,0,0,2,8.12,15.28,15.28,0,0,0,13,7.56c10.45.12,20.91,0,31.37,0H1177A1.5,1.5,0,0,0,1177,387Z"/><path class="cls-3" d="M1138.49,592.59l-.08,15.2-.13,24.11,0,5.58a1.5,1.5,0,0,0,3,0l.08-15.21.13-24.1,0-5.58a1.5,1.5,0,0,0-3,0Z"/><path class="cls-3" d="M1140.74,593.08l14.27-9.7,22.78-15.49,5.27-3.58c1.59-1.08.09-3.68-1.51-2.59l-14.27,9.7-22.77,15.48-5.28,3.59c-1.59,1.08-.09,3.68,1.51,2.59Z"/></g></svg>
