<svg xmlns="http://www.w3.org/2000/svg" viewBox="0 0 1920 1080"><defs><style>.cls-1{fill:#665565;}.cls-2{fill:#362c35;}.cls-3{fill:#fff;}</style></defs><title>mobile_animation</title><g id="Layer_2" data-name="Layer 2"><rect class="cls-1" y="-1" width="1920" height="1080"/><path class="cls-2" d="M1195.43,486.43c0,130.41-105.71,236.13-236.12,236.13-76.44,0-132.43-39.57-148-52.12-6-4.82-90.24-75.07-88.14-184,2.18-113.22,97-236.13,236.13-236.13C1089.72,250.3,1195.43,356,1195.43,486.43Z"/></g><g id="Layer_15" data-name="Layer 15"><path class="cls-3" d="M1192.05,486.32a231.79,231.79,0,0,1-167.12,222.56,230.93,230.93,0,0,1-79.34,8.61,233.79,233.79,0,0,1-81.16-20.87,246,246,0,0,1-46.87-27.85c-.55-.42.78.61-.14-.11l-.69-.54-1.22-1-.92-.76c-1.12-.93-2.22-1.89-3.32-2.86-4-3.51-7.78-7.19-11.48-11a266.38,266.38,0,0,1-32.85-40.75,238.42,238.42,0,0,1-30-64,207.53,207.53,0,0,1-7.22-78.5A234.9,234.9,0,0,1,747.18,402a252.18,252.18,0,0,1,37.59-62.27,241.49,241.49,0,0,1,54.87-49.31,222.12,222.12,0,0,1,69.84-29.91,229.92,229.92,0,0,1,151.12,16.9,231.09,231.09,0,0,1,131.45,208.94c0,5.79,9,5.8,9,0a239.37,239.37,0,0,0-49-145.52,244.53,244.53,0,0,0-55.17-52.71A239.5,239.5,0,0,0,947.77,246a230.62,230.62,0,0,0-79.4,18.76,237.8,237.8,0,0,0-64.7,42.07A260.9,260.9,0,0,0,727.1,433.38a223.13,223.13,0,0,0-6.56,75.84,226.75,226.75,0,0,0,21.8,77.44,270.62,270.62,0,0,0,35.42,54.83,252,252,0,0,0,27.49,28.71,194.23,194.23,0,0,0,27.31,19.68,257.44,257.44,0,0,0,68.16,29.23,235.13,235.13,0,0,0,89.24,6,240.93,240.93,0,0,0,183.19-126.26,239,239,0,0,0,24.71-73.45,247.63,247.63,0,0,0,3.19-39.12C1201.06,480.53,1192.06,480.52,1192.05,486.32Z"/><path class="cls-3" d="M766.33,552.8c0,.13,0,.26,0,.38,0,.29,0,0,0,0,0,.2-.08.4-.14.6s-.08.23-.12.34c0-.06.14-.27,0,0s-.23.41-.36.61.14-.1,0,0-.14.16-.2.22-.52.45-.23.24c-.16.11-.32.22-.5.32l-.21.11c-.24.14.22-.05-.14.06a5.5,5.5,0,0,1-.58.16c-.09,0-.37.05,0,0l-.31,0c-.21,0-.42,0-.63,0s.35.08,0,0l-.36-.09-.35-.11c-.08,0-.23-.13,0,0l-.52-.28c-.09-.06-.16-.12-.25-.17s.24.23,0,0l-.49-.51c.2.2.06.09,0,0l-.2-.3c0-.09-.3-.62-.17-.28a5.58,5.58,0,0,1-.18-.58,2,2,0,0,1-.05-.24c-.07-.29,0,.25,0-.15a3.62,3.62,0,0,1,0-.57c0-.07.08-.46,0-.1,0-.08,0-.16,0-.24a5.54,5.54,0,0,1,.17-.58c.12-.37-.15.25,0-.08l.17-.32c.05-.08.11-.16.16-.25s.23-.26,0,0a5.49,5.49,0,0,1,.4-.43s.3-.26.12-.11.13-.09.14-.1c.2-.13.41-.24.62-.35,0,0-.29.11,0,0l.35-.11.24-.06s.4-.08.16,0,.17,0,.17,0h.32l.32,0c.35,0-.22-.07.09,0s.47.12.7.2-.14-.12,0,0a3.22,3.22,0,0,0,.37.2l.2.12.19.14c-.15-.11-.16-.12,0,0l.42.42c.27.27-.15-.25.06.07l.19.29c.06.11.12.21.17.32.16.27-.06-.24,0,.08s.14.46.2.7c0,.08,0,.29,0,0,0,.17,0,.33,0,.5a1.5,1.5,0,0,0,3,0,6.14,6.14,0,0,0-4-5.68,6,6,0,0,0-6.61,1.76,6,6,0,1,0,10.63,3.92,1.5,1.5,0,0,0-3,0Z"/><path class="cls-3" d="M893.5,664.07c0,.13,0,.26,0,.38,0,.29,0,0,0,0,0,.2-.08.4-.14.6l-.12.34c0-.05.13-.27,0,0s-.23.41-.36.61.14-.1,0,0a2,2,0,0,0-.2.22c-.07.08-.52.45-.23.24l-.5.32-.21.11c-.25.14.22-.05-.14.06a5.5,5.5,0,0,1-.58.16c-.09,0-.37,0,0,0l-.32,0c-.21,0-.42,0-.63,0s.35.08,0,0l-.35-.09-.35-.11c-.08,0-.23-.13,0,0-.18-.09-.36-.18-.53-.28l-.24-.17c-.19-.11.24.23,0,0l-.5-.51c.2.2.07.09,0,0s-.13-.19-.19-.3-.3-.62-.17-.28a3.89,3.89,0,0,1-.18-.58l-.06-.23c-.07-.3,0,.24,0-.16a5.42,5.42,0,0,1,0-.57c0-.07.07-.46,0-.1,0-.08,0-.16.05-.24a5.54,5.54,0,0,1,.17-.58c.12-.37-.15.25,0-.08.06-.1.11-.21.17-.32l.16-.24c0-.08.23-.27,0,0l.41-.43.12-.11c-.17.15.13-.09.13-.1a4.77,4.77,0,0,1,.63-.34h0l.35-.11a.86.86,0,0,1,.23-.06s.41-.08.17,0,.16,0,.17,0h.32l.31,0c.35,0-.21-.07.1,0s.46.12.7.2-.14-.12,0,0,.25.13.36.2l.2.12.2.14c-.15-.11-.16-.12,0,0l.42.42c.27.27-.15-.25.06.07l.19.29.17.32c.15.27-.06-.24,0,.08s.14.46.2.7c0,.08,0,.29,0,0l0,.5a1.5,1.5,0,1,0,3,0,6.15,6.15,0,0,0-4-5.68,6,6,0,0,0-6.61,1.76,6,6,0,1,0,10.63,3.92,1.5,1.5,0,0,0-3,0Z"/><path class="cls-3" d="M902.58,608.44c0,.13,0,.25,0,.38s0,0,0,0a5.63,5.63,0,0,1-.14.59,3.4,3.4,0,0,1-.12.34c0-.05.14-.26,0,0a6.27,6.27,0,0,1-.36.62c-.19.29.14-.1,0,0a1.42,1.42,0,0,0-.2.22c-.07.07-.52.45-.23.23a3.27,3.27,0,0,1-.5.32l-.21.12c-.24.14.22-.06-.14,0a5.54,5.54,0,0,1-.58.17c-.09,0-.37,0,0,0l-.31,0-.63,0c-.24,0,.35.08,0,0l-.36-.08-.35-.12c-.08,0-.23-.12,0,0-.17-.1-.35-.18-.52-.29l-.25-.16c-.19-.12.24.23,0,0l-.49-.51c.2.2.06.1,0,0l-.2-.3c0-.09-.3-.63-.17-.29a5.4,5.4,0,0,1-.18-.57,2,2,0,0,1-.05-.24c-.07-.29,0,.24,0-.16a3.49,3.49,0,0,1,0-.56c0-.08.08-.47,0-.1,0-.08,0-.16,0-.24a5.54,5.54,0,0,1,.17-.58c.12-.37-.15.24,0-.09l.17-.31c.05-.09.11-.17.16-.25s.23-.26,0,0c.13-.14.26-.29.4-.43s.3-.26.12-.11.13-.08.14-.09c.2-.13.41-.24.62-.35h0l.35-.11.24-.06s.4-.07.16,0,.17,0,.17,0h.64c.35,0-.22-.06.09,0l.7.19c.34.11-.14-.11,0,0a3.2,3.2,0,0,0,.37.19l.2.13.19.14c-.15-.12-.16-.12,0,0l.42.41c.27.27-.15-.25.06.07l.19.3a2.38,2.38,0,0,1,.17.31c.16.27-.06-.24,0,.09s.14.46.2.7c0,.07,0,.28,0,0,0,.16,0,.33,0,.5a1.5,1.5,0,0,0,3,0,6.14,6.14,0,0,0-4-5.69,6,6,0,0,0-6.61,1.77,6,6,0,1,0,10.63,3.92,1.51,1.51,0,0,0-1.5-1.5A1.53,1.53,0,0,0,902.58,608.44Z"/><circle class="cls-3" cx="1070.42" cy="662.37" r="4.54"/><path class="cls-3" d="M1073.46,662.37c0,.13,0,.25,0,.38,0,.29,0,0,0,0,0,.2-.08.4-.14.6s-.08.22-.12.34c0-.06.14-.27,0,0s-.24.41-.37.61.14-.1,0,0a2.09,2.09,0,0,0-.2.22c-.07.07-.52.45-.23.23a4.32,4.32,0,0,1-.5.33l-.21.11c-.24.14.22-.06-.14.06a5.5,5.5,0,0,1-.58.16c-.09,0-.36,0,0,0-.1,0-.21,0-.31,0s-.42,0-.63,0,.35.08,0,0l-.36-.08-.35-.11c-.07,0-.23-.13,0,0-.17-.1-.35-.18-.52-.29l-.25-.16c-.19-.11.24.23,0,0l-.49-.5c.2.2.06.09,0,0l-.2-.3c0-.09-.3-.62-.16-.28a3.93,3.93,0,0,1-.19-.58,2,2,0,0,1,0-.24c-.07-.29,0,.25,0-.15a3.62,3.62,0,0,1,0-.57c0-.07.08-.47,0-.1,0-.08,0-.16,0-.24s.11-.39.17-.58c.12-.37-.15.25,0-.08.06-.11.11-.22.17-.32s.11-.16.16-.25.23-.26,0,0a5.49,5.49,0,0,1,.4-.43s.3-.27.12-.12.13-.08.14-.09c.2-.13.41-.24.62-.35,0,0-.29.1,0,0l.35-.12.24-.06.16,0c-.24,0,.17,0,.17,0h.64c.35,0-.22-.06.09,0s.47.12.7.2-.14-.12,0,0a2.15,2.15,0,0,0,.37.19l.2.13.19.14c-.15-.12-.16-.12,0,0l.42.42c.27.26-.15-.25.06.06.07.1.13.2.19.3a3.3,3.3,0,0,1,.18.32c.15.26-.07-.24,0,.08s.14.46.2.7c0,.07,0,.28,0,0a4.19,4.19,0,0,1,0,.5,1.51,1.51,0,0,0,1.5,1.5,1.53,1.53,0,0,0,1.5-1.5,6.15,6.15,0,0,0-4-5.69,6,6,0,0,0-6.61,1.77,6,6,0,1,0,10.63,3.92,1.5,1.5,0,1,0-3,0Z"/><circle class="cls-3" cx="804.73" cy="505.68" r="4.54"/><path class="cls-3" d="M807.77,505.68c0,.13,0,.26,0,.38,0,.29,0,0,0,0a4.34,4.34,0,0,1-.14.6,2.3,2.3,0,0,1-.12.34c0-.06.14-.27,0,0s-.24.41-.37.61.15-.1,0,0-.13.16-.2.22-.52.45-.23.24c-.15.11-.32.22-.49.32l-.21.11c-.25.14.22,0-.14.06-.2.06-.39.12-.59.16s-.36.05,0,0l-.31,0c-.21,0-.42,0-.63,0s.35.08,0,0l-.36-.09-.34-.11c-.08,0-.23-.13,0,0l-.52-.28a2.2,2.2,0,0,0-.25-.17c-.18-.11.24.23,0,0l-.5-.51c.2.2.07.09,0,0l-.2-.3c0-.09-.3-.62-.16-.28a3.93,3.93,0,0,1-.19-.58c0-.08,0-.16,0-.24-.07-.29,0,.25,0-.15a5.42,5.42,0,0,1,0-.57c0-.07.07-.46,0-.1,0-.08,0-.16,0-.24s.11-.39.17-.58c.12-.37-.15.25,0-.08l.17-.32c0-.08.11-.16.16-.25s.23-.26,0,0a4.17,4.17,0,0,1,.41-.43l.12-.11c-.18.15.12-.09.13-.1.2-.13.41-.24.62-.35-.05,0-.29.11,0,0l.34-.11a1.05,1.05,0,0,1,.24-.06s.4-.08.16,0,.17,0,.18,0h.31l.32,0c.35,0-.22-.07.09,0s.47.12.7.2-.13-.12,0,0,.26.13.37.2l.2.12.19.14c-.14-.11-.15-.12,0,0l.41.42c.27.27-.15-.25.06.07.07.1.14.19.2.29l.17.32c.15.27-.07-.24,0,.08s.13.46.19.7c0,.08,0,.29,0,0a4.19,4.19,0,0,1,0,.5,1.5,1.5,0,1,0,3,0,6.13,6.13,0,0,0-4-5.68,6,6,0,0,0-6.62,1.76,6,6,0,1,0,10.63,3.92,1.5,1.5,0,0,0-3,0Z"/><path class="cls-3" d="M1071.76,601.63c0,.12,0,.25,0,.37,0,.29,0,0,0,0a5.63,5.63,0,0,1-.14.59l-.12.34s.13-.27,0,0-.23.41-.36.61.14-.1,0,0a1.31,1.31,0,0,0-.2.21c-.07.08-.52.46-.23.24a5.29,5.29,0,0,1-.5.32l-.21.11c-.25.15.22,0-.14.06l-.58.17c-.09,0-.37,0,0,0l-.31,0c-.22,0-.42,0-.64,0s.35.08,0,0l-.35-.09-.35-.11c-.08,0-.23-.13,0,0a5.36,5.36,0,0,1-.53-.28l-.24-.17c-.19-.11.24.24,0,0l-.49-.51c.19.2.06.09,0,0l-.19-.29c0-.09-.3-.63-.17-.29q-.11-.28-.18-.57l-.06-.24c-.07-.3,0,.24,0-.16a5.42,5.42,0,0,1,0-.57c0-.07.08-.46,0-.09,0-.08,0-.17,0-.25s.11-.38.17-.58c.12-.36-.15.25,0-.08l.17-.31c.05-.09.11-.17.16-.25s.23-.27,0,0c.13-.15.26-.29.4-.43l.12-.11c-.17.15.13-.09.13-.09a3.88,3.88,0,0,1,.63-.35h0l.35-.11.23-.06s.41-.07.17,0,.16,0,.17,0h.63c.35,0-.21-.06.1,0s.47.12.7.2-.14-.11,0,0,.25.13.36.2a1.37,1.37,0,0,1,.2.13l.2.13c-.15-.11-.16-.11,0,0l.42.42c.27.27-.15-.25.06.07.06.1.13.19.19.3l.17.31c.16.27-.06-.24,0,.08s.14.47.2.7,0,.29,0,0l0,.51a1.5,1.5,0,0,0,3,0,6.15,6.15,0,0,0-4-5.69,6,6,0,0,0-6.61,1.77,6,6,0,1,0,10.63,3.92,1.5,1.5,0,1,0-3,0Z"/><path class="cls-3" d="M1064.05,600.76l-16,.63-38.1,1.49-46.32,1.82-39.93,1.57c-6.46.26-13,.36-19.4.76h-.27c-1.92.08-1.93,3.08,0,3l16-.62,38.1-1.5,46.32-1.82,39.93-1.57c6.46-.25,12.95-.35,19.4-.76h.27c1.92-.08,1.93-3.08,0-3Z"/><path class="cls-3" d="M888.33,659.92l-12.06-10.49-28.77-25-35-30.42-30.15-26.23c-4.88-4.24-9.7-8.56-14.65-12.74l-.2-.17c-1.45-1.26-3.58.85-2.12,2.12l12.06,10.49,28.77,25,35,30.43,30.15,26.22c4.88,4.25,9.71,8.57,14.65,12.74l.2.18c1.45,1.26,3.58-.85,2.12-2.12Z"/><path class="cls-3" d="M1070.39,660c-10.08-13.77-21.46-26.8-35.12-37.14-8.93-6.75-18.94-12.26-29.79-15.19a64.58,64.58,0,0,0-30.46-.94c-11.35,2.47-21.62,8.16-32.23,12.67A120.47,120.47,0,0,1,924,625.77a109.76,109.76,0,0,1-23.88,2.89c-11,.18-22-.43-32.78-2.89-15.42-3.52-30-10.72-41-22.21-9.59-10-15.92-22.55-19.45-35.86A125.61,125.61,0,0,1,803,532.41a137.11,137.11,0,0,1,2.16-21.73c.11-.61.23-1.23.36-1.84.4-1.88-2.49-2.69-2.89-.8a126.42,126.42,0,0,0-2.27,17,140.65,140.65,0,0,0,1.41,33.43c2.23,13.27,6.8,26.3,14.44,37.44a78.79,78.79,0,0,0,36.39,28.5c12.41,4.89,25.81,6.94,39.11,7.25s26.55-.8,39.3-4.71c11.68-3.59,22.34-9.53,33.69-13.9,10.35-4,21.23-5.68,32.26-4.06a74.82,74.82,0,0,1,27.73,10.35c13.08,7.91,24.19,18.81,33.94,30.48,3.18,3.81,6.21,7.72,9.14,11.72,1.13,1.54,3.73.05,2.59-1.51Z"/><path class="cls-3" d="M1013,299.16c5.87-2.25,12.72-1.82,17.84,2a19.41,19.41,0,0,1,7,11.3c.41,1.89,3.3,1.09,2.89-.79a22.29,22.29,0,0,0-8.37-13.1c-5.74-4.23-13.57-4.85-20.15-2.33-1.78.68-1,3.58.8,2.89Z"/><path class="cls-3" d="M858.56,583.25l8-36.12,1.13-5.13c.42-1.88-2.47-2.68-2.89-.79l-8,36.11-1.13,5.13c-.42,1.88,2.47,2.68,2.89.8Z"/><path class="cls-3" d="M914.16,441.42A49.7,49.7,0,0,0,934,420.65c.87-1.72-1.72-3.24-2.59-1.51a46.87,46.87,0,0,1-18.76,19.69,1.5,1.5,0,0,0,1.52,2.59Z"/><path class="cls-3" d="M919.91,453.16a21,21,0,0,0-3.8-10.82,20.47,20.47,0,0,0-11.76-7.86c-1.88-.45-2.68,2.44-.8,2.89a17.32,17.32,0,0,1,10.13,6.71,18.05,18.05,0,0,1,2.62,5.58c.2.73.35,1.48.48,2.22,0,.1,0,.19,0,.29,0-.15,0-.17,0-.07s0,.28.05.42,0,.43,0,.64c.13,1.92,3.13,1.93,3,0Z"/><path class="cls-3" d="M937.37,420.71a57.37,57.37,0,0,1-10.83-11.82,1.54,1.54,0,0,0-2.06-.54,1.51,1.51,0,0,0-.53,2,59.63,59.63,0,0,0,11.3,12.43,1.53,1.53,0,0,0,2.12,0,1.51,1.51,0,0,0,0-2.12Z"/><path class="cls-3" d="M1010.74,297.48l-3,5L999.58,316l-12,20L972.85,360.5l-16.12,26.82-16.28,27.07-15.17,25.23L912.5,460.87l-9.22,15.35c-1.46,2.42-3,4.81-4.37,7.26-.06.11-.13.21-.19.31a1.5,1.5,0,0,0,2.59,1.52l3-5,8.16-13.57,12-20,14.71-24.48,16.13-26.81L971.6,368.4l15.17-25.23,12.78-21.25,9.22-15.35c1.46-2.42,3-4.81,4.37-7.26.06-.11.13-.21.19-.31a1.5,1.5,0,0,0-2.59-1.52Z"/><path class="cls-3" d="M1037.9,312.08l-2.9,4.82L1027.18,330l-11.57,19.29-14.16,23.63L986,398.64l-15.61,26L955.77,449l-12.29,20.51-8.88,14.81c-1.4,2.32-2.86,4.62-4.19,7l-.18.3a1.5,1.5,0,0,0,2.59,1.52l2.89-4.82,7.82-13.05L955.1,456l14.17-23.63,15.45-25.77,15.61-26,14.61-24.36,12.3-20.51,8.88-14.81c1.39-2.32,2.85-4.62,4.18-7,.06-.11.13-.2.19-.3a1.5,1.5,0,0,0-2.59-1.52Z"/><path class="cls-3" d="M939.32,477.48c-.46-.35-.15-.12-.05,0l.25.21a7.14,7.14,0,0,1,.55.55l.27.3s.14.18.15.18-.22-.3,0,0a7.6,7.6,0,0,1,.57.9c.08.15.16.31.23.46.18.37,0-.16,0,.05s.07.19.1.29a7.86,7.86,0,0,1,.31,1.08c0,.16,0,.33.08.49,0-.06,0-.33,0-.13a2.28,2.28,0,0,0,0,.26c0,.24,0,.47,0,.71a1.51,1.51,0,0,0,1.5,1.5,1.53,1.53,0,0,0,1.5-1.5,9.63,9.63,0,0,0-4-7.88,1.45,1.45,0,0,0-1.15-.15,1.48,1.48,0,0,0-1,1.84,1.76,1.76,0,0,0,.69.9Z"/><path class="cls-3" d="M947.51,466.06c.26.14.51.29.76.45l.46.31.22.16c.31.22-.24-.21.06,0s.69.58,1,.9.36.37.53.56l.24.28.15.18h0a12.7,12.7,0,0,1,.95,1.47c.14.26.27.53.4.79,0,.07.13.32.05.13.06.13.11.27.16.4a11.83,11.83,0,0,1,.61,2.41,1.52,1.52,0,0,0,1.85,1.05,1.55,1.55,0,0,0,1-1.85,13.79,13.79,0,0,0-7-9.87,1.5,1.5,0,1,0-1.51,2.59Z"/><path class="cls-3" d="M954.07,470.13a53.81,53.81,0,0,0,15.29-24.9,1.5,1.5,0,0,0-2.89-.8A50.91,50.91,0,0,1,952,468c-1.42,1.31.71,3.43,2.12,2.12Z"/><path class="cls-3" d="M961.74,442a22.23,22.23,0,0,0,20.63,2.64c1.79-.67,1-3.57-.79-2.89a19.46,19.46,0,0,1-18.33-2.34,1.5,1.5,0,1,0-1.51,2.59Z"/><path class="cls-3" d="M902.87,539.07a12.5,12.5,0,0,0,12.56,4.48,15.43,15.43,0,0,0,9.85-8.21c.83-1.73-1.75-3.25-2.59-1.51a12.58,12.58,0,0,1-7.78,6.76A9.59,9.59,0,0,1,905,537a1.52,1.52,0,0,0-2.12,0,1.54,1.54,0,0,0,0,2.12Z"/><path class="cls-3" d="M948.82,543.1c-1.88,5.54-7.65,11.64-14,8.36-4.8-2.5-6.4-7.8-6.18-12.9a20.45,20.45,0,0,1,.68-4.6,1.5,1.5,0,0,0-2.89-.8,21.87,21.87,0,0,0,.7,14.22,13.86,13.86,0,0,0,6.18,6.67,11.07,11.07,0,0,0,10.43-.07c3.93-2.06,6.53-6,7.92-10.08.62-1.84-2.27-2.62-2.89-.8Z"/><path class="cls-3" d="M964.34,520.1a67.78,67.78,0,0,1,1.38,15.3,32.75,32.75,0,0,1-1,7,12,12,0,0,1-1.17,2.93,12.94,12.94,0,0,1-.93,1.39c-.12.17,0,0,.06-.07l-.29.36c-1.73,2.05-5,5.23-7.69,2.81-2.1-1.91-2.73-5.14-2.43-7.81a59.44,59.44,0,0,0-.16-13.66c-.23-1.89-3.23-1.92-3,0a61.37,61.37,0,0,1,.13,13.88,12.15,12.15,0,0,0,3.24,9.61c3.46,3.38,8,1.44,11-1.53,3.14-3.16,4.38-7,4.94-11.39.84-6.52.07-13.22-1.14-19.65-.36-1.9-3.25-1.09-2.9.8Z"/><path class="cls-3" d="M946.92,522a29.37,29.37,0,0,0-12.71-15.51,1.5,1.5,0,0,0-1.51,2.59A26.16,26.16,0,0,1,944,522.83a1.55,1.55,0,0,0,1.85,1,1.52,1.52,0,0,0,1-1.85Z"/><path class="cls-3" d="M986.72,334.71A125.47,125.47,0,0,0,967.8,331c-2.74-.31-5.64-.47-8.24.63a10.22,10.22,0,0,0-5.34,5.9c-.71,1.8,2.19,2.57,2.89.8a6.85,6.85,0,0,1,4.78-4.32c2.43-.58,5.12-.14,7.55.19a128.73,128.73,0,0,1,16.48,3.37,1.5,1.5,0,0,0,.8-2.89Z"/><path class="cls-3" d="M872.74,426.56a2.69,2.69,0,0,1-.47-.38,2.39,2.39,0,0,1-.22-.23s-.21-.25-.1-.11a3.94,3.94,0,0,1-.39-.61c0-.09-.09-.18-.13-.28.08.18,0-.09,0-.12a4.23,4.23,0,0,1-.17-.68c-.06-.3,0,.18,0-.12,0-.1,0-.2,0-.3s0-.26,0-.4,0,.13,0-.11.1-.41.16-.62a.78.78,0,0,0,0-.14c0,.1,0,.09,0,0s.09-.18.14-.27a2.41,2.41,0,0,1,.32-.45,2.72,2.72,0,0,1,1-.76l.15-.08.05,0,.32-.1.32-.09.23,0h0a3.72,3.72,0,0,1,1.39.11,1,1,0,1,0,.56-2,5.44,5.44,0,0,0-6.54,3.23,5.56,5.56,0,0,0,2.29,6.42,1,1,0,0,0,1.06-1.81Z"/><path class="cls-3" d="M876.08,426.05c6.07,0,12.73,1.57,17.76,5.1a14.67,14.67,0,0,1,5.69,8.05,43.25,43.25,0,0,1,1.22,10.27c.18,5-1,9.81-1.6,14.78-.78,7.07.47,14.14-.66,21.19a76.24,76.24,0,0,1-7.32,21.81c-.86,1.72,1.72,3.24,2.59,1.51a82.85,82.85,0,0,0,7.18-20.14,48.23,48.23,0,0,0,1.09-11.8,93.93,93.93,0,0,1,0-11.13c.44-5.28,1.88-10.37,1.76-15.7-.16-7.09-.81-14.83-6.44-19.86a26.82,26.82,0,0,0-9.57-5.17,35.75,35.75,0,0,0-11.68-1.91,1.5,1.5,0,0,0,0,3Z"/><path class="cls-3" d="M918.57,394.09c10.38,10-1.75,24.38-10.22,30.78a57.68,57.68,0,0,1-11.26,6.58c-1.76.79-.24,3.37,1.51,2.59a56.55,56.55,0,0,0,17.73-12.27,36.21,36.21,0,0,0,6.65-9.18,22.81,22.81,0,0,0,2.58-9.91A15.31,15.31,0,0,0,920.69,392c-1.4-1.33-3.52.79-2.12,2.12Z"/><path class="cls-3" d="M945,405.91a40.56,40.56,0,0,1-21.06.57c-1.88-.46-2.68,2.44-.8,2.89a43.76,43.76,0,0,0,22.66-.56c1.85-.55,1.06-3.45-.8-2.9Z"/><path class="cls-3" d="M876.5,525.49c-3.56.3-7.41-.88-8.36-4.73-.84-3.43.39-7.79,2-10.82a36,36,0,0,0,4.05-11.34,67.57,67.57,0,0,0,.85-12.63c-.1-5.81-.49-11.87-2.38-17.39-2.66-7.79-2.48-16-2.73-24.11a37.07,37.07,0,0,0-2.21-11.37c-.72-2-1.63-3.92-2.54-5.84a10.45,10.45,0,0,1-1.22-4.42c-.09-4.75,2.66-8.78,5.78-12.11,3.87-4.11,8.07-8,12.19-11.8,6.44-6,13-11.86,19.82-17.47,1.81-1.49,3.63-3,5.47-4.42l.84-.65c.34-.26-.07.05.07-.06l.3-.23,1-.72q6.06-4.53,12.18-9c2.46-1.81,5.13-3.48,7.47-5.44a16.89,16.89,0,0,0,3.88-5.75c3.75-8.08,12.11-13.7,20.73-15.2a31,31,0,0,1,4.81-.41,1.5,1.5,0,0,0,0-3,32.26,32.26,0,0,0-25.23,12.49,22.32,22.32,0,0,0-2.62,4c-.9,1.87-1.82,4-3.36,5.45a35.87,35.87,0,0,1-3.66,2.69l-3.72,2.72-6.75,5a370.7,370.7,0,0,0-28.67,23.66q-6.63,6-13,12.27c-3.42,3.34-7,6.75-9,11.2a14.42,14.42,0,0,0-.16,12.07c1.82,4,3.59,7.94,4.31,12.33.56,3.42.35,6.92.43,10.36a75.78,75.78,0,0,0,1.75,15.16c.66,2.82,1.82,5.46,2.32,8.33a74,74,0,0,1,.86,8.53,76.84,76.84,0,0,1-.23,12,31.81,31.81,0,0,1-3.52,12.52c-3.79,6.58-6,18.44,3.9,20.81a14.08,14.08,0,0,0,4.39.33c1.91-.16,1.93-3.16,0-3Z"/><path class="cls-3" d="M866.87,542.6l6.79-13.23,1-1.85c.88-1.72-1.71-3.24-2.59-1.52l-6.79,13.23-1,1.86c-.88,1.71,1.71,3.23,2.59,1.51Z"/><path class="cls-3" d="M901.9,535.18l-11.28,19.29L889,557.23a1.5,1.5,0,0,0,2.59,1.51l11.28-19.28,1.61-2.77a1.5,1.5,0,0,0-2.59-1.51Z"/><path class="cls-3" d="M889.54,556.69,861,578.25l-4,3.06c-1.52,1.15,0,3.76,1.51,2.59L887,562.34l4-3.06c1.52-1.15,0-3.75-1.52-2.59Z"/><path class="cls-3" d="M859.18,583l6.87-35.72,1-5c.37-1.88-2.52-2.69-2.89-.8l-6.87,35.72-1,5.05c-.37,1.89,2.53,2.69,2.89.8Z"/><path class="cls-3" d="M1019,346.71a185.19,185.19,0,0,0,43.65,8,201.63,201.63,0,0,0,49.95-3.36,191.84,191.84,0,0,0,32.24-9.26c1.78-.69,1-3.59-.8-2.9a191.41,191.41,0,0,1-51.81,12,188.21,188.21,0,0,1-43.8-.95,192.27,192.27,0,0,1-28.64-6.47c-1.84-.57-2.64,2.32-.79,2.89Z"/><path class="cls-3" d="M1186,412.43c-20.46,5.31-40.91,10.74-61.17,16.8a137.17,137.17,0,0,0-15.35,5.07,27.91,27.91,0,0,0-12.3,10.21c-1.85,2.78-2.82,6-4.62,8.78-4.27,6.62-11,11.7-17.4,16.09a186.45,186.45,0,0,1-25.45,14.32,197.41,197.41,0,0,1-24.91,9.95c-8.77,2.77-17.58,5.39-26.39,8-8.1,2.43-15.91,4.48-23.24,9-3.08,1.89-5.89,4.13-8.81,6.24a69,69,0,0,1-11.25,6.69A112.5,112.5,0,0,1,927,532.3a82.68,82.68,0,0,1-12.46,1.32c-2.92.09-5.84.08-8.74.42-4.59.55-8.94,1.9-13.39,3.05-3,.79-6.21,1.28-9-.34a11.24,11.24,0,0,1-4.34-5c-3-6.21,2.49-12.12,6.78-16.08a80.26,80.26,0,0,1,12-8.94c2.48-1.55,5-3,7.6-4.4,1.32-.71,2.66-1.41,4-2.09a22.87,22.87,0,0,1,4.71-2.13c3.25-.77,6.6-1.26,9.87-1.88l4.79-.91c1.37-.25,3.43-.26,4.55-1.12,1.77-1.36,3.31-3.15,5-4.63,2.31-2,4.72-3.91,7.1-5.84a95.82,95.82,0,0,1,12.7-8.94c2.93-1.66,6-3.07,8.9-4.77a37.26,37.26,0,0,0,8.28-6.62,53.71,53.71,0,0,0,7.69-9.88,29,29,0,0,0,0-28.73A35.46,35.46,0,0,0,978,417.9c-1.32-1.42-3.44.7-2.13,2.12,5.54,6,8.86,14.31,7.81,22.49a28.34,28.34,0,0,1-6,13.56,51.73,51.73,0,0,1-8.06,8.54,46.19,46.19,0,0,1-8.13,5,94.07,94.07,0,0,0-10.29,6A159.78,159.78,0,0,0,937,486.76q-1.43,1.25-2.82,2.52a25.13,25.13,0,0,1-2.43,2.3c-.93.63-2.84.65-4,.88l-5.08,1-4.79.91a39.58,39.58,0,0,0-5.08,1,31.44,31.44,0,0,0-4.06,1.94q-2.28,1.14-4.53,2.34a118.84,118.84,0,0,0-14.25,8.86,57,57,0,0,0-9.83,8.78c-2.09,2.46-4.06,5.32-4.74,8.53a12,12,0,0,0,1.92,9,12.49,12.49,0,0,0,13.26,5.83c4.89-.8,9.53-2.7,14.45-3.42a72.6,72.6,0,0,1,8.85-.51,100.59,100.59,0,0,0,23.63-3.57c10.12-2.71,20.26-6.5,28.91-12.52,2.93-2,5.7-4.31,8.69-6.28a59.75,59.75,0,0,1,12.16-6.06c1.39-.52,2.82-.91,4.25-1.33,6.86-2,13.71-4.1,20.55-6.18,8.35-2.55,16.71-5,24.83-8.18a229.12,229.12,0,0,0,26.37-12.35,131.69,131.69,0,0,0,22.94-15.45,52.07,52.07,0,0,0,7.87-8.32c1.86-2.52,2.89-5.3,4.34-8a25.19,25.19,0,0,1,11.91-11.18,61.76,61.76,0,0,1,6.76-2.42c16.9-5.44,34.11-10,51.27-14.59q9.23-2.46,18.48-4.86a1.5,1.5,0,0,0-.8-2.89Z"/></g></svg>
