<svg xmlns="http://www.w3.org/2000/svg" viewBox="0 0 1920 1080"><defs><style>.cls-1{fill:#999b54;}.cls-2{fill:#6b6f35;}.cls-3,.cls-4{fill:#fff;}.cls-3{stroke:#fff;stroke-miterlimit:10;}</style></defs><title>mobile_web</title><g id="Layer_2" data-name="Layer 2"><rect class="cls-1" x="-0.47" y="1.94" width="1920" height="1080"/><path class="cls-2" d="M1197.15,485.53c0,132.81-107.66,240.47-240.47,240.47-77.84,0-134.86-40.29-150.71-53.07-6.09-4.92-91.9-76.46-89.76-187.4,2.22-115.3,98.81-240.47,240.47-240.47C1089.49,245.06,1197.15,352.72,1197.15,485.53Z"/><circle class="cls-3" cx="759.52" cy="408.72" r="4.63"/><circle class="cls-3" cx="780.36" cy="544.13" r="4.63"/><circle class="cls-3" cx="765.11" cy="544.57" r="4.63"/><circle class="cls-3" cx="745.44" cy="544.57" r="4.63"/><path class="cls-4" d="M746,546.07H764a1.5,1.5,0,0,0,0-3H746a1.5,1.5,0,0,0,0,3Z"/><circle class="cls-3" cx="760.48" cy="424.2" r="4.63"/><circle class="cls-3" cx="776.88" cy="378.63" r="4.63"/><circle class="cls-3" cx="776.88" cy="393.68" r="4.63"/><circle class="cls-3" cx="776.88" cy="423.77" r="4.63"/><circle class="cls-3" cx="779.2" cy="483.95" r="4.63"/><circle class="cls-3" cx="753.74" cy="514.04" r="4.63"/><circle class="cls-3" cx="753.74" cy="529.09" r="4.63"/><circle class="cls-3" cx="779.2" cy="499" r="4.63"/><circle class="cls-3" cx="780.36" cy="559.18" r="4.63"/><circle class="cls-3" cx="740.81" cy="424.2" r="4.63"/><path class="cls-4" d="M741.39,425.7h17.94a1.5,1.5,0,0,0,0-3H741.39a1.5,1.5,0,0,0,0,3Z"/><line class="cls-4" x1="755.6" y1="483.37" x2="768.96" y2="470.01"/><path class="cls-4" d="M756.66,484.43l11.7-11.7,1.67-1.66A1.5,1.5,0,0,0,767.9,469l-11.69,11.69-1.67,1.67a1.5,1.5,0,0,0,2.12,2.12Z"/><line class="cls-4" x1="755.6" y1="468.32" x2="768.96" y2="454.96"/><path class="cls-4" d="M756.66,469.39l11.7-11.7L770,456a1.5,1.5,0,0,0-2.13-2.12l-11.69,11.7-1.67,1.66a1.5,1.5,0,0,0,2.12,2.13Z"/><line class="cls-4" x1="755.6" y1="453.28" x2="768.96" y2="439.92"/><path class="cls-4" d="M756.66,454.34l11.7-11.7L770,441a1.5,1.5,0,0,0-2.13-2.12l-11.69,11.69-1.67,1.67a1.5,1.5,0,0,0,2.12,2.12Z"/><circle class="cls-3" cx="741.03" cy="468.8" r="4.63"/><circle class="cls-3" cx="741.03" cy="453.76" r="4.63"/><circle class="cls-3" cx="741.03" cy="483.85" r="4.63"/><line class="cls-4" x1="800.64" y1="468.8" x2="769.94" y2="468.91"/><path class="cls-4" d="M800.64,467.3l-26.84.09-3.86,0a1.5,1.5,0,0,0,0,3l26.84-.09,3.86,0a1.5,1.5,0,0,0,0-3Z"/><line class="cls-4" x1="755.5" y1="453.76" x2="745.66" y2="453.76"/><path class="cls-4" d="M755.5,452.26h-9.84a1.5,1.5,0,0,0,0,3h9.84a1.5,1.5,0,0,0,0-3Z"/><line class="cls-4" x1="755.5" y1="468.8" x2="745.66" y2="468.8"/><path class="cls-4" d="M755.5,467.3h-9.84a1.5,1.5,0,0,0,0,3h9.84a1.5,1.5,0,0,0,0-3Z"/><line class="cls-4" x1="755.5" y1="483.85" x2="745.66" y2="483.85"/><path class="cls-4" d="M755.5,482.35h-9.84a1.5,1.5,0,0,0,0,3h9.84a1.5,1.5,0,0,0,0-3Z"/><line class="cls-4" x1="800.64" y1="438.71" x2="769.94" y2="438.81"/><path class="cls-4" d="M800.64,437.21l-26.84.09h-3.86a1.5,1.5,0,0,0,0,3l26.84-.09h3.86a1.5,1.5,0,0,0,0-3Z"/><line class="cls-4" x1="800.64" y1="453.76" x2="769.94" y2="453.86"/><path class="cls-4" d="M800.64,452.26l-26.84.09h-3.86a1.5,1.5,0,0,0,0,3l26.84-.09h3.86a1.5,1.5,0,0,0,0-3Z"/><line class="cls-4" x1="1063.45" y1="634.84" x2="1050.09" y2="648.21"/><path class="cls-4" d="M1062.39,633.78l-11.7,11.7-1.66,1.66a1.5,1.5,0,0,0,2.12,2.13l11.69-11.7,1.67-1.67a1.5,1.5,0,0,0-2.12-2.12Z"/><line class="cls-4" x1="1046.05" y1="634.87" x2="1032.69" y2="648.23"/><path class="cls-4" d="M1045,633.81l-11.7,11.7-1.66,1.66a1.5,1.5,0,0,0,2.12,2.13l11.7-11.7,1.66-1.67a1.5,1.5,0,0,0-2.12-2.12Z"/><line class="cls-4" x1="1162.76" y1="500.63" x2="1149.4" y2="513.99"/><path class="cls-4" d="M1161.7,499.57,1150,511.27l-1.67,1.66a1.5,1.5,0,0,0,2.12,2.12l11.7-11.69,1.66-1.67a1.5,1.5,0,0,0-2.12-2.12Z"/><line class="cls-4" x1="1162.76" y1="515.68" x2="1149.4" y2="529.04"/><path class="cls-4" d="M1161.7,514.62,1150,526.31l-1.67,1.67a1.5,1.5,0,0,0,2.12,2.12l11.7-11.7,1.66-1.66a1.5,1.5,0,0,0-2.12-2.12Z"/><line class="cls-4" x1="1162.76" y1="530.72" x2="1149.4" y2="544.09"/><path class="cls-4" d="M1161.7,529.66,1150,541.36l-1.67,1.67a1.5,1.5,0,0,0,2.12,2.12l11.7-11.7,1.66-1.67a1.5,1.5,0,0,0-2.12-2.12Z"/><circle class="cls-3" cx="1025.72" cy="277.94" r="4.63"/><circle class="cls-3" cx="1060.44" cy="338.12" r="4.63"/><circle class="cls-3" cx="1164.6" cy="438.81" r="4.63"/><circle class="cls-3" cx="1164.6" cy="453.86" r="4.63"/><circle class="cls-3" cx="1168.07" cy="423.77" r="4.63"/><circle class="cls-3" cx="1148.4" cy="423.77" r="4.63"/><circle class="cls-3" cx="1133.35" cy="378.63" r="4.63"/><circle class="cls-3" cx="1133.35" cy="393.68" r="4.63"/><circle class="cls-3" cx="1133.35" cy="408.72" r="4.63"/><circle class="cls-3" cx="1132.19" cy="468.91" r="4.63"/><circle class="cls-3" cx="1132.19" cy="483.95" r="4.63"/><circle class="cls-3" cx="1132.19" cy="499" r="4.63"/><circle class="cls-3" cx="1132.19" cy="559.18" r="4.63"/><circle class="cls-3" cx="1078.96" cy="633.25" r="4.63"/><circle class="cls-3" cx="1050.02" cy="665.66" r="4.63"/><circle class="cls-3" cx="1032.66" cy="666.81" r="4.63"/><circle class="cls-3" cx="1011.83" cy="593.9" r="4.63"/><circle class="cls-3" cx="907.67" cy="593.9" r="4.63"/><circle class="cls-3" cx="890.31" cy="593.9" r="4.63"/><circle class="cls-3" cx="872.95" cy="593.9" r="4.63"/><circle class="cls-3" cx="838.22" cy="623.99" r="4.63"/><circle class="cls-3" cx="820.86" cy="623.99" r="4.63"/><circle class="cls-3" cx="855.22" cy="642.06" r="4.63"/><circle class="cls-3" cx="855.22" cy="669.83" r="4.63"/><path class="cls-4" d="M853.72,646.11v20.83a1.5,1.5,0,0,0,3,0V646.11a1.5,1.5,0,0,0-3,0Z"/><circle class="cls-3" cx="872.95" cy="613.58" r="4.63"/><circle class="cls-3" cx="855.58" cy="623.99" r="4.63"/><circle class="cls-3" cx="872.95" cy="641.35" r="4.63"/><circle class="cls-3" cx="1029.19" cy="593.9" r="4.63"/><circle class="cls-3" cx="1094" cy="642.51" r="4.63"/><circle class="cls-3" cx="1094" cy="614.73" r="4.63"/><circle class="cls-3" cx="1094" cy="597.37" r="4.63"/><circle class="cls-3" cx="1177.33" cy="515.2" r="4.63"/><circle class="cls-3" cx="1177.33" cy="530.25" r="4.63"/><circle class="cls-3" cx="1177.33" cy="500.15" r="4.63"/><circle class="cls-3" cx="1133.35" cy="423.77" r="4.63"/><circle class="cls-3" cx="1090.53" cy="338.12" r="4.63"/><circle class="cls-3" cx="1075.48" cy="338.12" r="4.63"/><circle class="cls-3" cx="1025.72" cy="330.02" r="4.63"/><circle class="cls-3" cx="973.64" cy="338.12" r="4.63"/><circle class="cls-3" cx="956.28" cy="338.12" r="4.63"/><circle class="cls-3" cx="834.75" cy="338.12" r="4.63"/><circle class="cls-3" cx="817.39" cy="338.12" r="4.63"/><circle class="cls-3" cx="886.83" cy="338.12" r="4.63"/><circle class="cls-3" cx="869.47" cy="298.77" r="4.63"/><circle class="cls-3" cx="852.11" cy="298.77" r="4.63"/><circle class="cls-3" cx="1008.36" cy="277.94" r="4.63"/><circle class="cls-3" cx="991" cy="277.94" r="4.63"/><circle class="cls-3" cx="921.55" cy="275.63" r="4.63"/><circle class="cls-3" cx="886.83" cy="275.63" r="4.63"/><circle class="cls-3" cx="904.19" cy="275.63" r="4.63"/><line class="cls-4" x1="886.84" y1="292.82" x2="904.2" y2="312.5"/><path class="cls-4" d="M885.78,293.88,901,311.14l2.13,2.42c1.28,1.45,3.39-.68,2.12-2.12L890,294.18l-2.13-2.42c-1.28-1.45-3.4.68-2.12,2.12Z"/><line class="cls-4" x1="904.2" y1="292.82" x2="921.56" y2="312.5"/><path class="cls-4" d="M903.14,293.88l15.23,17.26,2.13,2.42c1.28,1.45,3.39-.68,2.12-2.12l-15.23-17.26-2.13-2.42c-1.28-1.45-3.4.68-2.12,2.12Z"/><line class="cls-4" x1="921.56" y1="292.82" x2="938.92" y2="312.5"/><path class="cls-4" d="M920.5,293.88l15.23,17.26,2.13,2.42c1.28,1.45,3.39-.68,2.12-2.12l-15.23-17.26-2.13-2.42c-1.28-1.45-3.4.68-2.12,2.12Z"/><line class="cls-4" x1="1025.72" y1="302.25" x2="1043.08" y2="321.92"/><path class="cls-4" d="M1024.66,303.31l15.23,17.26L1042,323c1.28,1.45,3.39-.68,2.12-2.12l-15.23-17.26-2.13-2.42c-1.28-1.45-3.4.68-2.12,2.13Z"/><path class="cls-4" d="M753.74,515.54h48a1.5,1.5,0,0,0,0-3h-48a1.5,1.5,0,0,0,0,3Z"/><path class="cls-4" d="M780.93,560.68h20.84a1.5,1.5,0,0,0,0-3H780.93a1.5,1.5,0,0,0,0,3Z"/><path class="cls-4" d="M780.93,545.63h20.84a1.5,1.5,0,0,0,0-3H780.93a1.5,1.5,0,0,0,0,3Z"/><path class="cls-4" d="M753.74,530.59h48a1.5,1.5,0,0,0,0-3h-48a1.5,1.5,0,0,0,0,3Z"/><path class="cls-4" d="M780.93,500.5h20.84a1.5,1.5,0,0,0,0-3H780.93a1.5,1.5,0,0,0,0,3Z"/><path class="cls-4" d="M780.93,485.45h20.84a1.5,1.5,0,0,0,0-3H780.93a1.5,1.5,0,0,0,0,3Z"/><path class="cls-4" d="M780.93,425.27h20.84a1.5,1.5,0,0,0,0-3H780.93a1.5,1.5,0,0,0,0,3Z"/><path class="cls-4" d="M760.68,410.22h41.09a1.5,1.5,0,0,0,0-3H760.68a1.5,1.5,0,0,0,0,3Z"/><path class="cls-4" d="M780.93,395.18h20.84a1.5,1.5,0,0,0,0-3H780.93a1.5,1.5,0,0,0,0,3Z"/><path class="cls-4" d="M780.36,380.13h20.83a1.5,1.5,0,0,0,0-3H780.36a1.5,1.5,0,0,0,0,3Z"/><path class="cls-4" d="M1110.78,515.54h37.62a1.5,1.5,0,0,0,0-3h-37.62a1.5,1.5,0,0,0,0,3Z"/><path class="cls-4" d="M1162.86,531.75h9.84a1.5,1.5,0,0,0,0-3h-9.84a1.5,1.5,0,0,0,0,3Z"/><path class="cls-4" d="M1162.86,516.7h9.84a1.5,1.5,0,0,0,0-3h-9.84a1.5,1.5,0,0,0,0,3Z"/><path class="cls-4" d="M1162.86,501.65h9.84a1.5,1.5,0,0,0,0-3h-9.84a1.5,1.5,0,0,0,0,3Z"/><path class="cls-4" d="M1110.78,560.68h20.84a1.5,1.5,0,0,0,0-3h-20.84a1.5,1.5,0,0,0,0,3Z"/><path class="cls-4" d="M1110.78,545.63h37.62a1.5,1.5,0,0,0,0-3h-37.62a1.5,1.5,0,0,0,0,3Z"/><path class="cls-4" d="M1110.78,530.59h37.62a1.5,1.5,0,0,0,0-3h-37.62a1.5,1.5,0,0,0,0,3Z"/><path class="cls-4" d="M1110.78,500.5h20.84a1.5,1.5,0,0,0,0-3h-20.84a1.5,1.5,0,0,0,0,3Z"/><path class="cls-4" d="M1110.78,485.45h20.84a1.5,1.5,0,0,0,0-3h-20.84a1.5,1.5,0,0,0,0,3Z"/><path class="cls-4" d="M1110.78,470.41h20.84a1.5,1.5,0,0,0,0-3h-20.84a1.5,1.5,0,0,0,0,3Z"/><path class="cls-4" d="M1110.78,455.36h52.66a1.5,1.5,0,0,0,0-3h-52.66a1.5,1.5,0,0,0,0,3Z"/><path class="cls-4" d="M1110.78,440.31h52.66a1.5,1.5,0,0,0,0-3h-52.66a1.5,1.5,0,0,0,0,3Z"/><path class="cls-4" d="M1110.78,425.27h20.84a1.5,1.5,0,0,0,0-3h-20.84a1.5,1.5,0,0,0,0,3Z"/><path class="cls-4" d="M1110.78,410.22h20.84a1.5,1.5,0,0,0,0-3h-20.84a1.5,1.5,0,0,0,0,3Z"/><path class="cls-4" d="M1149,425.27h17.94a1.5,1.5,0,0,0,0-3H1149a1.5,1.5,0,0,0,0,3Z"/><path class="cls-4" d="M1110.78,395.18h20.84a1.5,1.5,0,0,0,0-3h-20.84a1.5,1.5,0,0,0,0,3Z"/><path class="cls-4" d="M1092.5,573.65v20.83a1.5,1.5,0,0,0,3,0V573.65a1.5,1.5,0,0,0-3,0Z"/><path class="cls-4" d="M1077.46,573.65v60.76a1.5,1.5,0,0,0,3,0V573.65a1.5,1.5,0,0,0-3,0Z"/><path class="cls-4" d="M1062.41,573.65v60.76a1.5,1.5,0,0,0,3,0V573.65a1.5,1.5,0,0,0-3,0Z"/><path class="cls-4" d="M1045.05,573.65v60.76a1.5,1.5,0,0,0,3,0V573.65a1.5,1.5,0,0,0-3,0Z"/><path class="cls-4" d="M1027.69,573.65v20.83a1.5,1.5,0,0,0,3,0V573.65a1.5,1.5,0,0,0-3,0Z"/><path class="cls-4" d="M1010.33,573.65v20.83a1.5,1.5,0,0,0,3,0V573.65a1.5,1.5,0,0,0-3,0Z"/><path class="cls-4" d="M906.17,573.65v20.83a1.5,1.5,0,0,0,3,0V573.65a1.5,1.5,0,0,0-3,0Z"/><path class="cls-4" d="M888.81,573.65v20.83a1.5,1.5,0,0,0,3,0V573.65a1.5,1.5,0,0,0-3,0Z"/><path class="cls-4" d="M871.45,573.65v20.83a1.5,1.5,0,0,0,3,0V573.65a1.5,1.5,0,0,0-3,0Z"/><path class="cls-4" d="M871.45,617.63v20.83a1.5,1.5,0,0,0,3,0V617.63a1.5,1.5,0,0,0-3,0Z"/><path class="cls-4" d="M1048.52,648.88v13.31a1.5,1.5,0,0,0,3,0V648.88a1.5,1.5,0,0,0-3,0Z"/><path class="cls-4" d="M1031.16,648.88v13.31a1.5,1.5,0,0,0,3,0V648.88a1.5,1.5,0,0,0-3,0Z"/><path class="cls-4" d="M1092.5,617.63v20.83a1.5,1.5,0,0,0,3,0V617.63a1.5,1.5,0,0,0-3,0Z"/><path class="cls-4" d="M854.08,573.65v49.18a1.5,1.5,0,0,0,3,0V573.65a1.5,1.5,0,0,0-3,0Z"/><path class="cls-4" d="M836.72,573.65v49.18a1.5,1.5,0,0,0,3,0V573.65a1.5,1.5,0,0,0-3,0Z"/><path class="cls-4" d="M819.36,573.65v49.18a1.5,1.5,0,0,0,3,0V573.65a1.5,1.5,0,0,0-3,0Z"/><path class="cls-4" d="M1089,342.17V363a1.5,1.5,0,0,0,3,0V342.17a1.5,1.5,0,0,0-3,0Z"/><path class="cls-4" d="M1074,342.17V363a1.5,1.5,0,0,0,3,0V342.17a1.5,1.5,0,0,0-3,0Z"/><path class="cls-4" d="M1058.94,342.17V363a1.5,1.5,0,0,0,3,0V342.17a1.5,1.5,0,0,0-3,0Z"/><path class="cls-4" d="M1041.58,321.92V363a1.5,1.5,0,0,0,3,0V321.92a1.5,1.5,0,0,0-3,0Z"/><path class="cls-4" d="M1024.22,333.49V363a1.5,1.5,0,0,0,3,0V333.49a1.5,1.5,0,0,0-3,0Z"/><path class="cls-4" d="M1024.22,281.41v20.26a1.5,1.5,0,0,0,3,0V281.41a1.5,1.5,0,0,0-3,0Z"/><path class="cls-4" d="M1006.86,281.41V363a1.5,1.5,0,0,0,3,0v-81.6a1.5,1.5,0,0,0-3,0Z"/><path class="cls-4" d="M989.5,281.41V363a1.5,1.5,0,0,0,3,0v-81.6a1.5,1.5,0,0,0-3,0Z"/><path class="cls-4" d="M972.14,342.17V363a1.5,1.5,0,0,0,3,0V342.17a1.5,1.5,0,0,0-3,0Z"/><path class="cls-4" d="M954.78,342.17V363a1.5,1.5,0,0,0,3,0V342.17a1.5,1.5,0,0,0-3,0Z"/><path class="cls-4" d="M937.41,312.66V363a1.5,1.5,0,0,0,3,0V312.66a1.5,1.5,0,0,0-3,0Z"/><path class="cls-4" d="M920.05,312.66V363a1.5,1.5,0,0,0,3,0V312.66a1.5,1.5,0,0,0-3,0Z"/><path class="cls-4" d="M902.69,312.66V363a1.5,1.5,0,0,0,3,0V312.66a1.5,1.5,0,0,0-3,0Z"/><path class="cls-4" d="M885.33,279.68V293a1.5,1.5,0,0,0,3,0V279.68a1.5,1.5,0,0,0-3,0Z"/><path class="cls-4" d="M902.69,279.68V293a1.5,1.5,0,0,0,3,0V279.68a1.5,1.5,0,0,0-3,0Z"/><path class="cls-4" d="M920.05,279.68V293a1.5,1.5,0,0,0,3,0V279.68a1.5,1.5,0,0,0-3,0Z"/><path class="cls-4" d="M885.33,342.17V363a1.5,1.5,0,0,0,3,0V342.17a1.5,1.5,0,0,0-3,0Z"/><path class="cls-4" d="M868,302.25V363a1.5,1.5,0,0,0,3,0V302.25a1.5,1.5,0,0,0-3,0Z"/><path class="cls-4" d="M850.61,302.25V363a1.5,1.5,0,0,0,3,0V302.25a1.5,1.5,0,0,0-3,0Z"/><path class="cls-4" d="M833.25,342.17V363a1.5,1.5,0,0,0,3,0V342.17a1.5,1.5,0,0,0-3,0Z"/><path class="cls-4" d="M815.89,342.17V363a1.5,1.5,0,0,0,3,0V342.17a1.5,1.5,0,0,0-3,0Z"/><path class="cls-4" d="M1110.2,380.13H1131a1.5,1.5,0,0,0,0-3H1110.2a1.5,1.5,0,0,0,0,3Z"/><line class="cls-3" x1="802.35" y1="446.92" x2="802.35" y2="511.73"/><path class="cls-4" d="M1022.24,613.58H890.31v-6.72a4.86,4.86,0,0,1,4.85-4.86h122.23a4.86,4.86,0,0,1,4.85,4.86Z"/><path class="cls-4" d="M1022.24,612.08H895.65a43.73,43.73,0,0,0-5.12,0h-.22l1.5,1.5a66.69,66.69,0,0,1,0-7.07,3.49,3.49,0,0,1,3.76-3h121.8a3.41,3.41,0,0,1,3.36,3.36c0,1.16,0,2.32,0,3.48v3.24a1.5,1.5,0,0,0,3,0,70.43,70.43,0,0,0,0-7.41,6.46,6.46,0,0,0-6.48-5.67c-2.05,0-4.09,0-6.14,0H896a8.46,8.46,0,0,0-2.91.35,6.43,6.43,0,0,0-4.28,5.66c-.08,1.19,0,2.4,0,3.58v3.49a1.52,1.52,0,0,0,1.5,1.5H1006c5.32,0,10.68.19,16,0h.22A1.5,1.5,0,0,0,1022.24,612.08Z"/><path class="cls-4" d="M987.18,573.65V602a1.5,1.5,0,0,0,3,0V573.65a1.5,1.5,0,0,0-3,0Z"/><path class="cls-4" d="M924.68,573.65V602a1.5,1.5,0,0,0,3,0V573.65a1.5,1.5,0,0,0-3,0Z"/><path class="cls-4" d="M1083.91,531.47h-252c-2.17,0-4.52.19-6.62-.46a9.91,9.91,0,0,1-6.82-9.5V397.77c0-2.95,0-5.9,0-8.85a9.89,9.89,0,0,1,9.76-9.77h254.93a11.5,11.5,0,0,1,4.38.69,10,10,0,0,1,6.11,9.32c0,3.49,0,7,0,10.47V519.27c0,.8,0,1.61,0,2.41a9.89,9.89,0,0,1-9.75,9.79c-2.89,0-2.9,4.54,0,4.5a14.45,14.45,0,0,0,14.17-12.91,29.39,29.39,0,0,0,.08-3.25V399.87c0-3.57,0-7.14,0-10.71a14.5,14.5,0,0,0-14.66-14.51H829.31c-.62,0-1.23,0-1.85,0A14.45,14.45,0,0,0,814,388.32c-.14,2.82,0,5.68,0,8.51V521.51a14.57,14.57,0,0,0,6.76,12.32c3.3,2.07,6.8,2.14,10.48,2.14h252.69C1086.81,536,1086.81,531.47,1083.91,531.47Z"/><path class="cls-4" d="M1098.29,571.27H819.71a47.21,47.21,0,0,1-6.73-.1,10.38,10.38,0,0,1-8.75-10.4c0-1.23,0-2.47,0-3.7V386.22c0-3.49,0-7,0-10.47a10.35,10.35,0,0,1,10.2-10.36h282.66a15.16,15.16,0,0,1,3.43.24,10.41,10.41,0,0,1,8,10.31c0,3.82,0,7.64,0,11.45V557.77c0,1,0,2.08,0,3.13a10.36,10.36,0,0,1-10.2,10.37c-2.32,0-2.32,3.64,0,3.6a14,14,0,0,0,13.8-13.83c0-.9,0-1.81,0-2.71v-171c0-3.8,0-7.61,0-11.41a14.05,14.05,0,0,0-7.68-12.67,15.49,15.49,0,0,0-6.93-1.44H815.79c-.74,0-1.48,0-2.21,0a14,14,0,0,0-13,13.81c0,3.23,0,6.46,0,9.69V557.16c0,1.22,0,2.44,0,3.65a14,14,0,0,0,8.42,12.94c3.18,1.36,6.54,1.12,9.9,1.12h279.34A1.8,1.8,0,0,0,1098.29,571.27Z"/><path class="cls-4" d="M1192.69,485.27a236.36,236.36,0,0,1-170.41,226.94,235.47,235.47,0,0,1-80.9,8.79,238.52,238.52,0,0,1-82.77-21.29,250.54,250.54,0,0,1-47.77-28.39c-.56-.42.76.6-.17-.12l-.7-.56c-.41-.32-.83-.65-1.24-1l-.94-.77c-1.14-1-2.27-1.93-3.38-2.92-4-3.58-7.93-7.32-11.71-11.18a272.26,272.26,0,0,1-33.5-41.55,243.22,243.22,0,0,1-30.57-65.29,211.33,211.33,0,0,1-7.36-80,239.17,239.17,0,0,1,17.79-68.66,257.34,257.34,0,0,1,38.33-63.48,246.24,246.24,0,0,1,56-50.28A226.27,226.27,0,0,1,904.55,255a234.55,234.55,0,0,1,154.11,17.23,235.66,235.66,0,0,1,134,213.06c0,5.79,9,5.8,9,0A244,244,0,0,0,1151.75,337a249.36,249.36,0,0,0-56.2-53.7,244.22,244.22,0,0,0-151.94-42.9,235,235,0,0,0-80.89,19.11,242.5,242.5,0,0,0-65.94,42.87,265.89,265.89,0,0,0-78,129,227.5,227.5,0,0,0-6.68,77.28,231,231,0,0,0,22.21,78.89,275.39,275.39,0,0,0,36.09,55.88,256.59,256.59,0,0,0,28,29.26,197.24,197.24,0,0,0,27.81,20.05,262.74,262.74,0,0,0,69.46,29.79,239.76,239.76,0,0,0,90.94,6.15A245.42,245.42,0,0,0,1173.26,600a243.12,243.12,0,0,0,25.18-74.85,252.12,252.12,0,0,0,3.25-39.85C1201.7,479.48,1192.7,479.47,1192.69,485.27Z"/></g></svg>
