<svg xmlns="http://www.w3.org/2000/svg" viewBox="0 0 1920 1080"><defs><style>.cls-1{fill:#ceaa72;}.cls-2{fill:#c2913b;}.cls-3{opacity:0.22;}.cls-4,.cls-5{fill:#fff;}.cls-5{stroke:#fff;stroke-miterlimit:10;stroke-width:1.5px;}</style></defs><title>mobile_indhold</title><g id="Layer_2" data-name="Layer 2"><rect class="cls-1" x="0.5" y="0.5" width="1920" height="1080"/><path class="cls-2" d="M1198.42,484.72c0,130.45-105.75,236.21-236.21,236.21-76.47,0-132.48-39.58-148-52.13-6-4.83-90.28-75.11-88.17-184.08,2.18-113.26,97.06-236.22,236.21-236.22C1092.67,248.5,1198.42,354.26,1198.42,484.72Z"/><g class="cls-3"><path class="cls-4" d="M1100,477.94l88.76-58a254.3,254.3,0,0,1-25,191.17l-62.58-36.42Z"/><path class="cls-4" d="M1100.79,479.24,1170,434l19.59-12.81-2.21-.89a256.5,256.5,0,0,1,6,30.1,253.44,253.44,0,0,1,2.28,40.93,250.57,250.57,0,0,1-5.74,47.57,252.85,252.85,0,0,1-25.83,68.53l-1.62,2.88,2-.54-48.77-28.37-13.82-8,.75,1.29q-.45-37.63-.89-75.28-.12-10.72-.25-21.44a1.5,1.5,0,0,0-3,0q.39,33.4.79,66.81.09,8.22.19,16.45l.1,8.48.05,4a3.45,3.45,0,0,0,.21,1.75,4.73,4.73,0,0,0,1.84,1.29l28.7,16.7,32.59,19a1.52,1.52,0,0,0,2-.53,260.18,260.18,0,0,0,13.77-28,255.09,255.09,0,0,0,18.09-129.2,259.09,259.09,0,0,0-5.87-32c-.26-1-.53-2.1-.81-3.14a1.51,1.51,0,0,0-2.2-.9l-69.17,45.23-19.59,12.81C1097.66,477.7,1099.16,480.3,1100.79,479.24Z"/></g><path class="cls-4" d="M883.46,628.15v83.07a1.5,1.5,0,0,0,3,0V628.15a1.5,1.5,0,0,0-3,0Z"/><path class="cls-4" d="M949.46,630.42v82.79c0,3.82-.17,7.68,0,11.49v.17a1.5,1.5,0,0,0,3,0V642.08c0-3.81.17-7.67,0-11.49v-.17a1.5,1.5,0,0,0-3,0Z"/><path class="cls-4" d="M1193.79,488a231.36,231.36,0,0,1-47.51,140.8,231.74,231.74,0,0,1-199.51,90.9,234.54,234.54,0,0,1-81.34-20.92,246.72,246.72,0,0,1-47-27.91c-.56-.42.77.61-.15-.12l-.69-.54-1.22-1-.92-.76q-1.68-1.41-3.33-2.87c-4-3.52-7.79-7.2-11.5-11a266.11,266.11,0,0,1-32.93-40.85,238.63,238.63,0,0,1-30.05-64.16,207.93,207.93,0,0,1-7.24-78.69,235,235,0,0,1,17.49-67.46,252.75,252.75,0,0,1,37.67-62.4,241.93,241.93,0,0,1,55-49.43,222.9,222.9,0,0,1,70-30,230.44,230.44,0,0,1,151.47,16.94A231.65,231.65,0,0,1,1193.79,488c0,5.79,9,5.8,9,0a239.93,239.93,0,0,0-49.11-145.83,245.13,245.13,0,0,0-55.29-52.82A240.08,240.08,0,0,0,949,247.18,231.07,231.07,0,0,0,869.39,266a238.51,238.51,0,0,0-64.84,42.16A261.41,261.41,0,0,0,727.81,435a223.33,223.33,0,0,0-6.57,76,227.37,227.37,0,0,0,21.84,77.61,271.81,271.81,0,0,0,35.5,54.95,251.43,251.43,0,0,0,27.56,28.77A193.59,193.59,0,0,0,833.5,692a258.26,258.26,0,0,0,68.31,29.3,235.51,235.51,0,0,0,89.43,6,241.45,241.45,0,0,0,183.59-126.53,239.26,239.26,0,0,0,24.76-73.61,248.77,248.77,0,0,0,3.2-39.21C1202.8,482.23,1193.8,482.22,1193.79,488Z"/><path class="cls-4" d="M988.49,430.41a55.61,55.61,0,0,1-16.13,39.16c-9.09,9.34-21.53,16.37-34.57,17.84a47.76,47.76,0,0,1-25.84-4.6v3.89a80.24,80.24,0,0,0,24.65-28.09,60.43,60.43,0,0,0,7-29.53,69.61,69.61,0,0,0-8.72-30.76,74.08,74.08,0,0,0-20.58-23.75v3.89a46.51,46.51,0,0,1,22.55-3.68,52.29,52.29,0,0,1,17.39,4.94,61.52,61.52,0,0,1,28.5,27.42,53.32,53.32,0,0,1,5.71,23.27c0,2.9,4.54,2.91,4.5,0a60.18,60.18,0,0,0-17.5-41c-9.63-9.84-22.56-17-36.28-18.84a51.28,51.28,0,0,0-27.14,4c-1.74.74-1.17,3,0,3.89,14.48,10.94,25,28.43,26.82,46.71a55.12,55.12,0,0,1-5,28.89,73.49,73.49,0,0,1-13.54,19.4,86.52,86.52,0,0,1-7.06,6.61c-.44.36-.88.72-1.33,1.07-.2.17-.4.32-.61.48s.44-.33.09-.06l-.26.2c-.48.35-1,.71-1.45,1.05-1.25.89-1.65,3.1,0,3.89a52.73,52.73,0,0,0,25.49,5.43A56.86,56.86,0,0,0,955.28,487,65.58,65.58,0,0,0,987,456.6a58.37,58.37,0,0,0,6-26.19C993,427.52,988.46,427.51,988.49,430.41Z"/><path class="cls-4" d="M1038.23,495.17h-16a2.25,2.25,0,0,0,0,4.5h16a2.25,2.25,0,0,0,0-4.5Z"/><path class="cls-4" d="M1037.51,554.65h-16a2.25,2.25,0,0,0,0,4.5h16a2.25,2.25,0,0,0,0-4.5Z"/><path class="cls-4" d="M966.5,602.6v-16a2.25,2.25,0,1,0-4.5,0v16a2.25,2.25,0,0,0,4.5,0Z"/><path class="cls-4" d="M878,602.6v-16a2.25,2.25,0,1,0-4.5,0v16a2.25,2.25,0,0,0,4.5,0Z"/><path class="cls-4" d="M869.22,604.85H970.77l-2.25-2.25c0,5-.08,10,0,15,.06,3.4-3,6.57-5.82,8a7,7,0,0,1-3.33.88h-75c-1.93,0-4,.3-5.85-.34a11,11,0,0,1-7-7.71,15.88,15.88,0,0,1,0-2.85v-13c0-2.89-4.5-2.9-4.5,0v12a34.1,34.1,0,0,0,0,4.29c.47,3.57,3,7.06,5.78,9.19a15.86,15.86,0,0,0,5.32,2.67,11.91,11.91,0,0,0,3.26.25h77a12.36,12.36,0,0,0,5.09-.82,15.77,15.77,0,0,0,9.23-10.07,11.85,11.85,0,0,0,.32-3.51v-14a2.29,2.29,0,0,0-2.25-2.25H869.22C866.33,600.35,866.32,604.85,869.22,604.85Z"/><rect class="cls-2" x="815.54" y="467.68" width="206.01" height="118.96" rx="12"/><path class="cls-4" d="M1009.55,585.14H827.66A10.54,10.54,0,0,1,817,574.32V484.41c0-2.59-.28-5.49.52-8a10.65,10.65,0,0,1,10-7.24h181.91a10.68,10.68,0,0,1,10.59,10.88c0,8.3,0,16.61,0,24.91v68.81a13.27,13.27,0,0,1-.42,3.81,10.63,10.63,0,0,1-10.08,7.55c-1.93,0-1.93,3,0,3a13.74,13.74,0,0,0,13.5-14V488.77c0-2.9,0-5.81,0-8.71a13.74,13.74,0,0,0-13.5-13.88c-4.3-.05-8.61,0-12.91,0H828.33c-5.38,0-10.48,2.56-12.9,7.56-1.54,3.21-1.39,6.47-1.39,9.89v87.69c0,3.87,0,7.58,2.38,10.95,2.87,4.08,7.3,5.87,12.15,5.87h181A1.5,1.5,0,0,0,1009.55,585.14Z"/><path class="cls-4" d="M1036,497.42V555.9a4.09,4.09,0,0,0,.31,2.14,4.3,4.3,0,0,0,1.66,1.32l3.63,2.17,28.37,17,7.26,4.35a30.33,30.33,0,0,0,6.79,3.5,14.88,14.88,0,0,0,13.36-2.45,15.2,15.2,0,0,0,5.24-8.18,22.15,22.15,0,0,0,.27-5.46V487.46c0-2.6.19-5.28,0-7.87a14,14,0,0,0-5.74-10.39c-3.63-2.53-8.22-2.43-12.11-.63-1.55.72-3,1.67-4.49,2.51l-7.38,4.14-28.85,16.23-7.16,4c-2.53,1.42-.26,5.31,2.27,3.89l44.69-25.14c2.21-1.24,4.17-2.57,6.81-2.52a7.53,7.53,0,0,1,6.29,4.13c1.67,3,1.21,6.56,1.21,9.87v83.36c0,1.58.16,3.55,0,4.93-.5,4.9-5.47,8.7-10.42,8.54-3.85-.12-7-2.63-10.2-4.54l-10.88-6.53-22-13.18-5.55-3.33,1.11,1.94V497.42C1040.48,494.53,1036,494.52,1036,497.42Z"/><circle class="cls-2" cx="876.13" cy="430.41" r="64.56"/><path class="cls-4" d="M939.19,430.41a62.72,62.72,0,1,1-.75-9.8,64.29,64.29,0,0,1,.75,9.8,1.5,1.5,0,0,0,3,0,66.19,66.19,0,1,0-.81,10.27,69.25,69.25,0,0,0,.81-10.27A1.5,1.5,0,0,0,939.19,430.41Z"/><circle class="cls-2" cx="876.13" cy="430.41" r="50.78"/><path class="cls-4" d="M925.4,430.41a49.09,49.09,0,1,1-.56-7.56,49,49,0,0,1,.56,7.56,1.5,1.5,0,0,0,3,0A52.28,52.28,0,1,0,854.54,478a52.26,52.26,0,0,0,73.24-39.59,55.35,55.35,0,0,0,.62-8A1.5,1.5,0,0,0,925.4,430.41Z"/><circle class="cls-5" cx="875.4" cy="431.14" r="8.7"/><circle class="cls-5" cx="876.52" cy="462.53" r="11.18"/><circle class="cls-5" cx="848.59" cy="447.51" r="11.18"/><circle class="cls-5" cx="847.98" cy="415.81" r="11.18"/><circle class="cls-5" cx="875.31" cy="399.73" r="11.18"/><circle class="cls-5" cx="902.73" cy="415.65" r="11.18"/><circle class="cls-5" cx="902.31" cy="447.35" r="11.18"/></g></svg>
