<svg xmlns="http://www.w3.org/2000/svg" viewBox="0 0 1920 1080"><defs><style>.cls-1{fill:#999b54;}.cls-2{fill:#6b6f35;}.cls-3,.cls-4{fill:#fff;}.cls-3{stroke:#fff;stroke-miterlimit:10;}</style></defs><title>mobile_web_1</title><g id="Layer_2" data-name="Layer 2"><rect class="cls-1" x="0.5" width="1920" height="1080"/><path class="cls-2" d="M1200.54,486c0,129.42-104.92,234.34-234.35,234.34-75.86,0-131.43-39.26-146.87-51.72-5.93-4.79-89.56-74.51-87.47-182.62C734,373.66,828.14,251.68,966.19,251.68,1095.62,251.68,1200.54,356.6,1200.54,486Z"/><circle class="cls-3" cx="772.65" cy="408.5" r="4.55"/><circle class="cls-3" cx="793.13" cy="541.63" r="4.55"/><circle class="cls-3" cx="778.14" cy="542.05" r="4.55"/><circle class="cls-3" cx="758.8" cy="542.05" r="4.55"/><path class="cls-4" d="M759.37,543.55H777a1.5,1.5,0,0,0,0-3H759.37a1.5,1.5,0,0,0,0,3Z"/><circle class="cls-3" cx="773.59" cy="423.72" r="4.55"/><circle class="cls-3" cx="789.71" cy="378.92" r="4.55"/><circle class="cls-3" cx="789.71" cy="393.71" r="4.55"/><circle class="cls-3" cx="789.71" cy="423.29" r="4.55"/><circle class="cls-3" cx="791.99" cy="482.46" r="4.55"/><circle class="cls-3" cx="766.96" cy="512.04" r="4.55"/><circle class="cls-3" cx="766.96" cy="526.83" r="4.55"/><circle class="cls-3" cx="791.99" cy="497.25" r="4.55"/><circle class="cls-3" cx="793.13" cy="556.42" r="4.55"/><circle class="cls-3" cx="754.25" cy="423.72" r="4.55"/><path class="cls-4" d="M754.82,425.22h17.63a1.5,1.5,0,0,0,0-3H754.82a1.5,1.5,0,0,0,0,3Z"/><line class="cls-4" x1="768.79" y1="481.89" x2="781.93" y2="468.75"/><path class="cls-4" d="M769.85,483l11.5-11.5,1.64-1.64a1.5,1.5,0,0,0-2.12-2.12l-11.5,11.5-1.64,1.64a1.5,1.5,0,0,0,2.12,2.12Z"/><line class="cls-4" x1="768.79" y1="467.1" x2="781.93" y2="453.96"/><path class="cls-4" d="M769.85,468.16l11.5-11.5L783,455a1.5,1.5,0,0,0-2.12-2.12l-11.5,11.5L767.73,466a1.5,1.5,0,0,0,2.12,2.12Z"/><line class="cls-4" x1="768.79" y1="452.3" x2="781.93" y2="439.17"/><path class="cls-4" d="M769.85,453.37l11.5-11.5,1.64-1.64a1.5,1.5,0,0,0-2.12-2.12l-11.5,11.5-1.64,1.63a1.5,1.5,0,0,0,2.12,2.13Z"/><circle class="cls-3" cx="754.47" cy="467.57" r="4.55"/><circle class="cls-3" cx="754.47" cy="452.77" r="4.55"/><circle class="cls-3" cx="754.47" cy="482.36" r="4.55"/><line class="cls-4" x1="813.07" y1="467.57" x2="782.89" y2="467.67"/><path class="cls-4" d="M813.07,466.07l-26.45.09h-3.73a1.5,1.5,0,0,0,0,3l26.45-.09h3.73a1.5,1.5,0,0,0,0-3Z"/><line class="cls-4" x1="768.69" y1="452.77" x2="759.02" y2="452.77"/><path class="cls-4" d="M768.69,451.27H759a1.5,1.5,0,0,0,0,3h9.67a1.5,1.5,0,0,0,0-3Z"/><line class="cls-4" x1="768.69" y1="467.57" x2="759.02" y2="467.57"/><path class="cls-4" d="M768.69,466.07H759a1.5,1.5,0,0,0,0,3h9.67a1.5,1.5,0,0,0,0-3Z"/><line class="cls-4" x1="768.69" y1="482.36" x2="759.02" y2="482.36"/><path class="cls-4" d="M768.69,480.86H759a1.5,1.5,0,0,0,0,3h9.67a1.5,1.5,0,0,0,0-3Z"/><line class="cls-4" x1="813.07" y1="437.98" x2="782.89" y2="438.08"/><path class="cls-4" d="M813.07,436.48l-26.45.09h-3.73a1.5,1.5,0,0,0,0,3l26.45-.08,3.73,0a1.5,1.5,0,0,0,0-3Z"/><line class="cls-4" x1="813.07" y1="452.77" x2="782.89" y2="452.88"/><path class="cls-4" d="M813.07,451.27l-26.45.09-3.73,0a1.5,1.5,0,0,0,0,3l26.45-.09,3.73,0a1.5,1.5,0,0,0,0-3Z"/><line class="cls-4" x1="1071.44" y1="630.8" x2="1058.3" y2="643.94"/><path class="cls-4" d="M1070.38,629.74l-11.5,11.5-1.64,1.64a1.5,1.5,0,0,0,2.12,2.12l11.5-11.5,1.64-1.64a1.5,1.5,0,0,0-2.12-2.12Z"/><line class="cls-4" x1="1054.34" y1="630.83" x2="1041.2" y2="643.97"/><path class="cls-4" d="M1053.28,629.77l-11.5,11.5-1.64,1.64a1.5,1.5,0,0,0,2.12,2.12l11.5-11.5,1.64-1.64a1.5,1.5,0,0,0-2.12-2.12Z"/><line class="cls-4" x1="1169.08" y1="498.86" x2="1155.94" y2="512"/><path class="cls-4" d="M1168,497.8l-11.5,11.5-1.64,1.63a1.5,1.5,0,0,0,2.12,2.13l11.5-11.5,1.64-1.64a1.5,1.5,0,0,0-2.12-2.12Z"/><line class="cls-4" x1="1169.08" y1="513.65" x2="1155.94" y2="526.79"/><path class="cls-4" d="M1168,512.59l-11.5,11.5-1.64,1.64a1.5,1.5,0,0,0,2.12,2.12l11.5-11.5,1.64-1.64a1.5,1.5,0,0,0-2.12-2.12Z"/><line class="cls-4" x1="1169.08" y1="528.44" x2="1155.94" y2="541.58"/><path class="cls-4" d="M1168,527.38l-11.5,11.5-1.64,1.64a1.5,1.5,0,0,0,2.12,2.12l11.5-11.5,1.64-1.64a1.5,1.5,0,0,0-2.12-2.12Z"/><circle class="cls-3" cx="1034.35" cy="279.93" r="4.55"/><circle class="cls-3" cx="1068.48" cy="339.09" r="4.55"/><circle class="cls-3" cx="1170.88" cy="438.08" r="4.55"/><circle class="cls-3" cx="1170.88" cy="452.88" r="4.55"/><circle class="cls-3" cx="1174.3" cy="423.29" r="4.55"/><circle class="cls-3" cx="1154.96" cy="423.29" r="4.55"/><circle class="cls-3" cx="1140.16" cy="378.92" r="4.55"/><circle class="cls-3" cx="1140.16" cy="393.71" r="4.55"/><circle class="cls-3" cx="1140.16" cy="408.5" r="4.55"/><circle class="cls-3" cx="1139.03" cy="467.67" r="4.55"/><circle class="cls-3" cx="1139.03" cy="482.46" r="4.55"/><circle class="cls-3" cx="1139.03" cy="497.25" r="4.55"/><circle class="cls-3" cx="1139.03" cy="556.42" r="4.55"/><circle class="cls-3" cx="1086.69" cy="629.24" r="4.55"/><circle class="cls-3" cx="1058.24" cy="661.1" r="4.55"/><circle class="cls-3" cx="1041.17" cy="662.24" r="4.55"/><circle class="cls-3" cx="1020.69" cy="590.55" r="4.55"/><circle class="cls-3" cx="918.29" cy="590.55" r="4.55"/><circle class="cls-3" cx="901.22" cy="590.55" r="4.55"/><circle class="cls-3" cx="884.15" cy="590.55" r="4.55"/><circle class="cls-3" cx="850.02" cy="620.14" r="4.55"/><circle class="cls-3" cx="832.95" cy="620.14" r="4.55"/><circle class="cls-3" cx="866.73" cy="637.89" r="4.55"/><circle class="cls-3" cx="866.73" cy="665.2" r="4.55"/><path class="cls-4" d="M865.23,641.88v20.48a1.5,1.5,0,0,0,3,0V641.88a1.5,1.5,0,0,0-3,0Z"/><circle class="cls-3" cx="884.15" cy="609.9" r="4.55"/><circle class="cls-3" cx="867.09" cy="620.14" r="4.55"/><circle class="cls-3" cx="884.15" cy="637.2" r="4.55"/><circle class="cls-3" cx="1037.76" cy="590.55" r="4.55"/><circle class="cls-3" cx="1101.48" cy="638.34" r="4.55"/><circle class="cls-3" cx="1101.48" cy="611.03" r="4.55"/><circle class="cls-3" cx="1101.48" cy="593.97" r="4.55"/><circle class="cls-3" cx="1183.4" cy="513.18" r="4.55"/><circle class="cls-3" cx="1183.4" cy="527.97" r="4.55"/><circle class="cls-3" cx="1183.4" cy="498.39" r="4.55"/><circle class="cls-3" cx="1140.16" cy="423.29" r="4.55"/><circle class="cls-3" cx="1098.06" cy="339.09" r="4.55"/><circle class="cls-3" cx="1083.27" cy="339.09" r="4.55"/><circle class="cls-3" cx="1034.35" cy="331.13" r="4.55"/><circle class="cls-3" cx="983.14" cy="339.09" r="4.55"/><circle class="cls-3" cx="966.08" cy="339.09" r="4.55"/><circle class="cls-3" cx="846.61" cy="339.09" r="4.55"/><circle class="cls-3" cx="829.54" cy="339.09" r="4.55"/><circle class="cls-3" cx="897.81" cy="339.09" r="4.55"/><circle class="cls-3" cx="880.74" cy="300.41" r="4.55"/><circle class="cls-3" cx="863.67" cy="300.41" r="4.55"/><circle class="cls-3" cx="1017.28" cy="279.93" r="4.55"/><circle class="cls-3" cx="1000.21" cy="279.93" r="4.55"/><circle class="cls-3" cx="931.94" cy="277.65" r="4.55"/><circle class="cls-3" cx="897.81" cy="277.65" r="4.55"/><circle class="cls-3" cx="914.87" cy="277.65" r="4.55"/><line class="cls-4" x1="897.81" y1="294.56" x2="914.88" y2="313.9"/><path class="cls-4" d="M896.75,295.62l15,17,2.1,2.37c1.28,1.45,3.39-.68,2.12-2.12l-15-17-2.1-2.37c-1.28-1.45-3.39.68-2.12,2.12Z"/><line class="cls-4" x1="914.88" y1="294.56" x2="931.95" y2="313.9"/><path class="cls-4" d="M913.82,295.62l15,17,2.1,2.37c1.28,1.45,3.39-.68,2.12-2.12l-15-17-2.1-2.37c-1.28-1.45-3.4.68-2.12,2.12Z"/><line class="cls-4" x1="931.95" y1="294.56" x2="949.01" y2="313.9"/><path class="cls-4" d="M930.89,295.62l15,17L948,315c1.28,1.45,3.4-.68,2.12-2.12l-15-17L933,293.5c-1.28-1.45-3.4.68-2.12,2.12Z"/><line class="cls-4" x1="1034.35" y1="303.82" x2="1051.41" y2="323.16"/><path class="cls-4" d="M1033.29,304.88l15,17,2.09,2.37c1.28,1.46,3.4-.67,2.12-2.12l-15-17-2.09-2.38c-1.28-1.45-3.4.68-2.12,2.12Z"/><path class="cls-4" d="M767,513.54h47.22a1.5,1.5,0,0,0,0-3H767a1.5,1.5,0,0,0,0,3Z"/><path class="cls-4" d="M793.7,557.92h20.48a1.5,1.5,0,0,0,0-3H793.7a1.5,1.5,0,0,0,0,3Z"/><path class="cls-4" d="M793.7,543.13h20.48a1.5,1.5,0,0,0,0-3H793.7a1.5,1.5,0,0,0,0,3Z"/><path class="cls-4" d="M767,528.33h47.22a1.5,1.5,0,0,0,0-3H767a1.5,1.5,0,0,0,0,3Z"/><path class="cls-4" d="M793.7,498.75h20.48a1.5,1.5,0,0,0,0-3H793.7a1.5,1.5,0,0,0,0,3Z"/><path class="cls-4" d="M793.7,484h20.48a1.5,1.5,0,0,0,0-3H793.7a1.5,1.5,0,0,0,0,3Z"/><path class="cls-4" d="M793.7,424.79h20.48a1.5,1.5,0,0,0,0-3H793.7a1.5,1.5,0,0,0,0,3Z"/><path class="cls-4" d="M773.78,410h40.4a1.5,1.5,0,0,0,0-3h-40.4a1.5,1.5,0,0,0,0,3Z"/><path class="cls-4" d="M793.7,395.21h20.48a1.5,1.5,0,0,0,0-3H793.7a1.5,1.5,0,0,0,0,3Z"/><path class="cls-4" d="M793.13,380.42h20.48a1.5,1.5,0,0,0,0-3H793.13a1.5,1.5,0,0,0,0,3Z"/><path class="cls-4" d="M1118,513.54h37a1.5,1.5,0,0,0,0-3h-37a1.5,1.5,0,0,0,0,3Z"/><path class="cls-4" d="M1169.18,529.47h9.67a1.5,1.5,0,0,0,0-3h-9.67a1.5,1.5,0,0,0,0,3Z"/><path class="cls-4" d="M1169.18,514.68h9.67a1.5,1.5,0,1,0,0-3h-9.67a1.5,1.5,0,0,0,0,3Z"/><path class="cls-4" d="M1169.18,499.89h9.67a1.5,1.5,0,0,0,0-3h-9.67a1.5,1.5,0,0,0,0,3Z"/><path class="cls-4" d="M1118,557.92h20.48a1.5,1.5,0,0,0,0-3H1118a1.5,1.5,0,0,0,0,3Z"/><path class="cls-4" d="M1118,543.13h37a1.5,1.5,0,0,0,0-3h-37a1.5,1.5,0,0,0,0,3Z"/><path class="cls-4" d="M1118,528.33h37a1.5,1.5,0,0,0,0-3h-37a1.5,1.5,0,0,0,0,3Z"/><path class="cls-4" d="M1118,498.75h20.48a1.5,1.5,0,0,0,0-3H1118a1.5,1.5,0,0,0,0,3Z"/><path class="cls-4" d="M1118,484h20.48a1.5,1.5,0,0,0,0-3H1118a1.5,1.5,0,0,0,0,3Z"/><path class="cls-4" d="M1118,469.17h20.48a1.5,1.5,0,0,0,0-3H1118a1.5,1.5,0,0,0,0,3Z"/><path class="cls-4" d="M1118,454.38h51.77a1.5,1.5,0,0,0,0-3H1118a1.5,1.5,0,0,0,0,3Z"/><path class="cls-4" d="M1118,439.58h51.77a1.5,1.5,0,0,0,0-3H1118a1.5,1.5,0,0,0,0,3Z"/><path class="cls-4" d="M1118,424.79h20.48a1.5,1.5,0,0,0,0-3H1118a1.5,1.5,0,0,0,0,3Z"/><path class="cls-4" d="M1118,410h20.48a1.5,1.5,0,0,0,0-3H1118a1.5,1.5,0,0,0,0,3Z"/><path class="cls-4" d="M1155.52,424.79h17.64a1.5,1.5,0,0,0,0-3h-17.64a1.5,1.5,0,0,0,0,3Z"/><path class="cls-4" d="M1118,395.21h20.48a1.5,1.5,0,0,0,0-3H1118a1.5,1.5,0,0,0,0,3Z"/><path class="cls-4" d="M1100,570.64v20.48a1.5,1.5,0,0,0,3,0V570.64a1.5,1.5,0,0,0-3,0Z"/><path class="cls-4" d="M1085.19,570.64v59.74a1.5,1.5,0,0,0,3,0V570.64a1.5,1.5,0,0,0-3,0Z"/><path class="cls-4" d="M1070.39,570.64v59.74a1.5,1.5,0,0,0,3,0V570.64a1.5,1.5,0,0,0-3,0Z"/><path class="cls-4" d="M1053.33,570.64v59.74a1.5,1.5,0,0,0,3,0V570.64a1.5,1.5,0,0,0-3,0Z"/><path class="cls-4" d="M1036.26,570.64v20.48a1.5,1.5,0,0,0,3,0V570.64a1.5,1.5,0,0,0-3,0Z"/><path class="cls-4" d="M1019.19,570.64v20.48a1.5,1.5,0,0,0,3,0V570.64a1.5,1.5,0,0,0-3,0Z"/><path class="cls-4" d="M916.79,570.64v20.48a1.5,1.5,0,0,0,3,0V570.64a1.5,1.5,0,0,0-3,0Z"/><path class="cls-4" d="M899.72,570.64v20.48a1.5,1.5,0,0,0,3,0V570.64a1.5,1.5,0,0,0-3,0Z"/><path class="cls-4" d="M882.65,570.64v20.48a1.5,1.5,0,0,0,3,0V570.64a1.5,1.5,0,0,0-3,0Z"/><path class="cls-4" d="M882.65,613.88v20.48a1.5,1.5,0,0,0,3,0V613.88a1.5,1.5,0,0,0-3,0Z"/><path class="cls-4" d="M1056.74,644.6v13.08a1.5,1.5,0,0,0,3,0V644.6a1.5,1.5,0,0,0-3,0Z"/><path class="cls-4" d="M1039.67,644.6v13.08a1.5,1.5,0,0,0,3,0V644.6a1.5,1.5,0,0,0-3,0Z"/><path class="cls-4" d="M1100,613.88v20.48a1.5,1.5,0,0,0,3,0V613.88a1.5,1.5,0,0,0-3,0Z"/><path class="cls-4" d="M865.59,570.64V619a1.5,1.5,0,0,0,3,0V570.64a1.5,1.5,0,0,0-3,0Z"/><path class="cls-4" d="M848.52,570.64V619a1.5,1.5,0,0,0,3,0V570.64a1.5,1.5,0,0,0-3,0Z"/><path class="cls-4" d="M831.45,570.64V619a1.5,1.5,0,0,0,3,0V570.64a1.5,1.5,0,0,0-3,0Z"/><path class="cls-4" d="M1096.56,343.08v20.48a1.5,1.5,0,0,0,3,0V343.08a1.5,1.5,0,0,0-3,0Z"/><path class="cls-4" d="M1081.77,343.08v20.48a1.5,1.5,0,0,0,3,0V343.08a1.5,1.5,0,0,0-3,0Z"/><path class="cls-4" d="M1067,343.08v20.48a1.5,1.5,0,0,0,3,0V343.08a1.5,1.5,0,0,0-3,0Z"/><path class="cls-4" d="M1049.91,323.16v40.4a1.5,1.5,0,0,0,3,0v-40.4a1.5,1.5,0,0,0-3,0Z"/><path class="cls-4" d="M1032.85,334.54v29a1.5,1.5,0,0,0,3,0v-29a1.5,1.5,0,0,0-3,0Z"/><path class="cls-4" d="M1032.85,283.34v19.91a1.5,1.5,0,0,0,3,0V283.34a1.5,1.5,0,0,0-3,0Z"/><path class="cls-4" d="M1015.78,283.34v80.22a1.5,1.5,0,0,0,3,0V283.34a1.5,1.5,0,0,0-3,0Z"/><path class="cls-4" d="M998.71,283.34v80.22a1.5,1.5,0,0,0,3,0V283.34a1.5,1.5,0,0,0-3,0Z"/><path class="cls-4" d="M981.64,343.08v20.48a1.5,1.5,0,0,0,3,0V343.08a1.5,1.5,0,0,0-3,0Z"/><path class="cls-4" d="M964.58,343.08v20.48a1.5,1.5,0,0,0,3,0V343.08a1.5,1.5,0,0,0-3,0Z"/><path class="cls-4" d="M947.51,314.06v49.5a1.5,1.5,0,0,0,3,0v-49.5a1.5,1.5,0,0,0-3,0Z"/><path class="cls-4" d="M930.44,314.06v49.5a1.5,1.5,0,0,0,3,0v-49.5a1.5,1.5,0,0,0-3,0Z"/><path class="cls-4" d="M913.37,314.06v49.5a1.5,1.5,0,0,0,3,0v-49.5a1.5,1.5,0,0,0-3,0Z"/><path class="cls-4" d="M896.31,281.63v13.09a1.5,1.5,0,0,0,3,0V281.63a1.5,1.5,0,0,0-3,0Z"/><path class="cls-4" d="M913.37,281.63v13.09a1.5,1.5,0,0,0,3,0V281.63a1.5,1.5,0,0,0-3,0Z"/><path class="cls-4" d="M930.44,281.63v13.09a1.5,1.5,0,0,0,3,0V281.63a1.5,1.5,0,0,0-3,0Z"/><path class="cls-4" d="M896.31,343.08v20.48a1.5,1.5,0,0,0,3,0V343.08a1.5,1.5,0,0,0-3,0Z"/><path class="cls-4" d="M879.24,303.82v59.74a1.5,1.5,0,0,0,3,0V303.82a1.5,1.5,0,0,0-3,0Z"/><path class="cls-4" d="M862.17,303.82v59.74a1.5,1.5,0,0,0,3,0V303.82a1.5,1.5,0,0,0-3,0Z"/><path class="cls-4" d="M845.11,343.08v20.48a1.5,1.5,0,0,0,3,0V343.08a1.5,1.5,0,0,0-3,0Z"/><path class="cls-4" d="M828,343.08v20.48a1.5,1.5,0,0,0,3,0V343.08a1.5,1.5,0,0,0-3,0Z"/><path class="cls-4" d="M1117.41,380.42h20.48a1.5,1.5,0,0,0,0-3h-20.48a1.5,1.5,0,0,0,0,3Z"/><line class="cls-3" x1="814.75" y1="446.05" x2="814.75" y2="509.77"/><path class="cls-4" d="M1030.93,609.9H901.22v-6.53a4.86,4.86,0,0,1,4.86-4.85h120a4.85,4.85,0,0,1,4.85,4.85Z"/><path class="cls-4" d="M1030.93,608.4H906.54a39.3,39.3,0,0,0-5.09,0h-.23l1.5,1.5a65.59,65.59,0,0,1,0-6.87,3.5,3.5,0,0,1,3.77-3h118.29c.42,0,.85,0,1.28,0a3.4,3.4,0,0,1,3.36,3.35c0,1.09,0,2.18,0,3.26v3.27a1.5,1.5,0,0,0,3,0,64.2,64.2,0,0,0,0-7.21,6.44,6.44,0,0,0-6.46-5.67c-2,0-4,0-6,0h-113a8.44,8.44,0,0,0-3,.4,6.42,6.42,0,0,0-4.12,5.44c-.1,1.16,0,2.36,0,3.53v3.51a1.52,1.52,0,0,0,1.5,1.5h113.71c5.24,0,10.53.19,15.78,0h.22A1.5,1.5,0,0,0,1030.93,608.4Z"/><path class="cls-4" d="M996.44,570.64v27.88a1.5,1.5,0,0,0,3,0V570.64a1.5,1.5,0,0,0-3,0Z"/><path class="cls-4" d="M935,570.64v27.88a1.5,1.5,0,0,0,3,0V570.64a1.5,1.5,0,0,0-3,0Z"/><path class="cls-4" d="M1091.35,529.14H844.07c-2.1,0-4.4.19-6.43-.41a9.89,9.89,0,0,1-7-9.54c0-1.08,0-2.16,0-3.24V397.88c0-2.88,0-5.76,0-8.64a9.89,9.89,0,0,1,9.75-9.78h250.23a11.76,11.76,0,0,1,4.19.63,9.92,9.92,0,0,1,6.28,9.37c0,3.41,0,6.83,0,10.25V517c0,.78,0,1.56,0,2.34a9.89,9.89,0,0,1-9.75,9.79c-2.89,0-2.9,4.54,0,4.5a14.47,14.47,0,0,0,14.18-12.91,30.75,30.75,0,0,0,.07-3.18V399.87c0-3.47,0-6.94,0-10.41a14.5,14.5,0,0,0-14.66-14.5H841.44c-.6,0-1.21,0-1.81,0a14.44,14.44,0,0,0-13.46,13.64c-.14,2.77,0,5.56,0,8.33V515.9c0,1.1,0,2.19,0,3.29a14.55,14.55,0,0,0,6.91,12.4c3.27,2,6.7,2,10.31,2h248C1094.25,533.64,1094.26,529.14,1091.35,529.14Z"/><path class="cls-4" d="M1105.49,568.27H831.93a42.56,42.56,0,0,1-6.68-.11,10.39,10.39,0,0,1-8.62-10.38c0-1.22,0-2.43,0-3.65V386.37c0-3.36,0-6.74,0-10.1a10.35,10.35,0,0,1,10.2-10.34h277.53a14.31,14.31,0,0,1,3.51.28,10.39,10.39,0,0,1,7.82,10.26c0,3.74,0,7.47,0,11.21V554.91c0,1,0,2,0,3a10.35,10.35,0,0,1-10.2,10.35c-2.32,0-2.32,3.64,0,3.6a14,14,0,0,0,13.8-13.82c0-.86,0-1.73,0-2.6V387.6c0-3.72,0-7.45,0-11.17a14,14,0,0,0-7.43-12.53,15.17,15.17,0,0,0-7.13-1.57H828.16c-.72,0-1.45,0-2.17,0a14,14,0,0,0-13,13.81c0,3.11,0,6.23,0,9.34V554.23c0,1.19,0,2.39,0,3.59a14,14,0,0,0,8.14,12.82c3.25,1.44,6.59,1.23,10,1.23h274.29A1.8,1.8,0,0,0,1105.49,568.27Z"/><path class="cls-4" d="M1198.43,483.75a231.38,231.38,0,0,1-47.5,140.79,231.73,231.73,0,0,1-199.5,90.89,234.55,234.55,0,0,1-81.33-20.92,247,247,0,0,1-47-27.91c-.55-.42.77.61-.14-.11l-.69-.54-1.22-1-.92-.75q-1.7-1.41-3.33-2.88c-4-3.52-7.8-7.2-11.51-11a266,266,0,0,1-32.92-40.84,238.63,238.63,0,0,1-30-64.16,207.82,207.82,0,0,1-7.24-78.67,235.21,235.21,0,0,1,17.49-67.46,253,253,0,0,1,37.66-62.4,242.55,242.55,0,0,1,55-49.42,222.65,222.65,0,0,1,70-30,230.47,230.47,0,0,1,151.45,16.93,231.64,231.64,0,0,1,131.73,209.39c0,5.8,9,5.81,9,0a239.93,239.93,0,0,0-49.11-145.82A245.1,245.1,0,0,0,1103,285.11a240.16,240.16,0,0,0-149.42-42.18,231,231,0,0,0-79.56,18.79,238.51,238.51,0,0,0-64.84,42.16,261.41,261.41,0,0,0-76.73,126.83,223.76,223.76,0,0,0-6.57,76,227.32,227.32,0,0,0,21.84,77.6,271.38,271.38,0,0,0,35.5,55A252.08,252.08,0,0,0,810.81,668a194.45,194.45,0,0,0,27.36,19.73A258.31,258.31,0,0,0,906.47,717a235.52,235.52,0,0,0,89.43,6.05,241.43,241.43,0,0,0,183.57-126.52,239.2,239.2,0,0,0,24.76-73.6,248.77,248.77,0,0,0,3.2-39.21C1207.43,478,1198.43,478,1198.43,483.75Z"/></g></svg>
