<svg xmlns="http://www.w3.org/2000/svg" viewBox="0 0 1920 1080"><defs><style>.cls-1{fill:#91535c;}.cls-2{fill:#6d3a3f;}.cls-3{fill:#fff;}.cls-4{fill:none;stroke:#fff;stroke-miterlimit:10;stroke-width:3px;}</style></defs><title>mobile_mig</title><g id="Layer_2" data-name="Layer 2"><rect class="cls-1" width="1920" height="1080"/></g><g id="Layer_15" data-name="Layer 15"><path class="cls-2" d="M1194.11,487.24c0,130.4-105.71,236.12-236.11,236.12-76.44,0-132.42-39.56-148-52.11-6-4.83-90.24-75.08-88.14-184C724.06,374,818.9,251.12,958,251.12,1088.4,251.12,1194.11,356.84,1194.11,487.24Z"/></g><g id="Layer_18" data-name="Layer 18"><path class="cls-3" d="M1194,486.84a233.79,233.79,0,0,1-168.61,224.53,233,233,0,0,1-80,8.7A236,236,0,0,1,863.45,699a248.59,248.59,0,0,1-47.28-28.09c-.55-.42.77.61-.15-.12l-.69-.55c-.42-.32-.83-.65-1.23-1l-.93-.76c-1.13-.94-2.25-1.91-3.35-2.89-4-3.54-7.85-7.25-11.58-11.06a269.16,269.16,0,0,1-33.15-41.12,240.61,240.61,0,0,1-30.25-64.59,209.17,209.17,0,0,1-7.28-79.2,236.91,236.91,0,0,1,17.6-67.92,254.78,254.78,0,0,1,37.92-62.81,243.54,243.54,0,0,1,55.36-49.75A223.88,223.88,0,0,1,908.9,259a231.95,231.95,0,0,1,152.47,17.05A233.18,233.18,0,0,1,1194,486.84c0,5.79,9,5.8,9,0a241.42,241.42,0,0,0-49.43-146.77,246.66,246.66,0,0,0-55.63-53.15,241.62,241.62,0,0,0-150.38-42.46,232.43,232.43,0,0,0-80.07,18.91,239.94,239.94,0,0,0-65.27,42.44A263.12,263.12,0,0,0,725,433.46a224.84,224.84,0,0,0-6.62,76.48,228.71,228.71,0,0,0,22,78.09,273,273,0,0,0,35.72,55.31,254.56,254.56,0,0,0,27.73,28.95,195.33,195.33,0,0,0,27.54,19.85,260.25,260.25,0,0,0,68.74,29.49,237.53,237.53,0,0,0,90,6.09,243,243,0,0,0,184.75-127.34,240.85,240.85,0,0,0,24.92-74.09,249.34,249.34,0,0,0,3.22-39.45C1203,481.05,1194,481,1194,486.84Z"/><path class="cls-3" d="M960.51,690.9c-4.23.47-8,2.85-12,4a27.08,27.08,0,0,1-15.22.14,26.78,26.78,0,0,1-5.67-2.21c-1.32-.73-2.5-1.7-3.88-2.31-4.15-1.82-9.25-.59-13.22,1.14-6.66,2.9-11.56,8.69-18.24,11.56-3.53,1.51-8.13,2.52-11.72.76a10.78,10.78,0,0,1-5.61-9.16c0-3.51,2.24-6.7,4.52-9.18a47.9,47.9,0,0,1,10.54-8.3,70.19,70.19,0,0,1,13-6.19,14.46,14.46,0,0,1,1.46-.44c.35-.08.71-.15,1.07-.21l.74-.13.39-.06c.41-.06,0,0,.18,0,1.64-.21,3.29-.33,5-.4a116.85,116.85,0,0,1,17.14.78,244.45,244.45,0,0,1,28.55,5.07c2.22.52,4.67.84,6.66,2A8.7,8.7,0,0,1,967.9,683c.08.29.14.57.2.86.09.45,0,.11.06.4a10,10,0,0,1-.11,2.51c-.27,1.53-1,3.94-2.75,4.36a4.06,4.06,0,0,1-1.46-.12,13.75,13.75,0,0,0-3.33-.13c-1.91.16-1.93,3.16,0,3a12.93,12.93,0,0,1,3.11.12,5.92,5.92,0,0,0,2.37.05,6.69,6.69,0,0,0,4.3-4.25,12.05,12.05,0,0,0-.65-10.43c-2.78-5-8.15-5.79-13.24-6.94-5.45-1.23-10.93-2.33-16.44-3.24a163,163,0,0,0-23-2.34,64.72,64.72,0,0,0-11.72.66,36.07,36.07,0,0,0-8.92,3.11,68.53,68.53,0,0,0-13.21,7.74c-3.53,2.68-7,5.79-9.19,9.67a12.72,12.72,0,0,0-1.41,10.37c1.44,4.54,4.89,8.41,9.73,9.25a20.45,20.45,0,0,0,12.1-2.12,54.71,54.71,0,0,0,6-3.7c1.82-1.21,3.58-2.47,5.28-3.84a26,26,0,0,1,8.87-4.63,13.42,13.42,0,0,1,7.27-.36,18.26,18.26,0,0,1,3.89,2.2,30.91,30.91,0,0,0,13.06,3.86,33.93,33.93,0,0,0,15-2.84c2.2-.89,4.33-2.07,6.73-2.34C962.41,693.69,962.43,690.69,960.51,690.9Z"/><path class="cls-3" d="M867.78,527.56a236.24,236.24,0,0,1-11.85,38.93c-1.71,4.15-3.61,8.24-5.69,12.22-1.16,2.19-2.36,4.35-3.3,6.65a33,33,0,0,0-2.32,9.65,45.52,45.52,0,0,0,11.69,34.37c2.1,2.22,4.57,4.08,6.55,6.41a13.88,13.88,0,0,1,3,6.27,26.37,26.37,0,0,1,.07,7.37,64.59,64.59,0,0,1-2.05,10.86c-1.22,4.44-3.13,8.64-4.23,13.11A60.65,60.65,0,0,0,858.22,692c.13,2,.36,4,.63,6a1.51,1.51,0,0,0,1.84,1,1.53,1.53,0,0,0,1-1.84,63.89,63.89,0,0,1,.24-20.33c.82-4.33,2.47-8.32,3.83-12.49,2-6.29,3.56-13.18,3.31-19.82a18.22,18.22,0,0,0-5.91-12.71,74.66,74.66,0,0,1-6.69-6.74,39.66,39.66,0,0,1-5-8.29,44.65,44.65,0,0,1-4-17.69,33.77,33.77,0,0,1,4.23-16.79c2-3.82,4-7.69,5.7-11.66a220.51,220.51,0,0,0,11.86-36.23q.74-3,1.41-6.06c.42-1.88-2.48-2.68-2.9-.79Z"/><path class="cls-3" d="M921.74,478.5a119,119,0,0,0-44.09,17,124.87,124.87,0,0,0-36.08,36.14,179.79,179.79,0,0,0-20.18,41.14c-5.06,15-7.6,30.45-9.34,46.1a255.36,255.36,0,0,0-.68,51.12c.14,1.56.3,3.13.47,4.69.2,1.9,3.21,1.92,3,0a247.65,247.65,0,0,1-.53-48.47c1.34-15.33,3.47-30.7,7.74-45.51a178.14,178.14,0,0,1,19-42.65,125.57,125.57,0,0,1,32-35.75,114.64,114.64,0,0,1,45.13-20c1.43-.3,2.87-.57,4.32-.83,1.9-.33,1.09-3.22-.8-2.89Z"/><path class="cls-4" d="M1027.51,652.89c1.23-47.39,6-54.6,9.16-55,5.28-.63,6.88,18.05,26.34,38.94,3.49,3.74,6.47,6.41,5.73,9.17s-5.34,5.3-41.29,8c-9.15.69-10.05.62-17.12,1.14-28.36,2.06-49.07,3.71-50.39,10.31-1.17,5.83,13,14.27,11.45,20.61a22.61,22.61,0,0,1-2.29,5.73c-1.43,2.33-2.42,2.71-2.29,3.44.42,2.45,12.55,2.33,20.61,2.29,10.45-.06,15.67.26,18.49.2,15.38-.32,27.24-1.06,31.91-1.35,36.63-2.27,33.29.11,41.23-2.29,15.43-4.67,25.8-14,33.21-20.62,9.2-8.24,15.6-14,18.5-21.83,5.87-15.87-5.62-32-25.37-61.77-47.74-71.94-46.42-76.86-63-88.19-23.76-16.26-48.11-21.17-63-22.91"/><path class="cls-3" d="M976.19,430.13v56.61c0,1,.21,1.23-.19,1.93a31.31,31.31,0,0,1-13.61,12.74c-6.8,3.2-14.49,3.23-21.61,1.15a37,37,0,0,1-17.58-11.38l.44,1.06V464.11a1.5,1.5,0,0,0-3,0v23.2a40.55,40.55,0,0,0,0,4.93c.18,1.38,1.94,2.74,2.9,3.67a39.69,39.69,0,0,0,21.52,10.68,32.24,32.24,0,0,0,27.65-8.79,34.47,34.47,0,0,0,6-7.91,6.11,6.11,0,0,0,.43-3.15V430.13a1.5,1.5,0,0,0-3,0Z"/><path class="cls-3" d="M893.55,344.37a190.36,190.36,0,0,0,27.68,20.31,154.43,154.43,0,0,0,20.15,10.45,130.88,130.88,0,0,0,21.42,6.76,27.54,27.54,0,0,1,8.77,3.38,10.79,10.79,0,0,1,5.14,9.58c0,1.93,3,1.93,3,0a13.55,13.55,0,0,0-3.78-9.89,20.91,20.91,0,0,0-8-4.73,71.08,71.08,0,0,0-7.72-2,104.11,104.11,0,0,1-12.07-3.65c-13.65-5-26.34-12.49-38.09-21a174.21,174.21,0,0,1-14.36-11.36c-1.44-1.28-3.57.83-2.12,2.12Z"/><path class="cls-3" d="M842.12,536.46c-2.59-5.93-3.72-12.56-2-18.88,2-7.09,6.45-12.91,10.44-18.93,3.2-4.83,4-11.44,3.14-17a19.92,19.92,0,0,0-4.2-9.06,27.34,27.34,0,0,1-4.9-10.77A34.69,34.69,0,0,1,845.7,444c1.5-4.56,5.31-7.78,7.91-11.71a83.84,83.84,0,0,0,8-15.27c2.45-6.16,4-13,2.77-19.63A18.66,18.66,0,0,0,861.2,390a53.66,53.66,0,0,1-3.2-5.09,51.78,51.78,0,0,1-6.15-17.15c-1.78-11.25,1.58-25.08,10.2-33,4.38-4,10.46-6.24,16-8.26a81.5,81.5,0,0,1,8.25-2.62,20,20,0,0,1,2.87-.58,12.94,12.94,0,0,0,3.49-.53c2.11-.84,2.75-2.53,3.42-4.49-.18.52,0,0,.07-.13l.27-.52c.26-.48.55-1,.84-1.42a59.88,59.88,0,0,1,6.12-8,79.69,79.69,0,0,1,26.91-19.84,68.85,68.85,0,0,1,43.6-4.09c10.7,2.53,20.5,7.51,29.51,13.7,8,5.54,15.73,11.56,21.9,19.2a52.27,52.27,0,0,1,9.51,17.37,38.81,38.81,0,0,1,1.84,10.79c.05,2.95-.47,5.84-.66,8.78-.44,7,2.15,14.06,5.5,20.13a55.17,55.17,0,0,0,14.6,16.95,43.28,43.28,0,0,0,15.55,7.67,74,74,0,0,1,19,8.32,43,43,0,0,1,9.38,7.56c2.65,2.87,5.43,5.95,7,9.55,1.84,4.09,1.42,7.13,0,11-2.33,6.29-4.71,12.56-6.75,18.95a17.1,17.1,0,0,0-1.11,6.66,18.59,18.59,0,0,0,3.47,9.09c3.37,4.84,7.94,8.68,11.7,13.21a82.75,82.75,0,0,1,8,11.56,69.11,69.11,0,0,1,7.88,19.64,49.33,49.33,0,0,1-.46,22.92,57.15,57.15,0,0,1-30.79,37.57c-1.74.84-.22,3.43,1.51,2.59a60,60,0,0,0,24.72-22.15c7.31-11.73,10.77-25.7,8.36-39.42-2.17-12.4-8.44-24-16.23-33.79-3.39-4.24-7.48-7.84-10.88-12.06-2.17-2.69-4-5.85-4.27-9.37a17.12,17.12,0,0,1,1.29-6.51c2.08-6.35,4.49-12.55,6.75-18.83a15.68,15.68,0,0,0-.31-12c-1.52-3.54-4.06-6.51-6.57-9.39a46.64,46.64,0,0,0-9.39-8.24,99.09,99.09,0,0,0-19.85-9.31c-2-.6-4.14-1-6.14-1.79a41.47,41.47,0,0,1-9.22-5.2,51.59,51.59,0,0,1-15.08-17.51,44.14,44.14,0,0,1-4.09-10.77,27.71,27.71,0,0,1-.35-9.35,44,44,0,0,0,.23-9.66,45.54,45.54,0,0,0-2.55-10.8c-4.35-11.81-13-21.48-22.72-29.2a126.86,126.86,0,0,0-21.9-14.31c-13-6.49-27.61-9.64-42.14-7.93A75.5,75.5,0,0,0,913.16,295a77.91,77.91,0,0,0-18.26,19.17,23.43,23.43,0,0,0-1.48,2.57c-.71,1.51-.76,3.12-2.83,3.4a44,44,0,0,0-6.21,1.05,91.92,91.92,0,0,0-8.85,3c-5.72,2.2-11.74,4.59-16.19,9a36.57,36.57,0,0,0-8.78,15.08,43.13,43.13,0,0,0-1.9,18.08,53.17,53.17,0,0,0,5.93,18.56q1.33,2.52,2.9,4.93c1.53,2.38,3,4.34,3.74,7.16,1.7,6.65-.25,13.8-2.8,20A78.09,78.09,0,0,1,850,432.32c-1.4,1.95-3.05,3.69-4.49,5.6a19,19,0,0,0-2.91,6.08,38.11,38.11,0,0,0-.78,18.82,29.07,29.07,0,0,0,5,11.08,30.28,30.28,0,0,1,2.51,3.65,15.6,15.6,0,0,1,1.61,5.79,23.93,23.93,0,0,1-1.13,10,21.22,21.22,0,0,1-3.29,5.87c-4.28,5.87-8.57,12.78-9.82,20-1.1,6.43.26,12.83,2.84,18.75.77,1.76,3.35.24,2.59-1.51Z"/><path class="cls-3" d="M892.37,342.63c-5.62,11.17-9.45,23.32-10.1,35.83a113.24,113.24,0,0,0,8.39,49.35c4,9.55,9.31,19,16.89,26.23,6,5.74,13.61,10.69,21.92,12.13,16.52,2.85,33-7,42-20.36,9.38-13.87,11.74-30.93,8.91-47.22q-.25-1.45-.57-2.91c-.4-1.89-3.3-1.09-2.89.79,3.13,14.58,2,30.55-5.45,43.68-7.2,12.69-20.46,23.25-35.58,23.53-8.76.17-16.35-3.66-23.06-9-7.58-6-12.93-14.29-17.13-22.9a109.16,109.16,0,0,1-10.61-49.94c.05-2.36.17-4.72.39-7.07q.11-1.14.24-2.28c0-.13,0-.26.05-.39,0-.42,0,.28,0-.05,0-.18,0-.35.08-.53a91.26,91.26,0,0,1,5.72-20.09c1-2.48,2.13-4.92,3.34-7.31.86-1.72-1.73-3.24-2.59-1.52Z"/></g></svg>
