<svg xmlns="http://www.w3.org/2000/svg" viewBox="0 0 1920 1080"><defs><style>.cls-1{fill:#91535c;}.cls-2{fill:#6d3a3f;}.cls-3{fill:#fff;}.cls-4{fill:none;stroke:#fff;stroke-miterlimit:10;stroke-width:3px;}</style></defs><title>slide_mig</title><g id="Layer_2" data-name="Layer 2"><rect class="cls-1" width="1920" height="1080"/></g><g id="Layer_15" data-name="Layer 15"><path class="cls-2" d="M1295,486.59c0,187.2-151.76,339-339,339-109.72,0-190.09-56.79-212.43-74.81C735,743.81,614,643,617.06,486.59c3.13-162.52,139.28-339,339-339C1143.21,147.63,1295,299.39,1295,486.59Z"/></g><g id="Layer_18" data-name="Layer 18"><path class="cls-3" d="M1296.74,486a337.71,337.71,0,0,1-243.48,324.22,336.43,336.43,0,0,1-115.43,12.55c-40.91-2.73-81.27-13.49-118.54-30.51A349.32,349.32,0,0,1,751.43,752l-.62-.48-1-.78-1.77-1.41-1.33-1.09c-1.62-1.36-3.22-2.75-4.81-4.15-5.73-5.09-11.26-10.41-16.62-15.88a394.19,394.19,0,0,1-47.89-59.42c-18.9-28.78-34-60.09-43.62-93.19a301.66,301.66,0,0,1-10.53-114.22,341.22,341.22,0,0,1,25.53-98.49,368.9,368.9,0,0,1,54.75-90.56,351.52,351.52,0,0,1,79.86-71.73A323.31,323.31,0,0,1,885,157.05a335.1,335.1,0,0,1,220.39,24.67A336.84,336.84,0,0,1,1296.74,486c0,5.79,9,5.8,9,0A346.14,346.14,0,0,0,941,140a331.06,331.06,0,0,0-114,26.88,343.09,343.09,0,0,0-93.29,60.61A375.86,375.86,0,0,0,623.39,409.9c-9.17,35.56-12.78,72.66-9.42,109.28,3.55,38.64,14.5,76.18,31.29,111.11a389.92,389.92,0,0,0,51,79,365.44,365.44,0,0,0,39.82,41.57c12.06,10.63,25.43,19.81,39.13,28.18a371.2,371.2,0,0,0,98.21,42.13,339,339,0,0,0,128.69,8.67,346.25,346.25,0,0,0,299.11-287.71,355.07,355.07,0,0,0,4.55-56.11C1305.74,480.23,1296.75,480.22,1296.74,486Z"/><path class="cls-3" d="M959.62,779.61c-3.38.36-6.26,1.64-9.35,3a68.62,68.62,0,0,1-7.63,2.74,41.27,41.27,0,0,1-30.73-3,53.69,53.69,0,0,0-5.71-3.36c-5.94-2.47-13.24-.49-18.81,2.05a44.15,44.15,0,0,0-6.12,3.33c-1.52,1-2.9,2.23-4.35,3.35-2.78,2.16-5.75,4.07-8.7,6a38.15,38.15,0,0,1-7,3.91c-5.48,2.07-12.17,3.49-17.54.37a16.27,16.27,0,0,1-7.56-13.73c.15-5.09,3.43-9.69,6.76-13.3a70.2,70.2,0,0,1,15.45-12.09A102.19,102.19,0,0,1,877,750a20.16,20.16,0,0,1,2-.6c.53-.12,1.07-.22,1.6-.32l1.11-.18.59-.09.13,0,.25,0c2.38-.29,4.78-.46,7.17-.55a169,169,0,0,1,25,1.18,359,359,0,0,1,41.93,7.57c3.35.79,6.86,1.35,9.62,3.57A13.54,13.54,0,0,1,971,768a13,13,0,0,1,0,5.56c-.48,2.37-1.67,5.74-4.34,6.41a5.86,5.86,0,0,1-2.31-.16,18.82,18.82,0,0,0-4.74-.18c-1.91.16-1.93,3.16,0,3a17.6,17.6,0,0,1,4.53.17,7.75,7.75,0,0,0,3.32.06c2.95-.78,4.83-3.57,5.82-6.28A16.62,16.62,0,0,0,971.74,762a16,16,0,0,0-8.54-6.6,114.74,114.74,0,0,0-11.58-2.78c-7.59-1.68-15.22-3.18-22.9-4.41a227.89,227.89,0,0,0-32.14-3.15,90.37,90.37,0,0,0-16.27,1c-4.47.74-8.64,2.62-12.76,4.48a98.09,98.09,0,0,0-18.8,11.07c-5,3.77-9.79,8.16-12.92,13.63-2.61,4.58-3.5,9.62-1.8,14.67,2.2,6.57,7.29,11.73,14.34,12.63,5.63.71,11.87-.94,16.85-3.59a102.61,102.61,0,0,0,15.66-10.65,36.44,36.44,0,0,1,13.29-6.63c3.27-.84,7-1.28,10.3-.22,2.08.67,3.8,2.18,5.67,3.26a43.71,43.71,0,0,0,19.17,5.39c7.11.34,14.19-1.54,20.73-4.21,3.14-1.28,6.15-2.92,9.58-3.28C961.52,782.41,961.54,779.4,959.62,779.61Z"/><path class="cls-3" d="M827.14,544.64c-4.21,19-9.56,37.82-17,55.83q-3.72,9-8.23,17.67c-1.61,3.08-3.31,6.1-4.64,9.32a46.28,46.28,0,0,0-3.35,13.65c-1.63,17.43,4.56,36.37,16.61,49.11,3.08,3.26,6.73,6,9.59,9.43a20.42,20.42,0,0,1,4.26,9,37.34,37.34,0,0,1,.15,10.4A93,93,0,0,1,821.61,735c-1.73,6.38-4.48,12.42-6.08,18.83a86.89,86.89,0,0,0-2.1,26.75c.19,2.8.5,5.59.88,8.38a1.51,1.51,0,0,0,1.85,1,1.53,1.53,0,0,0,1-1.84,92.47,92.47,0,0,1,.33-29.42c1.17-6.25,3.54-12,5.5-18a99.75,99.75,0,0,0,3.46-13.82,69.22,69.22,0,0,0,1.28-14.64,25.12,25.12,0,0,0-1.29-7.25A27.68,27.68,0,0,0,819,694.14c-3.36-3.18-6.8-6.19-9.64-9.86a58.29,58.29,0,0,1-7.15-12.1,64.76,64.76,0,0,1-5.53-25.27,47.68,47.68,0,0,1,1.45-12.7,52.5,52.5,0,0,1,4.7-11.43c2.94-5.5,5.7-11.08,8.19-16.79a317.06,317.06,0,0,0,17.05-52.13q1-4.2,1.94-8.42c.42-1.88-2.47-2.69-2.89-.8Z"/><path class="cls-3" d="M904.14,474.67A170.77,170.77,0,0,0,841,499a178.49,178.49,0,0,0-51.6,51.73,279.48,279.48,0,0,0-29,59.14c-7.19,21.34-10.81,43.47-13.28,65.79a365.65,365.65,0,0,0-1,73.22q.3,3.4.68,6.78c.2,1.9,3.21,1.92,3,0a356.14,356.14,0,0,1-.71-70.17c2-21.9,5-43.86,11.12-65A256.08,256.08,0,0,1,787.69,559a181.08,181.08,0,0,1,46.49-51.64,165,165,0,0,1,64.54-28.56q3.1-.64,6.22-1.19c1.9-.34,1.09-3.23-.8-2.9Z"/><path class="cls-4" d="M1055.8,724.39c1.77-68,8.66-78.38,13.15-78.92,7.58-.91,9.88,25.9,37.82,55.9,5,5.37,9.28,9.19,8.22,13.15s-7.66,7.62-59.27,11.52c-13.14,1-14.43.89-24.58,1.63-40.72,3-70.45,5.33-72.34,14.8-1.68,8.37,18.73,20.5,16.44,29.6a32.33,32.33,0,0,1-3.29,8.22c-2.05,3.34-3.47,3.89-3.29,4.93.61,3.53,18,3.35,29.6,3.29,15-.08,22.49.37,26.54.29,22.07-.45,39.1-1.52,45.8-1.94,52.58-3.25,47.79.16,59.19-3.28,22.15-6.71,37-20.06,47.68-29.6,13.2-11.84,22.39-20.08,26.55-31.34,8.43-22.78-8.07-46-36.42-88.68-68.53-103.26-66.64-110.33-90.43-126.6-34.11-23.33-69.05-30.38-90.42-32.88"/><path class="cls-3" d="M982.78,404.6v82.13a6.68,6.68,0,0,0,0,1v.5q.24-.27.06,0a4.4,4.4,0,0,1-.49.87,45.52,45.52,0,0,1-20,18.52c-9.88,4.57-21,4.6-31.3,1.57a53.59,53.59,0,0,1-25.47-16.48l.44,1.06V453.39a1.5,1.5,0,0,0-3,0v36.89a27.09,27.09,0,0,0,0,3.49c.14,1.05,1.14,1.88,1.84,2.63s1.52,1.59,2.32,2.35a56.25,56.25,0,0,0,30.53,15,44.65,44.65,0,0,0,39.1-12.62A50.82,50.82,0,0,0,985.28,490c.83-1.48.5-3.37.5-5V404.6a1.5,1.5,0,0,0-3,0Z"/><path class="cls-3" d="M864,281c5.76,5.15,11.87,9.87,18.07,14.47,7,5.19,14.21,10.1,21.65,14.64A220.29,220.29,0,0,0,933,325.28a168.39,168.39,0,0,0,16.41,6c4.64,1.41,9.36,2.44,14.07,3.56a38.77,38.77,0,0,1,12.72,5.05,16.09,16.09,0,0,1,7.39,14.1c0,1.94,3,1.94,3,0a18.73,18.73,0,0,0-5.65-14.13,30.38,30.38,0,0,0-11.57-6.48c-3.74-1.25-7.61-1.94-11.43-2.87a152.7,152.7,0,0,1-17.24-5.34c-19.4-7.25-37.45-17.95-54.19-30.08a255.16,255.16,0,0,1-20.39-16.14c-1.43-1.29-3.56.83-2.12,2.12Z"/><path class="cls-3" d="M789.1,557.57c-3.78-8.67-5.46-18.35-2.91-27.6,2.81-10.24,9.29-18.64,15-27.33,4.49-6.79,5.71-16.09,4.44-24-.81-5-3-8.84-6-12.85a39.56,39.56,0,0,1-7.1-15.62,50.46,50.46,0,0,1,1.57-25.88c2.18-6.63,7.65-11.27,11.42-17A120.39,120.39,0,0,0,817,385.59c3.47-8.73,5.78-18.46,4-27.84a26.21,26.21,0,0,0-4.51-10.49,76.47,76.47,0,0,1-4.59-7.3A74.61,74.61,0,0,1,803,315.19c-2.6-16.38,2.25-36.47,14.81-48,6.37-5.86,15.18-9.08,23.18-12a116.34,116.34,0,0,1,11.84-3.77,30,30,0,0,1,4.3-.86,16.88,16.88,0,0,0,4.83-.73c2.83-1.16,3.5-3.41,4.45-6a11.25,11.25,0,0,0,.56-1.09c.38-.69.79-1.37,1.21-2a86.68,86.68,0,0,1,8.89-11.59,114.82,114.82,0,0,1,38.76-28.58,99.52,99.52,0,0,1,63.09-5.93c15.41,3.63,29.54,10.81,42.52,19.73,11.59,8,22.68,16.65,31.57,27.66a76.23,76.23,0,0,1,13.82,25.23,56.31,56.31,0,0,1,2.66,15.66c.07,4.23-.67,8.38-.94,12.6-.63,10,3,20,7.81,28.56a78,78,0,0,0,20.72,24.1,61.69,61.69,0,0,0,22.16,11,106.94,106.94,0,0,1,27.41,12,61.86,61.86,0,0,1,13.59,11c3.85,4.16,7.85,8.62,10.22,13.83,2.63,5.78,2.16,10.64.06,16.27-3.34,9-6.77,18-9.69,27.22-1,3.11-1.84,6.08-1.57,9.38a26,26,0,0,0,4.9,12.72c4.8,6.9,11.33,12.37,16.68,18.82A120.89,120.89,0,0,1,1192.42,497a99.66,99.66,0,0,1,11.36,28.35,71.46,71.46,0,0,1-.64,33.25,82.71,82.71,0,0,1-44.52,54.32c-1.73.85-.21,3.43,1.52,2.59A85.54,85.54,0,0,0,1195.39,584c10.4-16.69,15.36-36.57,11.94-56.1-3.09-17.67-12-34.29-23.14-48.21-4.86-6.08-10.73-11.26-15.62-17.31-3.23-4-6-8.67-6.32-13.92-.23-3.33.86-6.38,1.89-9.52,3-9.1,6.44-18,9.68-27a21.78,21.78,0,0,0-.42-16.75c-2.15-5-5.74-9.2-9.3-13.27a65.69,65.69,0,0,0-13.34-11.73,107,107,0,0,0-14.59-7.81,103.63,103.63,0,0,0-13.75-5.48c-2.94-.87-5.94-1.48-8.8-2.58a59.48,59.48,0,0,1-13.4-7.53,74.71,74.71,0,0,1-21.88-25.36,64,64,0,0,1-5.94-15.63,40.31,40.31,0,0,1-.53-13.59,62.48,62.48,0,0,0,.33-13.87,65.09,65.09,0,0,0-3.63-15.33c-6.21-16.84-18.56-30.62-32.45-41.63a181.33,181.33,0,0,0-31.31-20.44c-18.59-9.27-39.42-13.73-60.16-11.3A107.83,107.83,0,0,0,892,211.25c-9.93,7.59-19.15,16.74-26,27.28a31.51,31.51,0,0,0-2.13,3.69,9.52,9.52,0,0,0-.52,1.3c-.65,2.13-1.61,3.57-4,3.89a61.67,61.67,0,0,0-8.83,1.49,132.61,132.61,0,0,0-12.71,4.27c-8.1,3.12-16.65,6.51-22.95,12.69-6,5.85-9.91,13.48-12.43,21.37A61,61,0,0,0,799.71,313a75.25,75.25,0,0,0,8.42,26.31c1.28,2.43,2.68,4.78,4.16,7.08,2.23,3.47,4.38,6.34,5.44,10.44,2.48,9.67-.31,20-4,29a112.35,112.35,0,0,1-12.25,22.25c-2,2.79-4.36,5.28-6.43,8a26.47,26.47,0,0,0-4.11,8.58,53.78,53.78,0,0,0-1.12,26.66A41.26,41.26,0,0,0,797,467.12a42.74,42.74,0,0,1,3.61,5.24A23.56,23.56,0,0,1,803,481a34.85,34.85,0,0,1-1.64,14.48,31,31,0,0,1-4.8,8.59c-6.1,8.38-12.24,18.25-14,28.61-1.56,9,.37,18.1,4,26.42.77,1.76,3.36.24,2.59-1.52Z"/><path class="cls-3" d="M862.36,279.33a142.9,142.9,0,0,0-13.07,38.49A97.76,97.76,0,0,0,848,330.25a164.72,164.72,0,0,0,1.15,29.7,157.91,157.91,0,0,0,10.51,40.27c5.67,13.76,13.23,27.45,24,37.86a84.52,84.52,0,0,0,12.81,10,50.79,50.79,0,0,0,18.09,7.48c12.34,2.32,24.79-.53,35.7-6.47a69.58,69.58,0,0,0,24.62-22.34,83.53,83.53,0,0,0,13.58-36.37,103.64,103.64,0,0,0-.87-31q-.36-2.07-.81-4.14c-.41-1.89-3.3-1.09-2.89.8a104.36,104.36,0,0,1,2.3,24.86c-.38,13.34-3.56,26.63-10.16,38.29-5.44,9.61-12.72,18.16-22.06,24.18-8.75,5.65-18.72,9.69-29.24,10a44.66,44.66,0,0,1-20.47-4.35,71.89,71.89,0,0,1-13.3-8.58c-11-8.69-18.79-20.69-24.88-33.18a151.1,151.1,0,0,1-12.87-40.2,165.22,165.22,0,0,1-2.43-31.64c.07-3.41.24-6.83.55-10.24.1-1.09.21-2.18.35-3.27,0-.19.05-.39.07-.59a1.08,1.08,0,0,1,0-.22c0-.26.07-.52.11-.78a130.71,130.71,0,0,1,8.23-28.9c1.46-3.61,3.09-7.15,4.84-10.62.87-1.72-1.72-3.24-2.59-1.52Z"/></g></svg>
