<svg xmlns="http://www.w3.org/2000/svg" viewBox="0 0 1920 1080"><defs><style>.cls-1{fill:#e0a2a8;}.cls-2{fill:#bf7c80;}.cls-3{fill:#fff;}</style></defs><title>slide_ux</title><g id="Layer_2" data-name="Layer 2"><rect class="cls-1" x="1" width="1920" height="1080"/><path class="cls-2" d="M1293.71,489.09c0,183.74-149,332.69-332.69,332.69-107.69,0-186.58-55.74-208.5-73.43-8.42-6.8-127.15-105.77-124.19-259.26C631.41,329.58,765,156.4,961,156.4,1144.76,156.4,1293.71,305.35,1293.71,489.09Z"/></g><g id="Layer_11" data-name="Layer 11"><path class="cls-3" d="M1229.06,513.26H1083.39a56,56,0,0,0-5.94,0h-.27l1.5,1.5V424.61a25.39,25.39,0,0,0,0-3.7v-.17l-1.5,1.5h145.68a56,56,0,0,0,5.94,0h.26l-1.5-1.5v82.42c0,3.8-.17,7.64,0,11.43v.17a1.5,1.5,0,0,0,3,0V432.34c0-3.79.17-7.63,0-11.43v-.17a1.52,1.52,0,0,0-1.5-1.5H1095.89c-6.13,0-12.31-.2-18.44,0h-.27a1.52,1.52,0,0,0-1.5,1.5v82.42c0,3.8-.16,7.64,0,11.43a1,1,0,0,1,0,.17,1.52,1.52,0,0,0,1.5,1.5h133.17c6.14,0,12.31.2,18.45,0h.26A1.5,1.5,0,0,0,1229.06,513.26Z"/><path class="cls-3" d="M1153.61,473.12l7.46-4.87,17.83-11.63,21.66-14.12,18.65-12.17c3-2,6.14-3.88,9.12-5.95l.13-.08a1.52,1.52,0,0,0-.76-2.8H1096.41c-6,0-12.12-.21-18.16,0H1078a1.52,1.52,0,0,0-.76,2.8l7.47,4.87,17.82,11.62,21.66,14.13,18.65,12.16c3,2,6,4.17,9.12,5.95l.13.09c1.62,1.05,3.13-1.54,1.52-2.6l-7.47-4.86L1128.32,454l-21.66-14.12L1088,427.74l-6.19-4a26,26,0,0,0-2.94-1.92l-.13-.08-.75,2.79h143.63a51.36,51.36,0,0,0,5.82,0h.25l-.75-2.79-7.47,4.87-17.82,11.62L1180,452.33l-18.65,12.16c-3,2-6.15,3.89-9.13,5.95a.57.57,0,0,1-.13.08C1150.48,471.58,1152,474.17,1153.61,473.12Z"/><path class="cls-3" d="M866.33,203.57v90.14a26.88,26.88,0,0,0,0,3.7,1,1,0,0,1,0,.17l1.5-1.5H722.16a56,56,0,0,0-5.94,0H716l1.5,1.5v-34.2l-.44,1.06a352.18,352.18,0,0,1,45.77-42.68q6.38-4.95,13-9.58,3.19-2.24,6.45-4.41c1-.68,2-1.37,3.07-2,.12-.07,1.45-.95.59-.66h0a6.36,6.36,0,0,1,1.51,0h62.1c6,0,12,.19,18,0h.27a1.5,1.5,0,0,0,0-3h-79.4c-.82,0-1.67-.07-2.49,0a2.35,2.35,0,0,0-.82.2,16.4,16.4,0,0,0-2.29,1.5l-2.33,1.54q-4.32,2.9-8.56,5.92a349.05,349.05,0,0,0-32.09,25.94q-7.59,6.92-14.77,14.27-3.58,3.67-7.05,7.43a37.76,37.76,0,0,0-3.13,3.45,2.07,2.07,0,0,0-.44,1.25c-.22,5.07,0,10.21,0,15.29v18.72a1.52,1.52,0,0,0,1.5,1.5H849.13c6.13,0,12.31.2,18.44,0h.26a1.52,1.52,0,0,0,1.5-1.5V215.16c0-3.79.17-7.63,0-11.42v-.17A1.5,1.5,0,0,0,866.33,203.57Z"/><path class="cls-3" d="M865.73,204.52l-7.47,4.87L840.44,221l-21.66,14.13-18.65,12.16-6.19,4a22.83,22.83,0,0,0-2.94,1.92,1.48,1.48,0,0,1-.13.08h1.52L779,244.59l-21.42-14-4.94-3.22.3,2.35q10.33-8.66,21.33-16.48c1.86-1.32,3.74-2.63,5.63-3.91a18.07,18.07,0,0,0,2.55-1.72s.89-.62,0-.32h0a4.58,4.58,0,0,1,1.11,0H853c4.41,0,8.86.18,13.27,0h.19a1.5,1.5,0,0,0,0-3H784.33c-.54,0-1.08,0-1.62,0h-.26a4.52,4.52,0,0,0-2,1c-.91.62-1.83,1.23-2.74,1.86q-11.18,7.62-21.71,16.13-2.65,2.14-5.27,4.33a1.52,1.52,0,0,0,.3,2.36l13.43,8.76,21.42,14,4.94,3.22a1.48,1.48,0,0,0,1.52,0l7.46-4.87,17.83-11.63,21.66-14.12L858,213.15c3-2,6.14-3.89,9.13-6l.13-.09C868.86,206.06,867.36,203.47,865.73,204.52Z"/><path class="cls-3" d="M1075.84,659.94a42.11,42.11,0,1,1-.49-6.53,43.2,43.2,0,0,1,.49,6.53,1.5,1.5,0,0,0,3,0,45.3,45.3,0,1,0-.55,7,47.94,47.94,0,0,0,.55-7A1.5,1.5,0,0,0,1075.84,659.94Z"/><path class="cls-3" d="M1116.47,749.29a13.54,13.54,0,0,0,3.64-12c-.94-5.43-5.42-9-9-12.76l-25-26.38-14.2-15a1.52,1.52,0,0,0-2.36.31,31.28,31.28,0,0,1-17.73,14.7,1.52,1.52,0,0,0-.66,2.51l27,28,13.34,13.81c2.07,2.14,4,4.45,6.22,6.48a14.47,14.47,0,0,0,5.53,3.22,13.56,13.56,0,0,0,13.21-2.88c1.41-1.32-.71-3.44-2.12-2.13a10.53,10.53,0,0,1-10.45,2.06,11.7,11.7,0,0,1-5-3.4c-2-2.18-4.08-4.26-6.12-6.37q-12.63-13.1-25.28-26.18l-14.19-14.71-.66,2.51A34.37,34.37,0,0,0,1072.15,685l-2.35.31,23.61,24.93L1105,722.51l5.82,6.15c1.77,1.87,4,3.7,5.22,6a10.72,10.72,0,0,1-1.73,12.49A1.5,1.5,0,0,0,1116.47,749.29Z"/><path class="cls-3" d="M715.39,443.67a42.11,42.11,0,1,1-.49-6.53,43.2,43.2,0,0,1,.49,6.53,1.5,1.5,0,0,0,3,0,45.32,45.32,0,1,0-.55,7,47.94,47.94,0,0,0,.55-7A1.5,1.5,0,0,0,715.39,443.67Z"/><path class="cls-3" d="M756,533a13.5,13.5,0,0,0,3.64-12c-.93-5.42-5.42-9-9-12.76l-25-26.38-14.2-15a1.52,1.52,0,0,0-2.36.3,31.24,31.24,0,0,1-17.73,14.7,1.52,1.52,0,0,0-.66,2.51q13.5,14,27,28l13.33,13.81c2.07,2.14,4,4.45,6.22,6.48a14.42,14.42,0,0,0,5.53,3.22A13.56,13.56,0,0,0,756,533c1.42-1.32-.71-3.44-2.12-2.12A10.54,10.54,0,0,1,743.45,533a11.53,11.53,0,0,1-5-3.4c-2-2.18-4.07-4.26-6.12-6.37L707,497l-14.2-14.7-.66,2.5a34.3,34.3,0,0,0,19.52-16.08l-2.35.31L733,494l11.63,12.29,5.82,6.14c1.78,1.87,4,3.7,5.22,6a10.7,10.7,0,0,1-1.73,12.5C752.52,532.26,754.65,534.38,756,533Z"/><path class="cls-3" d="M864,694.76l-63.17.64,1.3.74-23-50-1.29,2.26h82.68a23.69,23.69,0,0,0,3.37,0H864l-1.5-1.5v49.36a1.5,1.5,0,0,0,3,0V646.9a1.52,1.52,0,0,0-1.5-1.5h-75.6c-3.47,0-7-.16-10.45,0h-.15a1.52,1.52,0,0,0-1.3,2.26l23,50a1.47,1.47,0,0,0,1.29.75l63.17-.64A1.5,1.5,0,0,0,864,694.76Z"/><path class="cls-3" d="M779.2,646.5l-2.26-6.8-.32-1a1.54,1.54,0,0,0-1.85-1,1.52,1.52,0,0,0-1,1.85l2.26,6.8.32,1a1.54,1.54,0,0,0,1.85,1.05,1.52,1.52,0,0,0,1-1.85Z"/><path class="cls-3" d="M775.57,637.69l-7.53-1.5L767,636a1.5,1.5,0,0,0-.8,2.89l7.54,1.51,1.08.22a1.5,1.5,0,1,0,.8-2.9Z"/><path class="cls-3" d="M813,718.59a11.28,11.28,0,1,1-9.11-11.09A11.41,11.41,0,0,1,813,718.59c0,1.93,3,1.93,3,0a14.29,14.29,0,1,0-11.48,14,14.5,14.5,0,0,0,11.48-14A1.5,1.5,0,0,0,813,718.59Z"/><path class="cls-3" d="M848,707.94a11.3,11.3,0,1,1-13.75,3.91A11.49,11.49,0,0,1,848,707.94a1.56,1.56,0,0,0,2.05-.54,1.51,1.51,0,0,0-.54-2,14.27,14.27,0,1,0,7.9,16.29,14.47,14.47,0,0,0-7.9-16.29C847.79,704.54,846.26,707.12,848,707.94Z"/><path class="cls-3" d="M1071.32,262l-63.16.63,1.29.75-23-50-1.3,2.26h82.69a23.55,23.55,0,0,0,3.36,0,.75.75,0,0,1,.15,0l-1.5-1.5v49.36a1.5,1.5,0,0,0,3,0V214.18a1.52,1.52,0,0,0-1.5-1.5h-75.6c-3.47,0-7-.17-10.45,0h-.15a1.52,1.52,0,0,0-1.3,2.25l23,50a1.47,1.47,0,0,0,1.3.74l63.16-.63A1.5,1.5,0,0,0,1071.32,262Z"/><path class="cls-3" d="M986.57,213.78,984.3,207l-.32-1a1.5,1.5,0,1,0-2.89.8l2.26,6.79.32,1a1.5,1.5,0,0,0,2.9-.79Z"/><path class="cls-3" d="M982.93,205l-7.53-1.51-1.09-.21a1.5,1.5,0,1,0-.79,2.89l7.53,1.51,1.09.21a1.5,1.5,0,1,0,.79-2.89Z"/><path class="cls-3" d="M1020.41,285.86a11.29,11.29,0,1,1-9.12-11.08,11.43,11.43,0,0,1,9.12,11.08,1.5,1.5,0,0,0,3,0,14.51,14.51,0,0,0-9.38-13.41,14.28,14.28,0,1,0,9.38,13.41A1.5,1.5,0,0,0,1020.41,285.86Z"/><path class="cls-3" d="M1055.38,275.21a11.5,11.5,0,0,1,6.79,11.13,11.3,11.3,0,1,1-6.79-11.13,1.54,1.54,0,0,0,2-.54,1.51,1.51,0,0,0-.54-2.05A14.28,14.28,0,0,0,1038,291.74a14.28,14.28,0,1,0,18.88-19.12C1055.15,271.81,1053.63,274.4,1055.38,275.21Z"/><path class="cls-3" d="M1293.25,489a332.55,332.55,0,0,1-230.18,316.43,330,330,0,0,1-204.28-.69A357.64,357.64,0,0,1,769.88,761c-19.27-13.1-36.06-28.85-51.58-46.22-44-49.26-76.38-109.95-86.64-175.61-10.95-70.09,5.39-142.6,39.24-204.39,33.53-61.2,84.61-112.84,147.07-144.42,61.88-31.29,133.42-40.85,201.55-28.62A331.92,331.92,0,0,1,1293.25,489c0,5.79,9,5.8,9,0-.13-72.12-23.06-143.32-65.8-201.5A344.48,344.48,0,0,0,1069.61,165.3c-67.3-22.69-142.1-23.9-209.74-1.91S733.68,229.72,691.26,286.48c-43,57.58-70.06,128.57-71.89,200.74-1.77,69.92,22.12,138,61.82,195,17.62,25.31,38.06,49.21,61.43,69.4,19.88,17.17,43,31,66.52,42.55,64.11,31.43,135.87,43.25,206.52,31.93,71.37-11.44,138.17-46.28,188.78-97.83A342,342,0,0,0,1298,543.08a350.54,350.54,0,0,0,4.29-54C1302.26,483.25,1293.26,483.24,1293.25,489Z"/><path class="cls-3" d="M891.41,171.67v153.2c0,4.21.41,8.8-.92,12.84a18.16,18.16,0,0,1-17,12.28H714.42A21.59,21.59,0,0,1,707,348.9,18.16,18.16,0,0,1,695.15,332c-.06-8.48,0-17,0-25.44V291.33a2,2,0,0,1,0-.42s0-.07,0-.1,0,0,0,0c-.41,1,.31.13.22.17.39-.17,1-1.38,1.28-1.72l1.15-1.52q1.32-1.75,2.66-3.48c1.71-2.2,3.45-4.38,5.2-6.54a354.33,354.33,0,0,1,46-46.88,337.17,337.17,0,0,1,52.55-36.53,319.32,319.32,0,0,1,55.86-24.64q14.48-4.78,29.36-8.16l-1.69-.68a18.46,18.46,0,0,1,3.68,10.87,1.5,1.5,0,0,0,3,0,21.24,21.24,0,0,0-4.09-12.39,1.59,1.59,0,0,0-1.7-.69,321.2,321.2,0,0,0-59.7,19.92A329,329,0,0,0,775,209.05a348.83,348.83,0,0,0-50.6,43.06q-11.7,12-22.24,25.13-2.58,3.22-5.1,6.49c-.83,1.07-1.65,2.15-2.46,3.23l-1.14,1.52a6.72,6.72,0,0,0-1.28,1.89,10.12,10.12,0,0,0-.06,2.58v30.68c0,2.81,0,5.61,0,8.42A21.22,21.22,0,0,0,704,350.87c5,2.39,10.07,2.12,15.35,2.12H864.16c3.16,0,6.33,0,9.49,0a21.15,21.15,0,0,0,18.92-12.41,23.19,23.19,0,0,0,1.84-9.55V171.67A1.5,1.5,0,0,0,891.41,171.67Z"/><path class="cls-3" d="M1120.75,193.22V328.36c0,1.63.07,3.28,0,4.91a18.15,18.15,0,0,1-17.89,16.54H943.26A18.06,18.06,0,0,1,924.49,331V175c0-1.18,0-2.35,0-3.53A18.06,18.06,0,0,1,935.6,154.9a13.12,13.12,0,0,1,4.28-.66c1.77-.11,3.54-.21,5.3-.29a334.86,334.86,0,0,1,145.11,25.53,331.43,331.43,0,0,1,31.21,15c1.69.93,3.21-1.66,1.51-2.59A338.54,338.54,0,0,0,943.25,151c-3.06.17-6.28,0-9.13,1.25a21,21,0,0,0-12.54,17.37c-.15,1.62-.09,3.27-.09,4.89V331.14A21,21,0,0,0,943,352.81h146.85c4.49,0,9,.11,13.47,0a21.17,21.17,0,0,0,20.05-17.09,38.25,38.25,0,0,0,.36-6.93V193.22A1.5,1.5,0,0,0,1120.75,193.22Z"/><path class="cls-3" d="M792,387.29V547A18.37,18.37,0,0,1,783.32,563a18.12,18.12,0,0,1-9.39,2.57H632.76l1.44,1.1A297.19,297.19,0,0,1,625.33,489a320.45,320.45,0,0,1,11.4-77.74,355.34,355.34,0,0,1,14.76-43.05l-1.45,1.1h118.3c1.86,0,3.73,0,5.59,0A17.93,17.93,0,0,1,792,387.29a1.5,1.5,0,0,0,3,0A21.23,21.23,0,0,0,779.11,367a32.42,32.42,0,0,0-7.92-.61H669.1c-6.25,0-12.55-.21-18.79,0H650a1.54,1.54,0,0,0-1.44,1.1,346.63,346.63,0,0,0-22.27,77.75,299.86,299.86,0,0,0,5,122.31,1.53,1.53,0,0,0,1.45,1.1H774a21.23,21.23,0,0,0,20.43-16.1,33.78,33.78,0,0,0,.57-7.9V387.29A1.5,1.5,0,0,0,792,387.29Z"/><path class="cls-3" d="M1152.48,596.12V758.3a65.24,65.24,0,0,0,0,6.56,2.62,2.62,0,0,1,0,.28l.74-1.3c-4.94,3.7-10.26,7-15.5,10.26q-4,2.52-8.15,4.92c-1.38.8-2.75,1.59-4.14,2.37,0,0-1.39.74-.49.49h0a5.43,5.43,0,0,1-1.14,0H968.59c-2.74,0-5.3-.19-7.71-1.78-3.38-2.25-4.66-5.91-4.66-9.78V597c0-4.3,1.81-8.21,5.78-10.27,2.14-1.1,4.34-1.12,6.64-1.12h173a10.68,10.68,0,0,1,10.82,10.5c0,1.93,3,1.93,3,0a13.7,13.7,0,0,0-10.08-13.06,16.62,16.62,0,0,0-4.27-.44H966.73a13.73,13.73,0,0,0-12.72,9c-1,2.67-.79,5.55-.79,8.35V765.8c0,1.85,0,3.71,0,5.56a13.66,13.66,0,0,0,7.86,12.27,15,15,0,0,0,6.3,1.25h155.31c.71,0,1.44,0,2.15,0h.1a6,6,0,0,0,2.21-1c1-.55,1.94-1.1,2.9-1.66q5.46-3.15,10.8-6.52t10.53-6.92l2.54-1.75c.65-.45,1.39-.82,1.53-1.67a1.58,1.58,0,0,0,0-.28c0-.65,0-1.32,0-2v-167A1.5,1.5,0,0,0,1152.48,596.12Z"/><path class="cls-3" d="M1296.25,489a337.51,337.51,0,0,1-5.32,59.78q-1.47,8.19-3.36,16.3l1.84-1a18.26,18.26,0,0,1-10.77-13.31,22.23,22.23,0,0,1-.29-4.15v-154c0-1.81,0-3.63,0-5.44a18.36,18.36,0,0,1,2-8.25l-2.74-.35a335,335,0,0,1,17.68,85q.95,12.71,1,25.46a1.5,1.5,0,0,0,3,0,340.64,340.64,0,0,0-11.55-88q-3.17-11.79-7.19-23.33a1.52,1.52,0,0,0-2.74-.36,22,22,0,0,0-2.42,10.13V545.8c0,.56,0,1.12,0,1.68a21.23,21.23,0,0,0,5.84,14.5,21.67,21.67,0,0,0,7.43,5,1.51,1.51,0,0,0,1.84-1.05,339.62,339.62,0,0,0,8.34-59.45c.3-5.8.44-11.62.45-17.43A1.5,1.5,0,0,0,1296.25,489Z"/><path class="cls-3" d="M1241,565.85H1066.09a10.56,10.56,0,0,1-10.9-10.86V385.3c0-1.73,0-3.47,0-5.21a10.66,10.66,0,0,1,10.51-10.5h174.91a10.72,10.72,0,0,1,10.84,10.92c0,2.6,0,5.19,0,7.78V554.06c0,.43,0,.86,0,1.29a10.64,10.64,0,0,1-10.5,10.5c-1.93,0-1.93,3,0,3a13.7,13.7,0,0,0,13.18-10.57,18.29,18.29,0,0,0,.32-3.9V388c0-2.53,0-5.07,0-7.6a13.73,13.73,0,0,0-13.67-13.82H1067c-.65,0-1.31,0-2,0a13.65,13.65,0,0,0-12.6,11.21,43,43,0,0,0-.21,6.9V555.07a13.92,13.92,0,0,0,3.63,9.47,13.71,13.71,0,0,0,10.09,4.31h175A1.5,1.5,0,0,0,1241,565.85Z"/><path class="cls-3" d="M1283,582.75a332.45,332.45,0,0,1-29.28,69.93,336.33,336.33,0,0,1-42.18,59.23,340.62,340.62,0,0,1-31.3,30.9l2.56,1.06v-130c0-3.74,0-7.49,0-11.23a18.22,18.22,0,0,1,10.77-16.48c3-1.34,6.14-1.49,9.35-1.49h81.52a1.5,1.5,0,0,0,0-3h-83.64a21.26,21.26,0,0,0-17.76,9.78,21.79,21.79,0,0,0-3.24,11.9V743.87a1.52,1.52,0,0,0,2.56,1.06,342.44,342.44,0,0,0,51.77-56.23,336.65,336.65,0,0,0,51.76-105.15A1.5,1.5,0,0,0,1283,582.75Z"/><path class="cls-3" d="M920.57,602.59V745.66c0,5.76,0,11.53,0,17.29a18.18,18.18,0,0,1-18,18H798.83a18.36,18.36,0,0,1-2.46,0h-.07c.64.13,0-.15-.14-.28a14.36,14.36,0,0,0-2.14-1.2c-1-.55-2-1.1-2.94-1.67q-4.77-2.73-9.46-5.62a308.56,308.56,0,0,1-27.55-18.9c-5.65-4.37-11-9.12-16.2-14-4.8-4.53-9.45-9.2-14-14l.44,1.06v-103c0-6.88,0-13.76,0-20.64a18.16,18.16,0,0,1,16.54-17.95c1.72-.13,3.46-.05,5.17-.05H901.33c5.07,0,9.85,1.34,13.62,4.92a18.16,18.16,0,0,1,5.62,13,1.5,1.5,0,0,0,3,0,21.21,21.21,0,0,0-20.24-20.93c-1.63-.06-3.27,0-4.9,0h-156a21.27,21.27,0,0,0-20,14.32c-1.13,3.33-1.08,6.7-1.08,10.14V720.3a59.84,59.84,0,0,0,0,6c.11,1.07,1.1,1.77,1.8,2.5q1.93,2,3.92,4,3.51,3.54,7.11,7c3.4,3.24,6.86,6.42,10.41,9.49,5.36,4.65,11,8.94,16.82,13.05q7.23,5.14,14.72,9.87c6.2,3.93,12.49,7.85,19,11.23a4.85,4.85,0,0,0,2.64.45h101c3.76,0,7.44.08,11.05-1.25a21.28,21.28,0,0,0,13.84-19.88c0-2,0-4,0-6V602.59A1.5,1.5,0,0,0,920.57,602.59Z"/><path class="cls-3" d="M690.53,607.45v82.16l2.8-.75a384.68,384.68,0,0,1-22.77-34.35,353,353,0,0,1-20.65-41q-5.4-12.75-9.68-25.93l-1.45,1.9H670c3.32,0,6.52.09,9.65,1.44a18.19,18.19,0,0,1,10.89,16.5,1.5,1.5,0,0,0,3,0,21.22,21.22,0,0,0-8.69-17,21.81,21.81,0,0,0-13.17-4H638.78a1.51,1.51,0,0,0-1.44,1.9,337.48,337.48,0,0,0,18.28,44.74,366,366,0,0,0,22.09,38.55q6.24,9.52,13,18.67a1.51,1.51,0,0,0,2.79-.76V607.45A1.5,1.5,0,0,0,690.53,607.45Z"/><path class="cls-3" d="M1050.78,812.29a336.82,336.82,0,0,1-79.38,12.05,323.81,323.81,0,0,1-77.93-7,342.43,342.43,0,0,1-38-10.48l.89,2.2a18.2,18.2,0,0,1,15.49-8.92H1032.2a18,18,0,0,1,17.54,14c.44,1.87,3.34,1.08,2.89-.8a21.28,21.28,0,0,0-20.77-16.23H872.06a21.14,21.14,0,0,0-11.83,3.54,21.86,21.86,0,0,0-6.46,6.87,1.52,1.52,0,0,0,.9,2.2,337.66,337.66,0,0,0,71.53,15.89,332.29,332.29,0,0,0,81.14-1.3,336.43,336.43,0,0,0,44.24-9.13A1.5,1.5,0,0,0,1050.78,812.29Z"/><path class="cls-3" d="M863.06,440.12V522.6c0,3.8-.17,7.64,0,11.44v.17a1.5,1.5,0,0,0,3,0V451.72c0-3.8.17-7.64,0-11.43v-.17a1.5,1.5,0,0,0-3,0Z"/><path class="cls-3" d="M984.56,440.12V522.6c0,3.8-.17,7.64,0,11.44v.17a1.5,1.5,0,0,0,3,0V451.72c0-3.8.17-7.64,0-11.43v-.17a1.5,1.5,0,0,0-3,0Z"/><path class="cls-3" d="M865.32,440.26l20.51-13.95,32.71-22.24,7.53-5.12c1.59-1.08.09-3.68-1.52-2.59L904,410.31l-32.71,22.25-7.53,5.11c-1.58,1.08-.08,3.68,1.52,2.59Z"/><path class="cls-3" d="M986.82,437.67,966.3,423.72l-32.71-22.24-7.52-5.12c-1.6-1.09-3.11,1.51-1.52,2.59l20.52,13.95,32.71,22.25,7.52,5.11c1.6,1.09,3.11-1.51,1.52-2.59Z"/><path class="cls-3" d="M893.4,535.36V482.57a1.5,1.5,0,0,0-3,0v52.79a1.5,1.5,0,0,0,3,0Z"/><path class="cls-3" d="M925.31,481.07H891.9a1.5,1.5,0,0,0,0,3h33.41a1.5,1.5,0,0,0,0-3Z"/><path class="cls-3" d="M926.81,535.36V482.57a1.5,1.5,0,0,0-3,0v52.79a1.5,1.5,0,0,0,3,0Z"/><path class="cls-3" d="M986.06,533.86H925.31a1.5,1.5,0,0,0,0,3h60.75a1.5,1.5,0,0,0,0-3Z"/><path class="cls-3" d="M864.56,536.86H891.9a1.5,1.5,0,0,0,0-3H864.56a1.5,1.5,0,0,0,0,3Z"/><path class="cls-3" d="M1010.51,565.45H835.64a10.55,10.55,0,0,1-10.89-10.87V384.9c0-1.74,0-3.48,0-5.21a10.64,10.64,0,0,1,10.5-10.5h174.92A10.71,10.71,0,0,1,1021,380.11V553.66c0,.43,0,.86,0,1.29a10.65,10.65,0,0,1-10.5,10.5c-1.93,0-1.93,3,0,3a13.69,13.69,0,0,0,13.17-10.57A17.71,17.71,0,0,0,1024,554V387.61c0-2.54,0-5.07,0-7.61a13.72,13.72,0,0,0-13.68-13.81H836.52c-.65,0-1.31,0-2,0A13.64,13.64,0,0,0,822,377.42a44,44,0,0,0-.2,6.89V554.67a13.56,13.56,0,0,0,13.72,13.78h175A1.5,1.5,0,0,0,1010.51,565.45Z"/><path class="cls-3" d="M1191.11,244.57l0,25.23,0,40.34v9.22a1.5,1.5,0,0,0,3,0l0-25.23-.05-40.34v-9.22a1.5,1.5,0,0,0-3,0Z"/><path class="cls-3" d="M1221.53,320.51V267.73a1.5,1.5,0,0,0-3,0v52.78a1.5,1.5,0,0,0,3,0Z"/><path class="cls-3" d="M1192.69,322H1220a1.5,1.5,0,0,0,0-3h-27.34a1.5,1.5,0,0,0,0,3Z"/><path class="cls-3" d="M1268.75,350.6h-96.63a19.79,19.79,0,0,1-10.38-2.48,18.17,18.17,0,0,1-8.86-15.55c0-4.34,0-8.69,0-13V211.13l-2.26,1.3a336.15,336.15,0,0,1,116.83,140.43c.79,1.76,3.37.24,2.59-1.51a337.22,337.22,0,0,0-35.63-61.55,340.79,340.79,0,0,0-49.52-54.4,345.18,345.18,0,0,0-32.75-25.56,1.51,1.51,0,0,0-2.26,1.29V331.66a22.58,22.58,0,0,0,2.49,10.88,21.2,21.2,0,0,0,18.45,11.06c4.67,0,9.34,0,14,0h83.92A1.5,1.5,0,0,0,1268.75,350.6Z"/><path class="cls-3" d="M1214.13,645.06l-.11,21.78-.19,34.71,0,8a1.5,1.5,0,0,0,3,0l.12-21.78.18-34.71,0-8a1.5,1.5,0,0,0-3,0Z"/><path class="cls-3" d="M1216.39,645.21l20.52-14L1269.62,609l7.52-5.12c1.59-1.08.09-3.68-1.51-2.59l-20.52,14L1222.4,637.5l-7.52,5.12c-1.59,1.08-.09,3.68,1.51,2.59Z"/></g></svg>
