<svg xmlns="http://www.w3.org/2000/svg" viewBox="0 0 1920 1080"><defs><style>.cls-1{fill:#665565;}.cls-2{fill:#362c35;}.cls-3{fill:#fff;}</style></defs><title>slide_animation</title><g id="Layer_2" data-name="Layer 2"><rect class="cls-1" y="-1" width="1920" height="1080"/><path class="cls-2" d="M1297,485.13c0,187.21-151.76,339-339,339-109.73,0-190.11-56.79-212.44-74.81C737,742.36,616,641.51,619.06,485.13c3.13-162.53,139.29-339,339-339C1145.24,146.15,1297,297.92,1297,485.13Z"/></g><g id="Layer_15" data-name="Layer 15"><path class="cls-3" d="M1292.66,485a334.7,334.7,0,0,1-241.34,321.38A333.31,333.31,0,0,1,936.9,818.79c-40.56-2.7-80.56-13.37-117.5-30.23a346.57,346.57,0,0,1-67.28-40c-.54-.41.31.25-.6-.46l-1-.78c-.58-.46-1.17-.93-1.74-1.4s-.89-.72-1.32-1.08c-1.62-1.34-3.2-2.72-4.77-4.11-5.69-5-11.17-10.32-16.49-15.75a390.63,390.63,0,0,1-47.46-58.89c-18.74-28.54-33.69-59.57-43.24-92.38a299.08,299.08,0,0,1-10.44-113.22,338.29,338.29,0,0,1,25.31-97.62,365.32,365.32,0,0,1,54.27-89.78A348.32,348.32,0,0,1,783.81,202a320.72,320.72,0,0,1,100.73-43.13A332.23,332.23,0,0,1,1103,183.34,333.78,333.78,0,0,1,1292.66,485c0,5.79,9,5.8,9,0A343.18,343.18,0,0,0,940,141.93a328.44,328.44,0,0,0-113,26.66,340,340,0,0,0-92.49,60.09A372.58,372.58,0,0,0,625.14,409.5c-9.09,35.26-12.67,72-9.34,108.34,3.51,38.32,14.37,75.54,31,110.18a386.25,386.25,0,0,0,50.54,78.32,360.82,360.82,0,0,0,39.47,41.21c12,10.55,25.22,19.65,38.8,28A368.32,368.32,0,0,0,873,817.27a336.47,336.47,0,0,0,127.58,8.6,343.31,343.31,0,0,0,296.57-285.26,351.49,351.49,0,0,0,4.5-55.64C1301.67,479.18,1292.67,479.17,1292.66,485Z"/><path class="cls-3" d="M680.22,580.41a5,5,0,1,1-4.17-4.95,5.06,5.06,0,0,1,4.17,4.95c0,1.93,3,1.94,3,0a8.14,8.14,0,0,0-5.28-7.53,8,8,0,0,0-8.87,2.37,8,8,0,1,0,14.15,5.16C683.25,578.48,680.25,578.48,680.22,580.41Z"/><path class="cls-3" d="M862.77,740.15a5,5,0,1,1-4.17-5,5.07,5.07,0,0,1,4.17,5c0,1.93,3,1.93,3,0a8.15,8.15,0,0,0-5.28-7.54,8,8,0,1,0,5.28,7.54A1.5,1.5,0,0,0,862.77,740.15Z"/><path class="cls-3" d="M875.81,660.28a5,5,0,1,1-4.17-4.95,5.07,5.07,0,0,1,4.17,4.95c0,1.93,3,1.93,3,0a8.14,8.14,0,0,0-5.28-7.53,8,8,0,0,0-8.86,2.36,8,8,0,1,0,14.14,5.17C878.84,658.35,875.84,658.35,875.81,660.28Z"/><circle class="cls-3" cx="1116.1" cy="737.7" r="6.52"/><path class="cls-3" d="M1121.12,737.7a5,5,0,1,1-4.17-5,5.07,5.07,0,0,1,4.17,5,1.5,1.5,0,0,0,3,0,8.13,8.13,0,0,0-5.29-7.53,8,8,0,0,0-8.86,2.37,8,8,0,1,0,14.15,5.16A1.5,1.5,0,0,0,1121.12,737.7Z"/><circle class="cls-3" cx="734.69" cy="512.77" r="6.52"/><path class="cls-3" d="M739.71,512.77a5,5,0,1,1-4.17-4.95,5.07,5.07,0,0,1,4.17,4.95c0,1.93,3,1.93,3,0a8.13,8.13,0,0,0-5.28-7.53,8,8,0,0,0-9.63,11.63,8,8,0,0,0,14.91-4.1C742.74,510.84,739.74,510.84,739.71,512.77Z"/><path class="cls-3" d="M1118.67,650.5a5,5,0,1,1-4.17-5,5.07,5.07,0,0,1,4.17,5c0,1.93,3,1.93,3,0a8.13,8.13,0,0,0-5.28-7.53,8,8,0,0,0-8.86,2.36,8,8,0,1,0,14.14,5.17C1121.7,648.57,1118.7,648.57,1118.67,650.5Z"/><path class="cls-3" d="M1107,649.91l-6.16.24-16.69.66-24.67,1L1029.21,653l-33.1,1.3-33.28,1.31-31,1.22-26.32,1-18.85.75c-3,.11-6,.18-9,.35h-.38c-1.93.08-1.94,3.08,0,3l6.16-.24,16.69-.66,24.67-1L955,658.88l33.1-1.3,33.28-1.31,31-1.22,26.32-1,18.85-.74c3-.12,6-.19,9-.36h.38c1.93-.08,1.94-3.08,0-3Z"/><path class="cls-3" d="M854.24,734.64l-4.65-4-12.6-11-18.63-16.2-22.82-19.85-25-21.74L745.42,640,722,619.6l-19.87-17.29-14.24-12.39c-2.25-1.95-4.48-3.93-6.75-5.87l-.29-.25c-1.45-1.27-3.58.85-2.12,2.12l4.65,4,12.6,11,18.63,16.2L737.41,637l25,21.74,25.13,21.86L811,701l19.87,17.29,14.24,12.39c2.25,2,4.48,3.93,6.75,5.87l.29.25c1.45,1.27,3.58-.85,2.12-2.12Z"/><path class="cls-3" d="M1115.5,734.67c-14.41-19.67-30.68-38.31-50.19-53.08-12.77-9.66-27.09-17.55-42.61-21.74a92,92,0,0,0-43.37-1.35c-16.25,3.54-30.94,11.67-46.12,18.12A171.83,171.83,0,0,1,906,685.79,158,158,0,0,1,871.57,690c-15.87.27-31.72-.63-47.23-4.17-22.24-5.08-43.22-15.48-59.14-32-13.84-14.4-23-32.56-28.09-51.77a180.93,180.93,0,0,1-5.51-50.83,198.71,198.71,0,0,1,3.12-31.36c.16-.89.33-1.77.52-2.65.4-1.89-2.49-2.69-2.89-.8a178,178,0,0,0-3.23,24.23,200.43,200.43,0,0,0,2,47.82c3.19,19,9.72,37.64,20.66,53.59,12.74,18.56,31,32.38,51.84,40.6,17.78,7,36.94,9.95,56,10.39s38-1.14,56.26-6.74c16.76-5.14,32.06-13.67,48.36-20,15-5.76,30.69-8.18,46.65-5.83,14.22,2.09,27.7,7.51,40,14.92,18.84,11.39,34.83,27.06,48.86,43.87,4.6,5.5,9,11.17,13.22,16.95,1.13,1.55,3.74.05,2.6-1.51Z"/><path class="cls-3" d="M1033.47,215.67a28.6,28.6,0,0,1,19.37-.6,26.35,26.35,0,0,1,15.3,14.69,29.63,29.63,0,0,1,1.77,5.5c.42,1.89,3.31,1.09,2.9-.79a32.7,32.7,0,0,0-6.81-13.84,28.55,28.55,0,0,0-24.27-9.86,33.12,33.12,0,0,0-9.06,2c-1.78.68-1,3.58.8,2.89Z"/><path class="cls-3" d="M811.34,623.94l4.4-20,7-31.88,1.61-7.32c.41-1.89-2.48-2.69-2.89-.8l-4.41,20-7,31.88-1.62,7.32c-.41,1.89,2.48,2.69,2.9.8Z"/><path class="cls-3" d="M891.45,420a70.77,70.77,0,0,0,28.24-29.58c.86-1.72-1.72-3.24-2.59-1.52a68,68,0,0,1-27.16,28.51,1.5,1.5,0,0,0,1.51,2.59Z"/><path class="cls-3" d="M899.38,437.38a28.84,28.84,0,0,0-21.85-26.2c-1.88-.45-2.68,2.44-.8,2.9a25.78,25.78,0,0,1,19.65,23.3c.13,1.91,3.13,1.93,3,0Z"/><path class="cls-3" d="M924.64,391.26A83.48,83.48,0,0,1,909,374.15c-1.08-1.59-3.68-.09-2.59,1.51a86.25,86.25,0,0,0,16.13,17.72,1.55,1.55,0,0,0,2.12,0,1.51,1.51,0,0,0,0-2.12Z"/><path class="cls-3" d="M1031,214.22l-4.3,7.15L1015,240.84l-17.31,28.8-21.12,35.13-23.14,38.48-23.35,38.84L908.29,418.3,889.9,448.89l-13.19,21.93c-2.08,3.47-4.22,6.91-6.26,10.41l-.27.45a1.5,1.5,0,0,0,2.6,1.51l4.3-7.15,11.7-19.47,17.32-28.8,21.12-35.13,23.13-38.48,23.36-38.84,21.76-36.21,18.4-30.59,13.18-21.93c2.09-3.47,4.23-6.91,6.26-10.41l.27-.45a1.5,1.5,0,0,0-2.59-1.51Z"/><path class="cls-3" d="M1070,235.18l-4.14,6.9-11.26,18.78-16.66,27.78-20.32,33.89-22.18,37L973,396.87l-20.94,34.92L934.38,461.3l-12.71,21.2c-2,3.33-4,6.64-6,10l-.26.43a1.5,1.5,0,0,0,2.59,1.52l4.14-6.91,11.26-18.78L950.06,441l20.32-33.88,22.19-37L1015,332.75l20.94-34.92,17.69-29.51,12.72-21.2c2-3.33,4-6.64,6-10,.08-.15.17-.29.25-.43a1.5,1.5,0,0,0-2.59-1.51Z"/><path class="cls-3" d="M928.23,471.72c-.42-.32,0,0,.06,0l.36.31c.28.25.54.51.79.78s.26.29.38.44a2.75,2.75,0,0,1,.22.26c-.14-.17,0,0,.06.08a13.52,13.52,0,0,1,.82,1.3,10.14,10.14,0,0,1,1,2.86c0,.23.09.46.13.7,0-.14,0-.16,0,0l0,.37c0,.34,0,.68,0,1a1.5,1.5,0,0,0,3,0,13.52,13.52,0,0,0-5.4-10.76,1.51,1.51,0,0,0-2,.54,1.55,1.55,0,0,0,.54,2.06Z"/><path class="cls-3" d="M940,455.32a15.73,15.73,0,0,1,5.17,4.38,16.58,16.58,0,0,1,3.18,7.61,1.52,1.52,0,0,0,1.85,1.05,1.55,1.55,0,0,0,1.05-1.85,19.26,19.26,0,0,0-9.73-13.78c-1.7-.92-3.22,1.66-1.52,2.59Z"/><path class="cls-3" d="M948.62,461.28a76.58,76.58,0,0,0,21.78-35.47,1.5,1.5,0,0,0-2.89-.8,73.65,73.65,0,0,1-21,34.14c-1.43,1.31.7,3.43,2.12,2.13Z"/><path class="cls-3" d="M960.42,420.73a31.3,31.3,0,0,0,29.11,3.73c1.79-.68,1-3.58-.8-2.89a28.55,28.55,0,0,1-26.8-3.43c-1.57-1.12-3.07,1.48-1.51,2.59Z"/><path class="cls-3" d="M876,560.24a17.3,17.3,0,0,0,17.3,6.28A21.47,21.47,0,0,0,907.18,555c.83-1.74-1.75-3.26-2.59-1.52a18.71,18.71,0,0,1-11.71,10c-5.6,1.45-11.2-1-14.72-5.43-1.21-1.5-3.32.63-2.12,2.12Z"/><path class="cls-3" d="M942.17,566.65c-1.56,4.61-4.37,9-8.54,11.64a12.31,12.31,0,0,1-12.44.76c-7.1-3.7-9.54-11.56-9.19-19.13a30.06,30.06,0,0,1,1-6.73,1.5,1.5,0,0,0-2.89-.8c-1.78,6.34-1.71,13.84.93,19.9a19.4,19.4,0,0,0,8.37,9.21,15.25,15.25,0,0,0,14.61,0c5.47-2.88,9.12-8.34,11-14.08.62-1.83-2.28-2.62-2.89-.8Z"/><path class="cls-3" d="M964.45,533.29a95.35,95.35,0,0,1,2,22.66,46.74,46.74,0,0,1-1.54,10.12,18,18,0,0,1-2.11,4.76c-.24.36-.48.71-.73,1.06L962,572l-.64.78c-2.67,3.15-7.7,7.56-11.72,3.92-3.12-2.83-4.24-7.62-3.78-11.65a83.85,83.85,0,0,0-.22-19.71c-.22-1.89-3.22-1.91-3,0a80.89,80.89,0,0,1,.26,19.42A17.09,17.09,0,0,0,947,578.33a8.28,8.28,0,0,0,7.88,2.55c2.77-.59,5.21-2.47,7.18-4.43a22.87,22.87,0,0,0,4.16-5.53,31.67,31.67,0,0,0,2.81-10.7c1.16-9.18.06-18.68-1.65-27.73-.36-1.89-3.25-1.09-2.9.8Z"/><path class="cls-3" d="M938.19,536.41a41.46,41.46,0,0,0-18-21.87,1.5,1.5,0,0,0-1.52,2.59,38.21,38.21,0,0,1,16.57,20.08c.64,1.81,3.54,1,2.9-.8Z"/><path class="cls-3" d="M995.77,268a188.55,188.55,0,0,0-21.31-4.51c-5.73-.86-12.44-2.27-17.9.39a14,14,0,0,0-6.64,7.76c-.7,1.79,2.2,2.57,2.9.79a10.52,10.52,0,0,1,7.06-6.6c3.58-.91,7.5-.3,11.09.17a184.92,184.92,0,0,1,24,4.89,1.5,1.5,0,0,0,.8-2.89Z"/><path class="cls-3" d="M832.09,399.58a5.42,5.42,0,0,1-2.16-6.2,5.2,5.2,0,0,1,6.29-3,1.05,1.05,0,0,0,.56-2,7.33,7.33,0,0,0-8.82,4.32,7.52,7.52,0,0,0,3.07,8.7c1.12.75,2.18-1.06,1.06-1.81Z"/><path class="cls-3" d="M837.11,397.8a46.31,46.31,0,0,1,14.82,2.29,40.41,40.41,0,0,1,11,5.11A21.57,21.57,0,0,1,871.36,417c1.37,4.77,1.63,9.9,1.82,14.84a55.7,55.7,0,0,1-.65,10.94c-.55,3.51-1.25,7-1.64,10.54a95.33,95.33,0,0,0-.32,15,73.47,73.47,0,0,1-.65,15.54,110,110,0,0,1-10.57,31.48c-.87,1.72,1.72,3.24,2.59,1.51a118.37,118.37,0,0,0,10.25-28.81,69.13,69.13,0,0,0,1.54-16.54,136.71,136.71,0,0,1-.06-15.94c.6-7.5,2.67-14.77,2.55-22.34-.16-10.09-1-21.27-9-28.43-3.9-3.49-8.65-5.65-13.56-7.3a50.51,50.51,0,0,0-16.53-2.7,1.5,1.5,0,0,0,0,3Z"/><path class="cls-3" d="M898.57,352.12a18.28,18.28,0,0,1,5.92,12.41c.16,4.49-1.44,9.22-3.42,13.21-3.87,7.79-10.4,14.38-17.29,19.58a83.17,83.17,0,0,1-16.18,9.45c-1.76.78-.23,3.37,1.52,2.59a80.36,80.36,0,0,0,25-17.19,52.52,52.52,0,0,0,9.4-12.63,33.81,33.81,0,0,0,4-13.92A21.2,21.2,0,0,0,900.69,350c-1.39-1.34-3.52.78-2.12,2.12Z"/><path class="cls-3" d="M936.25,370.18a58.9,58.9,0,0,1-30.59.81c-1.88-.46-2.68,2.43-.8,2.89a62,62,0,0,0,32.19-.81c1.84-.55,1.06-3.45-.8-2.89Z"/><path class="cls-3" d="M837.72,541.86c-5.16.43-10.91-1.29-12.5-6.79-1.47-5.09.27-11.58,2.66-16.16a64.39,64.39,0,0,0,3.44-7,50.74,50.74,0,0,0,2.39-8.89A94.09,94.09,0,0,0,835,484.92c-.12-8.36-.64-17.16-3.37-25.12a75.86,75.86,0,0,1-3.36-17.36c-.56-5.8-.45-11.59-.62-17.4a52.44,52.44,0,0,0-3.2-16.43c-1.05-2.91-2.4-5.67-3.71-8.47a15.15,15.15,0,0,1-1.67-6.42c-.07-7,4-13,8.67-17.89,5.53-5.84,11.49-11.32,17.37-16.8,9.24-8.62,18.69-17,28.43-25.07q3.95-3.25,8-6.43l1.16-.9a2.3,2.3,0,0,1,.2-.16l.41-.31,1.43-1.08q8.67-6.48,17.39-12.87c3.49-2.56,7-5.07,10.5-7.64a14.79,14.79,0,0,0,3.07-3.74,32.74,32.74,0,0,0,2.58-4.63A38,38,0,0,1,927.9,284a41.45,41.45,0,0,1,20.59-9.74,43.51,43.51,0,0,1,6.93-.59,1.5,1.5,0,0,0,0-3,45.65,45.65,0,0,0-35.73,17.71,31,31,0,0,0-3.72,5.7c-1.29,2.73-2.68,5.82-4.91,7.92a56.27,56.27,0,0,1-5.64,4.13l-5.19,3.79q-4.74,3.48-9.45,7c-5.06,3.75-10.1,7.49-15,11.44-8.76,7.06-17.26,14.44-25.59,22q-9.26,8.4-18.23,17.12c-5,4.9-10.56,9.86-13.58,16.34-2.61,5.6-3,11.6-.49,17.26,1.26,2.79,2.66,5.49,3.7,8.37a54.19,54.19,0,0,1,2.53,9.34c.84,5,.54,10.11.66,15.15a107.28,107.28,0,0,0,2.5,21.66c.93,4,2.57,7.72,3.29,11.77a103.72,103.72,0,0,1,1.26,12.07,111.35,111.35,0,0,1-.26,17.42c-.61,6.1-1.84,12.43-4.76,17.89a42.33,42.33,0,0,0-3.6,7.86,34,34,0,0,0-1.43,7.28,15.15,15.15,0,0,0,2,9.21,12.58,12.58,0,0,0,7.72,5.33,19.66,19.66,0,0,0,6.26.48c1.91-.17,1.92-3.17,0-3Z"/><path class="cls-3" d="M823.34,565.44l9.74-19,1.37-2.66c.88-1.71-1.71-3.23-2.59-1.51l-9.75,19-1.36,2.66c-.88,1.72,1.7,3.24,2.59,1.52Z"/><path class="cls-3" d="M874.75,555.44l-16.19,27.68-2.32,4a1.5,1.5,0,0,0,2.59,1.51L875,560.94l2.33-4a1.5,1.5,0,0,0-2.59-1.52Z"/><path class="cls-3" d="M856.77,586.56l-15.82,12-25.13,19-5.8,4.39c-1.52,1.14,0,3.75,1.52,2.59l15.83-12,25.12-19,5.8-4.39c1.52-1.15,0-3.76-1.52-2.59Z"/><path class="cls-3" d="M812.23,623.6l3.82-19.85,6-31.38,1.41-7.29c.36-1.89-2.53-2.7-2.9-.8l-3.81,19.85-6,31.38-1.41,7.29c-.36,1.89,2.53,2.7,2.9.8Z"/><path class="cls-3" d="M1042.48,283.93a264.68,264.68,0,0,0,62.68,11.5,289.47,289.47,0,0,0,71.6-4.86,272.92,272.92,0,0,0,46-13.25c1.78-.69,1-3.59-.8-2.89a275.51,275.51,0,0,1-74.48,17.28,271.09,271.09,0,0,1-63.27-1.4,275.8,275.8,0,0,1-41-9.27c-1.85-.57-2.64,2.32-.8,2.89Z"/><path class="cls-3" d="M1282.16,379.53c-29.38,7.62-58.74,15.42-87.82,24.12-7.31,2.18-14.86,4.18-21.89,7.2A39.64,39.64,0,0,0,1155,425.29c-2.65,4-4,8.58-6.63,12.6-6.19,9.6-15.9,17-25.21,23.32a267.41,267.41,0,0,1-36.53,20.57,283,283,0,0,1-35.92,14.34c-12.59,4-25.24,7.75-37.88,11.55-11.58,3.47-22.74,6.4-33.21,12.8-4.42,2.7-8.46,5.92-12.64,8.95a98.6,98.6,0,0,1-16.16,9.6,161.79,161.79,0,0,1-40.5,12.6,124.6,124.6,0,0,1-18.07,1.92c-4.19.11-8.37.1-12.54.6-6.53.78-12.71,2.71-19,4.35-4.51,1.17-9.25,1.86-13.48-.56a16.77,16.77,0,0,1-6.46-7.45c-4.42-9.24,3.41-17.94,9.83-23.88A116,116,0,0,1,868,513.67q5.34-3.33,10.9-6.31,2.85-1.55,5.75-3c2.2-1.11,4.52-2.56,6.92-3.14,4.65-1.13,9.47-1.8,14.17-2.69l6.87-1.3c1.86-.36,4.69-.36,6.25-1.45a32.8,32.8,0,0,0,3.08-2.94c1.34-1.26,2.7-2.49,4.08-3.71,3.31-2.91,6.77-5.61,10.2-8.37a137.06,137.06,0,0,1,18.35-12.95c4.21-2.38,8.62-4.4,12.79-6.85a53.16,53.16,0,0,0,11.74-9.39A76.63,76.63,0,0,0,990,437.52c7.33-12.72,7-27.82-.06-40.58a49.3,49.3,0,0,0-7-9.73c-1.32-1.42-3.43.71-2.12,2.12,8.08,8.73,12.92,20.9,11.38,32.84-.94,7.29-4.3,13.93-8.74,19.71a74.8,74.8,0,0,1-11.67,12.38A67.43,67.43,0,0,1,960,461.51a137.58,137.58,0,0,0-14.78,8.58,226.25,226.25,0,0,0-20.27,16c-1.37,1.18-2.72,2.39-4.05,3.61a40.32,40.32,0,0,1-3.5,3.3c-1.48,1.07-4.22,1.09-6,1.44l-7.3,1.38-6.88,1.3a57.67,57.67,0,0,0-7.3,1.39,45.22,45.22,0,0,0-5.66,2.72q-3.29,1.64-6.51,3.37a168.87,168.87,0,0,0-20.45,12.71,80.31,80.31,0,0,0-14,12.51c-2.93,3.45-5.69,7.45-6.64,12s.32,8.64,2.68,12.4c4.11,6.54,10.74,9.32,18.31,8.08,7-1.16,13.68-3.87,20.74-4.91a104.63,104.63,0,0,1,12.88-.76A144.28,144.28,0,0,0,925,551.45c14.48-3.87,29-9.29,41.35-17.9,4.21-2.93,8.19-6.18,12.48-9a86.18,86.18,0,0,1,17.61-8.78c2-.74,4-1.3,6.1-1.9q14.78-4.35,29.51-8.88c12-3.65,24-7.15,35.64-11.74a325.61,325.61,0,0,0,37.7-17.66c11.52-6.35,22.83-13.44,32.8-22.08a74,74,0,0,0,11.19-11.81c2.68-3.61,4.15-7.6,6.23-11.53A36.65,36.65,0,0,1,1173,413.89a87.55,87.55,0,0,1,9.85-3.55c24.27-7.81,49-14.37,73.6-20.94q13.26-3.54,26.54-7c1.86-.48,1.07-3.38-.8-2.89Z"/></g></svg>
