<svg xmlns="http://www.w3.org/2000/svg" viewBox="0 0 1920 1080"><defs><style>.cls-1{fill:#999b54;}.cls-2{fill:#6b6f35;}.cls-3,.cls-4{fill:#fff;}.cls-3{stroke:#fff;stroke-miterlimit:10;}</style></defs><title>slide_web</title><g id="Layer_2" data-name="Layer 2"><rect class="cls-1" x="0.5" width="1920" height="1080"/><path class="cls-2" d="M1300.07,485.59c0,185.79-150.62,336.41-336.41,336.41-108.9,0-188.67-56.36-210.84-74.25-8.52-6.87-128.57-107-125.58-262.16,3.12-161.31,138.24-336.42,336.42-336.42C1149.45,149.17,1300.07,299.79,1300.07,485.59Z"/><circle class="cls-3" cx="685.82" cy="374.3" r="6.53"/><circle class="cls-3" cx="715.22" cy="565.4" r="6.53"/><circle class="cls-3" cx="693.7" cy="566.01" r="6.53"/><circle class="cls-3" cx="665.94" cy="566.01" r="6.53"/><path class="cls-4" d="M666.75,567.51h25.32a1.5,1.5,0,0,0,0-3H666.75a1.5,1.5,0,0,0,0,3Z"/><circle class="cls-3" cx="687.17" cy="396.14" r="6.53"/><circle class="cls-3" cx="710.32" cy="331.83" r="6.53"/><circle class="cls-3" cx="710.32" cy="353.06" r="6.53"/><circle class="cls-3" cx="710.32" cy="395.53" r="6.53"/><circle class="cls-3" cx="713.58" cy="480.47" r="6.53"/><circle class="cls-3" cx="677.65" cy="522.93" r="6.53"/><circle class="cls-3" cx="677.65" cy="544.17" r="6.53"/><circle class="cls-3" cx="713.58" cy="501.7" r="6.53"/><circle class="cls-3" cx="715.22" cy="586.64" r="6.53"/><circle class="cls-3" cx="659.4" cy="396.14" r="6.53"/><path class="cls-4" d="M660.22,397.64h25.32a1.5,1.5,0,0,0,0-3H660.22a1.5,1.5,0,0,0,0,3Z"/><line class="cls-4" x1="680.28" y1="479.65" x2="699.14" y2="460.79"/><path class="cls-4" d="M681.34,480.71l16.51-16.51,2.35-2.35a1.5,1.5,0,0,0-2.12-2.12l-16.51,16.51-2.35,2.34a1.5,1.5,0,0,0,2.12,2.13Z"/><line class="cls-4" x1="680.28" y1="458.41" x2="699.14" y2="439.55"/><path class="cls-4" d="M681.34,459.47,697.85,443l2.35-2.35a1.5,1.5,0,0,0-2.12-2.12L681.57,455l-2.35,2.35a1.5,1.5,0,0,0,2.12,2.12Z"/><line class="cls-4" x1="680.28" y1="437.18" x2="699.14" y2="418.32"/><path class="cls-4" d="M681.34,438.24l16.51-16.51,2.35-2.35a1.5,1.5,0,0,0-2.12-2.12l-16.51,16.51-2.35,2.35a1.5,1.5,0,0,0,2.12,2.12Z"/><circle class="cls-3" cx="659.72" cy="459.09" r="6.53"/><circle class="cls-3" cx="659.72" cy="437.85" r="6.53"/><circle class="cls-3" cx="659.72" cy="480.32" r="6.53"/><line class="cls-4" x1="743.84" y1="459.09" x2="700.52" y2="459.23"/><path class="cls-4" d="M743.84,457.59l-14.65,0-23.25.08-5.42,0a1.5,1.5,0,0,0,0,3l14.65-.05,23.25-.08h5.42a1.5,1.5,0,0,0,0-3Z"/><line class="cls-4" x1="680.14" y1="437.85" x2="666.26" y2="437.85"/><path class="cls-4" d="M680.14,436.35H666.26a1.5,1.5,0,0,0,0,3h13.88a1.5,1.5,0,0,0,0-3Z"/><line class="cls-4" x1="680.14" y1="459.09" x2="666.26" y2="459.09"/><path class="cls-4" d="M680.14,457.59H666.26a1.5,1.5,0,0,0,0,3h13.88a1.5,1.5,0,0,0,0-3Z"/><line class="cls-4" x1="680.14" y1="480.32" x2="666.26" y2="480.32"/><path class="cls-4" d="M680.14,478.82H666.26a1.5,1.5,0,0,0,0,3h13.88a1.5,1.5,0,0,0,0-3Z"/><line class="cls-4" x1="743.84" y1="416.62" x2="700.52" y2="416.76"/><path class="cls-4" d="M743.84,415.12l-14.65.05-23.25.07-5.42,0a1.5,1.5,0,0,0,0,3l14.65-.05,23.25-.07,5.42,0a1.5,1.5,0,0,0,0-3Z"/><line class="cls-4" x1="743.84" y1="437.85" x2="700.52" y2="438"/><path class="cls-4" d="M743.84,436.35l-14.65,0-23.25.08-5.42,0a1.5,1.5,0,0,0,0,3l14.65-.05,23.25-.08,5.42,0a1.5,1.5,0,0,0,0-3Z"/><line class="cls-4" x1="1114.75" y1="693.42" x2="1095.89" y2="712.28"/><path class="cls-4" d="M1113.69,692.36l-16.51,16.51-2.35,2.35a1.5,1.5,0,0,0,2.12,2.12l16.51-16.51,2.35-2.35a1.5,1.5,0,0,0-2.12-2.12Z"/><line class="cls-4" x1="1090.19" y1="693.46" x2="1071.33" y2="712.32"/><path class="cls-4" d="M1089.13,692.4l-16.51,16.51-2.35,2.35a1.5,1.5,0,0,0,2.13,2.12l16.5-16.51,2.35-2.35a1.5,1.5,0,0,0-2.12-2.12Z"/><line class="cls-4" x1="1254.91" y1="504.01" x2="1236.05" y2="522.87"/><path class="cls-4" d="M1253.85,503l-16.51,16.51L1235,521.8a1.5,1.5,0,0,0,2.12,2.13l16.51-16.51,2.35-2.35a1.5,1.5,0,0,0-2.12-2.12Z"/><line class="cls-4" x1="1254.91" y1="525.24" x2="1236.05" y2="544.1"/><path class="cls-4" d="M1253.85,524.18l-16.51,16.51L1235,543a1.5,1.5,0,0,0,2.12,2.12l16.51-16.51,2.35-2.35a1.5,1.5,0,0,0-2.12-2.12Z"/><line class="cls-4" x1="1254.91" y1="546.48" x2="1236.05" y2="565.33"/><path class="cls-4" d="M1253.85,545.41l-16.51,16.51-2.35,2.35a1.5,1.5,0,0,0,2.12,2.12l16.51-16.5,2.35-2.35a1.5,1.5,0,0,0-2.12-2.13Z"/><circle class="cls-3" cx="1061.5" cy="189.72" r="6.53"/><circle class="cls-3" cx="1110.5" cy="274.66" r="6.53"/><circle class="cls-3" cx="1257.5" cy="416.76" r="6.53"/><circle class="cls-3" cx="1257.5" cy="438" r="6.53"/><circle class="cls-3" cx="1262.4" cy="395.53" r="6.53"/><circle class="cls-3" cx="1234.64" cy="395.53" r="6.53"/><circle class="cls-3" cx="1213.4" cy="331.83" r="6.53"/><circle class="cls-3" cx="1213.4" cy="353.06" r="6.53"/><circle class="cls-3" cx="1213.4" cy="374.3" r="6.53"/><circle class="cls-3" cx="1211.77" cy="459.23" r="6.53"/><circle class="cls-3" cx="1211.77" cy="480.47" r="6.53"/><circle class="cls-3" cx="1211.77" cy="501.7" r="6.53"/><circle class="cls-3" cx="1211.77" cy="586.64" r="6.53"/><circle class="cls-3" cx="1136.63" cy="691.17" r="6.53"/><circle class="cls-3" cx="1095.8" cy="736.91" r="6.53"/><circle class="cls-3" cx="1071.3" cy="738.54" r="6.53"/><circle class="cls-3" cx="1041.9" cy="635.64" r="6.53"/><circle class="cls-3" cx="894.89" cy="635.64" r="6.53"/><circle class="cls-3" cx="870.39" cy="635.64" r="6.53"/><circle class="cls-3" cx="845.89" cy="635.64" r="6.53"/><circle class="cls-3" cx="796.89" cy="678.11" r="6.53"/><circle class="cls-3" cx="772.39" cy="678.11" r="6.53"/><circle class="cls-3" cx="820.87" cy="703.6" r="6.53"/><circle class="cls-3" cx="820.87" cy="742.8" r="6.53"/><path class="cls-4" d="M819.37,709.32v29.4a1.5,1.5,0,0,0,3,0v-29.4a1.5,1.5,0,0,0-3,0Z"/><circle class="cls-3" cx="845.89" cy="663.41" r="6.53"/><circle class="cls-3" cx="821.39" cy="678.11" r="6.53"/><circle class="cls-3" cx="845.89" cy="702.61" r="6.53"/><circle class="cls-3" cx="1066.4" cy="635.64" r="6.53"/><circle class="cls-3" cx="1157.87" cy="704.24" r="6.53"/><circle class="cls-3" cx="1157.87" cy="665.04" r="6.53"/><circle class="cls-3" cx="1157.87" cy="640.54" r="6.53"/><circle class="cls-3" cx="1275.47" cy="524.57" r="6.53"/><circle class="cls-3" cx="1275.47" cy="545.8" r="6.53"/><circle class="cls-3" cx="1275.47" cy="503.33" r="6.53"/><circle class="cls-3" cx="1213.4" cy="395.53" r="6.53"/><circle class="cls-3" cx="1152.97" cy="274.66" r="6.53"/><circle class="cls-3" cx="1131.73" cy="274.66" r="6.53"/><circle class="cls-3" cx="1061.5" cy="263.22" r="6.53"/><circle class="cls-3" cx="987.99" cy="274.66" r="6.53"/><circle class="cls-3" cx="963.49" cy="274.66" r="6.53"/><circle class="cls-3" cx="791.99" cy="274.66" r="6.53"/><circle class="cls-3" cx="767.49" cy="274.66" r="6.53"/><circle class="cls-3" cx="865.49" cy="274.66" r="6.53"/><circle class="cls-3" cx="840.99" cy="219.12" r="6.53"/><circle class="cls-3" cx="816.49" cy="219.12" r="6.53"/><circle class="cls-3" cx="1036.99" cy="189.72" r="6.53"/><circle class="cls-3" cx="1012.49" cy="189.72" r="6.53"/><circle class="cls-3" cx="914.49" cy="186.46" r="6.53"/><circle class="cls-3" cx="865.49" cy="186.46" r="6.53"/><circle class="cls-3" cx="889.99" cy="186.46" r="6.53"/><line class="cls-4" x1="865.5" y1="210.73" x2="890" y2="238.49"/><path class="cls-4" d="M864.43,211.79l21.48,24.33,3,3.43c1.28,1.46,3.39-.67,2.12-2.12L869.58,213.1l-3-3.43c-1.28-1.46-3.4.67-2.13,2.12Z"/><line class="cls-4" x1="890" y1="210.73" x2="914.5" y2="238.49"/><path class="cls-4" d="M888.94,211.79l21.47,24.33,3,3.43c1.28,1.46,3.39-.67,2.12-2.12L894.09,213.1l-3-3.43c-1.28-1.46-3.4.67-2.12,2.12Z"/><line class="cls-4" x1="914.5" y1="210.73" x2="939" y2="238.49"/><path class="cls-4" d="M913.44,211.79l21.47,24.33,3,3.43c1.28,1.46,3.39-.67,2.12-2.12L918.59,213.1l-3-3.43c-1.28-1.46-3.4.67-2.12,2.12Z"/><line class="cls-4" x1="1061.5" y1="224.02" x2="1086" y2="251.79"/><path class="cls-4" d="M1060.44,225.08l21.47,24.34,3,3.43c1.28,1.45,3.39-.68,2.12-2.12l-21.47-24.33-3-3.44c-1.28-1.45-3.4.68-2.12,2.12Z"/><path class="cls-4" d="M677.65,524.43h67.78a1.5,1.5,0,0,0,0-3H677.65a1.5,1.5,0,0,0,0,3Z"/><path class="cls-4" d="M716,588.14h29.4a1.5,1.5,0,0,0,0-3H716a1.5,1.5,0,0,0,0,3Z"/><path class="cls-4" d="M716,566.9h29.4a1.5,1.5,0,0,0,0-3H716a1.5,1.5,0,0,0,0,3Z"/><path class="cls-4" d="M677.65,545.67h67.78a1.5,1.5,0,0,0,0-3H677.65a1.5,1.5,0,0,0,0,3Z"/><path class="cls-4" d="M716,503.2h29.4a1.5,1.5,0,0,0,0-3H716a1.5,1.5,0,0,0,0,3Z"/><path class="cls-4" d="M716,482h29.4a1.5,1.5,0,0,0,0-3H716a1.5,1.5,0,0,0,0,3Z"/><path class="cls-4" d="M716,397h29.4a1.5,1.5,0,0,0,0-3H716a1.5,1.5,0,0,0,0,3Z"/><path class="cls-4" d="M687.45,375.8h58a1.5,1.5,0,0,0,0-3h-58a1.5,1.5,0,0,0,0,3Z"/><path class="cls-4" d="M716,354.56h29.4a1.5,1.5,0,0,0,0-3H716a1.5,1.5,0,0,0,0,3Z"/><path class="cls-4" d="M715.22,333.33h29.4a1.5,1.5,0,0,0,0-3h-29.4a1.5,1.5,0,0,0,0,3Z"/><path class="cls-4" d="M1181.55,524.43h53.09a1.5,1.5,0,0,0,0-3h-53.09a1.5,1.5,0,0,0,0,3Z"/><path class="cls-4" d="M1255.05,547.3h13.89a1.5,1.5,0,0,0,0-3h-13.89a1.5,1.5,0,0,0,0,3Z"/><path class="cls-4" d="M1255.05,526.07h13.89a1.5,1.5,0,0,0,0-3h-13.89a1.5,1.5,0,0,0,0,3Z"/><path class="cls-4" d="M1255.05,504.83h13.89a1.5,1.5,0,0,0,0-3h-13.89a1.5,1.5,0,0,0,0,3Z"/><path class="cls-4" d="M1181.55,588.14H1211a1.5,1.5,0,0,0,0-3h-29.4a1.5,1.5,0,0,0,0,3Z"/><path class="cls-4" d="M1181.55,566.9h53.09a1.5,1.5,0,0,0,0-3h-53.09a1.5,1.5,0,0,0,0,3Z"/><path class="cls-4" d="M1181.55,545.67h53.09a1.5,1.5,0,0,0,0-3h-53.09a1.5,1.5,0,0,0,0,3Z"/><path class="cls-4" d="M1181.55,503.2H1211a1.5,1.5,0,0,0,0-3h-29.4a1.5,1.5,0,0,0,0,3Z"/><path class="cls-4" d="M1181.55,482H1211a1.5,1.5,0,0,0,0-3h-29.4a1.5,1.5,0,0,0,0,3Z"/><path class="cls-4" d="M1181.55,460.73H1211a1.5,1.5,0,0,0,0-3h-29.4a1.5,1.5,0,0,0,0,3Z"/><path class="cls-4" d="M1181.55,439.5h74.32a1.5,1.5,0,0,0,0-3h-74.32a1.5,1.5,0,0,0,0,3Z"/><path class="cls-4" d="M1181.55,418.26h74.32a1.5,1.5,0,0,0,0-3h-74.32a1.5,1.5,0,0,0,0,3Z"/><path class="cls-4" d="M1181.55,397H1211a1.5,1.5,0,0,0,0-3h-29.4a1.5,1.5,0,0,0,0,3Z"/><path class="cls-4" d="M1181.55,375.8H1211a1.5,1.5,0,0,0,0-3h-29.4a1.5,1.5,0,0,0,0,3Z"/><path class="cls-4" d="M1235.45,397h25.32a1.5,1.5,0,0,0,0-3h-25.32a1.5,1.5,0,0,0,0,3Z"/><path class="cls-4" d="M1181.55,354.56H1211a1.5,1.5,0,0,0,0-3h-29.4a1.5,1.5,0,0,0,0,3Z"/><path class="cls-4" d="M1156.37,607.05v29.4a1.5,1.5,0,0,0,3,0v-29.4a1.5,1.5,0,0,0-3,0Z"/><path class="cls-4" d="M1135.13,607.05v75.18c0,3.46-.16,7,0,10.43v.15a1.5,1.5,0,0,0,3,0V617.63c0-3.46.16-7,0-10.43v-.15a1.5,1.5,0,0,0-3,0Z"/><path class="cls-4" d="M1113.9,607.05v75.18c0,3.46-.16,7,0,10.43v.15a1.5,1.5,0,0,0,3,0V617.63c0-3.46.16-7,0-10.43v-.15a1.5,1.5,0,0,0-3,0Z"/><path class="cls-4" d="M1089.4,607.05v75.18c0,3.46-.16,7,0,10.43v.15a1.5,1.5,0,0,0,3,0V617.63c0-3.46.16-7,0-10.43a.75.75,0,0,1,0-.15,1.5,1.5,0,0,0-3,0Z"/><path class="cls-4" d="M1064.9,607.05v29.4a1.5,1.5,0,0,0,3,0v-29.4a1.5,1.5,0,0,0-3,0Z"/><path class="cls-4" d="M1040.4,607.05v29.4a1.5,1.5,0,0,0,3,0v-29.4a1.5,1.5,0,0,0-3,0Z"/><path class="cls-4" d="M893.39,607.05v29.4a1.5,1.5,0,0,0,3,0v-29.4a1.5,1.5,0,0,0-3,0Z"/><path class="cls-4" d="M868.89,607.05v29.4a1.5,1.5,0,0,0,3,0v-29.4a1.5,1.5,0,0,0-3,0Z"/><path class="cls-4" d="M844.39,607.05v29.4a1.5,1.5,0,0,0,3,0v-29.4a1.5,1.5,0,0,0-3,0Z"/><path class="cls-4" d="M844.39,669.12v29.4a1.5,1.5,0,0,0,3,0v-29.4a1.5,1.5,0,0,0-3,0Z"/><path class="cls-4" d="M1094.3,713.22V732a1.5,1.5,0,0,0,3,0V713.22a1.5,1.5,0,0,0-3,0Z"/><path class="cls-4" d="M1069.8,713.22V732a1.5,1.5,0,0,0,3,0V713.22a1.5,1.5,0,0,0-3,0Z"/><path class="cls-4" d="M1156.37,669.12v29.4a1.5,1.5,0,0,0,3,0v-29.4a1.5,1.5,0,0,0-3,0Z"/><path class="cls-4" d="M819.89,607.05v69.42a1.5,1.5,0,0,0,3,0V607.05a1.5,1.5,0,0,0-3,0Z"/><path class="cls-4" d="M795.39,607.05v69.42a1.5,1.5,0,0,0,3,0V607.05a1.5,1.5,0,0,0-3,0Z"/><path class="cls-4" d="M770.89,607.05v69.42a1.5,1.5,0,0,0,3,0V607.05a1.5,1.5,0,0,0-3,0Z"/><path class="cls-4" d="M1151.47,280.38v29.4a1.5,1.5,0,0,0,3,0v-29.4a1.5,1.5,0,0,0-3,0Z"/><path class="cls-4" d="M1130.23,280.38v29.4a1.5,1.5,0,0,0,3,0v-29.4a1.5,1.5,0,0,0-3,0Z"/><path class="cls-4" d="M1109,280.38v29.4a1.5,1.5,0,0,0,3,0v-29.4a1.5,1.5,0,0,0-3,0Z"/><path class="cls-4" d="M1084.5,251.79v58a1.5,1.5,0,0,0,3,0v-58a1.5,1.5,0,0,0-3,0Z"/><path class="cls-4" d="M1060,268.12v41.66a1.5,1.5,0,0,0,3,0V268.12a1.5,1.5,0,0,0-3,0Z"/><path class="cls-4" d="M1060,194.62v28.59a1.5,1.5,0,0,0,3,0V194.62a1.5,1.5,0,0,0-3,0Z"/><path class="cls-4" d="M1035.49,194.62v101c0,4.64-.18,9.33,0,14a1.47,1.47,0,0,1,0,.21,1.5,1.5,0,0,0,3,0v-101c0-4.64.19-9.33,0-14v-.21a1.5,1.5,0,0,0-3,0Z"/><path class="cls-4" d="M1011,194.62v101c0,4.64-.18,9.33,0,14a1.47,1.47,0,0,1,0,.21,1.5,1.5,0,0,0,3,0v-101c0-4.64.19-9.33,0-14v-.21a1.5,1.5,0,0,0-3,0Z"/><path class="cls-4" d="M986.49,280.38v29.4a1.5,1.5,0,0,0,3,0v-29.4a1.5,1.5,0,0,0-3,0Z"/><path class="cls-4" d="M962,280.38v29.4a1.5,1.5,0,0,0,3,0v-29.4a1.5,1.5,0,0,0-3,0Z"/><path class="cls-4" d="M937.49,238.72v71.06a1.5,1.5,0,0,0,3,0V238.72a1.5,1.5,0,0,0-3,0Z"/><path class="cls-4" d="M913,238.72v71.06a1.5,1.5,0,0,0,3,0V238.72a1.5,1.5,0,0,0-3,0Z"/><path class="cls-4" d="M888.49,238.72v71.06a1.5,1.5,0,0,0,3,0V238.72a1.5,1.5,0,0,0-3,0Z"/><path class="cls-4" d="M864,192.17V211a1.5,1.5,0,0,0,3,0V192.17a1.5,1.5,0,0,0-3,0Z"/><path class="cls-4" d="M888.49,192.17V211a1.5,1.5,0,0,0,3,0V192.17a1.5,1.5,0,0,0-3,0Z"/><path class="cls-4" d="M913,192.17V211a1.5,1.5,0,0,0,3,0V192.17a1.5,1.5,0,0,0-3,0Z"/><path class="cls-4" d="M864,280.38v29.4a1.5,1.5,0,0,0,3,0v-29.4a1.5,1.5,0,0,0-3,0Z"/><path class="cls-4" d="M839.49,224V299.2c0,3.46-.16,7,0,10.43v.15a1.5,1.5,0,0,0,3,0V234.6c0-3.46.16-7,0-10.43V224a1.5,1.5,0,0,0-3,0Z"/><path class="cls-4" d="M815,224V299.2c0,3.46-.16,7,0,10.43v.15a1.5,1.5,0,0,0,3,0V234.6c0-3.46.16-7,0-10.43a.75.75,0,0,1,0-.15,1.5,1.5,0,0,0-3,0Z"/><path class="cls-4" d="M790.49,280.38v29.4a1.5,1.5,0,0,0,3,0v-29.4a1.5,1.5,0,0,0-3,0Z"/><path class="cls-4" d="M766,280.38v29.4a1.5,1.5,0,0,0,3,0v-29.4a1.5,1.5,0,0,0-3,0Z"/><path class="cls-4" d="M1180.73,333.33h29.4a1.5,1.5,0,0,0,0-3h-29.4a1.5,1.5,0,0,0,0,3Z"/><line class="cls-3" x1="746.25" y1="428.2" x2="746.25" y2="519.67"/><path class="cls-4" d="M1056.6,663.41H870.39V651.93a4.86,4.86,0,0,1,4.86-4.86h176.49a4.87,4.87,0,0,1,4.86,4.86Z"/><path class="cls-4" d="M1056.6,661.91H878c-2.39,0-4.9-.23-7.28,0h-.31l1.5,1.5V652.46a3.62,3.62,0,0,1,3.89-3.89h174.13c.61,0,1.22,0,1.82,0,2.28.09,3.37,1.87,3.37,3.95v10.89a1.5,1.5,0,0,0,3,0c0-3.7,0-7.4,0-11.1a6.54,6.54,0,0,0-6.64-6.74c-3,0-6,0-9,0H876.6a9.42,9.42,0,0,0-3.72.47,6.56,6.56,0,0,0-4,6.37c0,2.12,0,4.25,0,6.37v4.63a1.52,1.52,0,0,0,1.5,1.5H1049c2.43,0,4.86.06,7.29,0h.31A1.5,1.5,0,0,0,1056.6,661.91Z"/><path class="cls-4" d="M1007.73,607.05v40a1.5,1.5,0,0,0,3,0v-40a1.5,1.5,0,0,0-3,0Z"/><path class="cls-4" d="M919.52,607.06v40a1.5,1.5,0,0,0,3,0v-40a1.5,1.5,0,0,0-3,0Z"/><path class="cls-4" d="M1148.56,548.45H784.16c-2.1,0-4.21,0-6.31,0-5.76-.11-9.73-4.74-9.75-10.32,0-1.79,0-3.59,0-5.39V357.22c0-5.11,0-10.23,0-15.34,0-5.56,4-10.15,9.75-10.25H1147c.78,0,1.57,0,2.35,0,5.48.44,8.92,5.17,8.93,10.39s0,10.65,0,16V533.25c0,1.64,0,3.28,0,4.93a10,10,0,0,1-9.75,10.27c-2.89.07-2.9,4.57,0,4.5a14.49,14.49,0,0,0,14.25-14.42c0-1.45,0-2.89,0-4.34V358.26c0-5.41,0-10.81,0-16.21,0-8.73-6.62-14.92-15.22-14.92H779.39c-.88,0-1.76,0-2.63.05A14.49,14.49,0,0,0,763.6,341.6c-.06,4.72,0,9.45,0,14.17V538.13a14.56,14.56,0,0,0,8.73,13.68c3.4,1.44,7.14,1.14,10.76,1.14h365.47C1151.46,553,1151.46,548.45,1148.56,548.45Z"/><path class="cls-4" d="M1168.85,604.44H767.17c-2.93,0-5.86,0-8.78,0-6-.12-10.2-5-10.22-10.82,0-1.87,0-3.73,0-5.6V340.63c0-5.75,0-11.5,0-17.25s4-10.86,10.2-11h410.47c6.11.13,10.19,5,10.21,10.91,0,5.63,0,11.25,0,16.87V587.73c0,1.9,0,3.79,0,5.69,0,5.92-4,10.86-10.2,11-2.31,0-2.32,3.65,0,3.6a14.07,14.07,0,0,0,13.8-14.19c0-1.73,0-3.47,0-5.2V340.06c0-5.62,0-11.24,0-16.85,0-6.46-4-12.38-10.42-14a20.77,20.77,0,0,0-5.09-.42H760.3c-1,0-2.08,0-3.12.06a14,14,0,0,0-12.61,14.2c0,5.41,0,10.82,0,16.22V588.16c0,1.85,0,3.7,0,5.55,0,6.85,4.6,13,11.55,14.13,3.21.52,6.68.2,9.91.2h402.82A1.8,1.8,0,0,0,1168.85,604.44Z"/><path class="cls-4" d="M1299,482.32a335.37,335.37,0,0,1-241.87,322.07,333.69,333.69,0,0,1-114.66,12.47c-40.64-2.7-80.73-13.4-117.75-30.3A347.2,347.2,0,0,1,757.3,746.5c-.54-.41.3.24-.6-.47-.33-.26-.67-.51-1-.78-.59-.46-1.18-.92-1.76-1.39l-1.32-1.09c-1.62-1.35-3.2-2.73-4.78-4.12-5.7-5-11.19-10.34-16.52-15.78a391.2,391.2,0,0,1-47.56-59c-18.78-28.6-33.77-59.7-43.34-92.58A299.91,299.91,0,0,1,630,457.81,339,339,0,0,1,655.34,360a366.16,366.16,0,0,1,54.38-90,349.17,349.17,0,0,1,79.34-71.25A321.18,321.18,0,0,1,890,155.53,333,333,0,0,1,1108.93,180,334.63,334.63,0,0,1,1299,482.32c0,5.8,9,5.81,9,0A343.88,343.88,0,0,0,945.62,138.57a329,329,0,0,0-113.23,26.71A340.49,340.49,0,0,0,739.7,225.5,373.49,373.49,0,0,0,630.06,406.7C621,442,617.36,478.89,620.7,515.26c3.52,38.4,14.41,75.7,31.08,110.41a387.3,387.3,0,0,0,50.65,78.48A362.43,362.43,0,0,0,742,745.45c12,10.57,25.27,19.69,38.88,28a369,369,0,0,0,97.58,41.86,337.07,337.07,0,0,0,127.85,8.61,344,344,0,0,0,297.18-285.85,353,353,0,0,0,4.52-55.76C1308,476.53,1299,476.52,1299,482.32Z"/></g></svg>
