<svg xmlns="http://www.w3.org/2000/svg" viewBox="0 0 1920 1080"><defs><style>.cls-1{fill:#ceaa72;}.cls-2{fill:#c2913b;}.cls-3{opacity:0.22;}.cls-4,.cls-5{fill:#fff;}.cls-5{stroke:#fff;stroke-miterlimit:10;stroke-width:1.5px;}</style></defs><title>slipde_indhold</title><g id="Layer_2" data-name="Layer 2"><rect class="cls-1" x="0.5" y="0.5" width="1920" height="1080"/><path class="cls-2" d="M1300.5,480.75c0,187.27-151.82,339.09-339.09,339.09C851.64,819.84,771.23,763,748.89,745c-8.59-6.93-129.6-107.81-126.58-264.25,3.14-162.59,139.34-339.1,339.1-339.1C1148.68,141.65,1300.5,293.47,1300.5,480.75Z"/><g class="cls-3"><path class="cls-4" d="M1159.25,471l127.42-83.31a365.09,365.09,0,0,1-35.94,274.44l-89.84-52.28Q1160.06,540.45,1159.25,471Z"/><path class="cls-4" d="M1160,472.32l49.73-32.52,49.73-32.51,28-18.28-2.21-.9a368.6,368.6,0,0,1,8.67,43.3,363.6,363.6,0,0,1-42.2,226l-2.25,4,2-.54-70-40.72-19.86-11.55.75,1.29q-.65-54.06-1.28-108.11l-.36-30.74a1.5,1.5,0,0,0-3,0q.57,48,1.13,96.05.15,11.79.28,23.59l.14,12.08.07,5.76c0,.83-.15,1.77.46,2.43a11.37,11.37,0,0,0,2.66,1.61l41.14,23.94,46.34,27a1.52,1.52,0,0,0,2.06-.54,367.52,367.52,0,0,0,37.25-271.07c-.38-1.51-.77-3-1.16-4.52a1.52,1.52,0,0,0-2.21-.89l-49.73,32.51-49.73,32.52-28,18.28C1156.89,470.78,1158.39,473.38,1160,472.32Z"/></g><path class="cls-4" d="M849,686.65V791.21c0,4.82-.19,9.68,0,14.49a1.34,1.34,0,0,1,0,.2,1.5,1.5,0,0,0,3,0V701.34c0-4.82.2-9.68,0-14.49v-.2a1.5,1.5,0,0,0-3,0Z"/><path class="cls-4" d="M943.76,689.92v119c0,5.44-.2,10.93,0,16.38v.23a1.5,1.5,0,0,0,3,0v-119c0-5.45.19-10.94,0-16.38v-.23a1.5,1.5,0,0,0-3,0Z"/><path class="cls-4" d="M1295.81,485.5a335.45,335.45,0,0,1-241.89,322.09,333.84,333.84,0,0,1-114.68,12.47c-40.64-2.7-80.74-13.4-117.76-30.3a347.57,347.57,0,0,1-67.43-40.06l-.6-.47-1-.78-1.75-1.4L749.39,746c-1.62-1.34-3.21-2.72-4.78-4.12-5.7-5.05-11.19-10.34-16.52-15.78a390.23,390.23,0,0,1-47.57-59c-18.79-28.59-33.77-59.69-43.34-92.58A299.78,299.78,0,0,1,626.72,461a338.76,338.76,0,0,1,25.37-97.84,366.4,366.4,0,0,1,54.38-90,349.26,349.26,0,0,1,79.35-71.26,321.23,321.23,0,0,1,100.95-43.23,333,333,0,0,1,219,24.52A334.63,334.63,0,0,1,1295.81,485.5c0,5.79,9,5.8,9,0A343.95,343.95,0,0,0,942.39,141.71a329.07,329.07,0,0,0-113.24,26.71,341,341,0,0,0-92.69,60.22A373.47,373.47,0,0,0,626.81,409.86c-9.12,35.34-12.7,72.2-9.37,108.58,3.52,38.4,14.41,75.7,31.09,110.42a387.92,387.92,0,0,0,50.65,78.49,363.26,363.26,0,0,0,39.56,41.3c12,10.56,25.27,19.69,38.89,28a369,369,0,0,0,97.58,41.86,337,337,0,0,0,127.87,8.61,344.07,344.07,0,0,0,297.21-285.87,354.3,354.3,0,0,0,4.52-55.76C1304.81,479.71,1295.81,479.7,1295.81,485.5Z"/><path class="cls-4" d="M1000.11,402.8c.21,21.37-8.63,41.69-23.47,56.93-13.2,13.55-31.18,23.65-50.1,25.84a69.41,69.41,0,0,1-37.77-6.71v3.89a110.35,110.35,0,0,0,14-11.89,114.15,114.15,0,0,0,20.82-27.72,85.76,85.76,0,0,0,10.18-41.69c-.35-15.41-5-30.55-12.3-44.06a103.74,103.74,0,0,0-25.6-31c-1.21-1-2.45-1.94-3.69-2.88v3.88A67.91,67.91,0,0,1,925.33,322a76.85,76.85,0,0,1,25.22,7.22A89.34,89.34,0,0,1,991.84,369a77.62,77.62,0,0,1,8.27,33.82c0,2.89,4.54,2.9,4.5,0-.32-21.91-9.58-42.63-24.85-58.21-13.59-13.88-31.86-24.09-51.23-26.74a72.69,72.69,0,0,0-38.61,5.63c-1.74.74-1.17,3,0,3.88a99.79,99.79,0,0,1,25.88,29.11c7,11.9,11.82,25.31,13.13,39.07a80,80,0,0,1-7.44,41.77,106.5,106.5,0,0,1-19.68,28.11,121.8,121.8,0,0,1-9.14,8.61c-1.13,1-2.28,1.9-3.45,2.82l-.34.26h0l-.67.51-1,.75-.69.49c-1.26.89-1.66,3.1,0,3.89,11.37,5.42,23.9,8.43,36.55,7.63A80.79,80.79,0,0,0,951.36,483c19.17-8.73,35.61-24.24,44.86-43.23a82.68,82.68,0,0,0,8.39-37C1004.58,399.9,1000.08,399.89,1000.11,402.8Z"/><path class="cls-4" d="M1070.54,496.74h-22.91c-2.89,0-2.9,4.5,0,4.5h22.91c2.9,0,2.9-4.5,0-4.5Z"/><path class="cls-4" d="M1069.5,582.13h-22.91c-2.89,0-2.9,4.5,0,4.5h22.91c2.9,0,2.9-4.5,0-4.5Z"/><path class="cls-4" d="M966.58,650V627.07c0-2.9-4.5-2.9-4.5,0V650c0,2.89,4.5,2.9,4.5,0Z"/><path class="cls-4" d="M839.54,650V627.07c0-2.9-4.5-2.9-4.5,0V650c0,2.89,4.5,2.9,4.5,0Z"/><path class="cls-4" d="M827.92,652.23H973.7L971.45,650c0,7.29-.23,14.62,0,21.91.07,2.3-1.43,4.89-2.71,6.71a16.8,16.8,0,0,1-6,5.18,15.92,15.92,0,0,1-2.56,1.07,7.13,7.13,0,0,1-2.5.37H849.47c-2.91,0-5.94.39-8.72-.61a16.79,16.79,0,0,1-10.51-11.71,23.15,23.15,0,0,1-.07-4.49V650c0-2.9-4.5-2.9-4.5,0v16.93c0,2-.15,4,0,6a16.11,16.11,0,0,0,2.05,5.84,21.3,21.3,0,0,0,6,7.12,20.82,20.82,0,0,0,7.69,3.68,21.6,21.6,0,0,0,5,.19H955.14a22.63,22.63,0,0,0,4.87-.15,18.18,18.18,0,0,0,2.5-.8,21.73,21.73,0,0,0,13-14.09,18.33,18.33,0,0,0,.39-5.28V650a2.28,2.28,0,0,0-2.25-2.25H827.92C825,647.73,825,652.23,827.92,652.23Z"/><rect class="cls-2" x="750.86" y="456.3" width="295.73" height="170.77" rx="12"/><path class="cls-4" d="M1034.59,625.57H763.28a10.87,10.87,0,0,1-8.23-3.5c-3.23-3.57-2.69-8.24-2.69-12.66V478.18c0-3.27,0-6.54,0-9.8a10.66,10.66,0,0,1,10.5-10.58h271.36a10.8,10.8,0,0,1,8.68,4.09,11.61,11.61,0,0,1,2.19,7.4v142.9c0,.93,0,1.87,0,2.8a10.65,10.65,0,0,1-10.5,10.58c-1.93,0-1.93,3,0,3a13.7,13.7,0,0,0,13.5-13.5c0-.76,0-1.52,0-2.28V469.29a14.89,14.89,0,0,0-1.95-8,13.74,13.74,0,0,0-11.7-6.53c-2.15,0-4.29,0-6.44,0H764c-.65,0-1.31,0-2,0a13.71,13.71,0,0,0-12.68,13.48c0,3,0,5.92,0,8.88V609.29c0,4.55-.44,9.24,2.26,13.23A13.78,13.78,0,0,0,763,628.57h271.55A1.5,1.5,0,0,0,1034.59,625.57Z"/><path class="cls-4" d="M1068.29,499v82.89a12.36,12.36,0,0,0,.08,3.1c.27.95,1.11,1.38,1.89,1.85l5.35,3.21,40.44,24.27,10.27,6.16c3.09,1.85,6.12,4,9.55,5.12a20.45,20.45,0,0,0,19.06-3.22,20.86,20.86,0,0,0,7.12-11.37c.61-2.53.29-5.28.29-7.87V485.07c0-3.62.18-7.29,0-10.9a19.12,19.12,0,0,0-8-15c-5-3.38-11.29-3.14-16.56-.57-2.38,1.15-4.64,2.6-7,3.9l-10,5.64q-20.7,11.63-41.38,23.27l-10,5.64c-2.53,1.42-.26,5.31,2.27,3.88l64.9-36.5c3.13-1.77,6-3.46,9.76-3.32a11.79,11.79,0,0,1,9.59,6.3c2.5,4.44,1.91,9.51,1.91,14.41V606.87a15,15,0,0,1,0,2.42,15.75,15.75,0,0,1-15.72,12.88c-5.64-.13-10.15-3.57-14.8-6.36l-15.83-9.5-32.1-19.25-7.7-4.63,1.11,2V499C1072.79,496.09,1068.29,496.09,1068.29,499Z"/><circle class="cls-2" cx="837.83" cy="402.8" r="92.68"/><path class="cls-4" d="M929,402.8a90.78,90.78,0,1,1-1.08-14.13A91.72,91.72,0,0,1,929,402.8a1.5,1.5,0,0,0,3,0,94.05,94.05,0,1,0-1.13,14.58A97.56,97.56,0,0,0,932,402.8,1.5,1.5,0,0,0,929,402.8Z"/><circle class="cls-2" cx="837.83" cy="402.8" r="72.89"/><path class="cls-4" d="M909.22,402.8a70.93,70.93,0,1,1-.83-11,71.88,71.88,0,0,1,.83,11,1.5,1.5,0,0,0,3,0,74.41,74.41,0,1,0-.89,11.47,77.32,77.32,0,0,0,.89-11.47A1.5,1.5,0,0,0,909.22,402.8Z"/><circle class="cls-5" cx="836.79" cy="403.84" r="12.5"/><circle class="cls-5" cx="838.39" cy="448.9" r="16.05"/><circle class="cls-5" cx="798.31" cy="427.34" r="16.05"/><circle class="cls-5" cx="797.43" cy="381.83" r="16.05"/><circle class="cls-5" cx="836.66" cy="358.74" r="16.05"/><circle class="cls-5" cx="876.02" cy="381.6" r="16.05"/><circle class="cls-5" cx="875.42" cy="427.11" r="16.05"/></g></svg>
